{"glyphs":{"0":{"ha":670,"x_min":0,"x_max":0,"o":"m 406 607 b 59 108 242 429 126 263 b -44 -288 -9 -70 -44 -202 l -44 -304 b -22 -408 -44 -341 -37 -376 b 162 -522 43 -484 104 -522 l 189 -522 b 374 -429 212 -522 273 -491 b 493 -299 435 -382 475 -338 l 493 -288 b 412 -380 443 -349 416 -379 b 211 -505 363 -418 297 -459 b 178 -489 189 -500 178 -495 b 249 -473 204 -489 228 -484 b 526 -185 366 -422 458 -326 l 526 -174 l 455 -277 b 184 -473 338 -408 248 -473 l 157 -473 b 5 -310 56 -438 5 -384 l 5 -234 b 86 37 5 -184 32 -94 l 92 37 l 92 32 b 10 -267 37 -121 10 -220 b 37 -353 10 -302 19 -332 l 37 -342 l 43 -342 b 178 -440 43 -381 88 -414 l 178 -446 l 168 -446 b 43 -364 132 -446 90 -418 l 43 -375 b 173 -462 80 -433 123 -462 b 352 -364 210 -462 270 -429 l 352 -359 l 347 -359 l 309 -386 l 303 -386 b 390 -299 361 -331 390 -302 b 406 -304 394 -299 399 -301 l 406 -283 l 401 -283 l 390 -288 l 401 -267 l 401 -261 b 260 -380 336 -332 289 -372 l 249 -380 l 249 -375 b 401 -229 275 -366 326 -317 b 574 298 517 -26 574 149 b 553 357 567 312 560 332 l 542 357 b 531 319 542 340 538 328 l 531 243 l 542 243 l 542 276 l 547 276 b 553 184 547 252 549 222 l 542 146 b 520 102 528 130 520 115 l 515 102 l 515 108 b 520 157 518 127 520 144 l 509 157 b 488 64 495 127 488 97 l 482 64 l 482 92 b 515 303 496 126 507 197 l 504 303 b 477 124 496 212 488 152 b 347 -158 420 -47 377 -141 l 347 -142 b 195 -304 329 -170 278 -224 l 173 -299 b 178 -294 173 -296 175 -294 b 265 -6 178 -201 208 -105 b 520 385 317 138 403 268 l 536 385 b 634 515 551 427 583 470 b 623 547 634 525 631 536 b 585 569 598 549 585 557 b 531 596 549 575 531 585 b 515 591 528 596 522 594 b 488 618 511 591 503 600 l 482 618 l 471 612 b 455 634 466 627 460 634 l 450 634 z m 672 390 b 688 238 683 328 688 278 l 688 233 l 699 233 l 699 330 b 677 390 694 370 686 390 z m 211 330 l 211 325 b 189 281 197 300 189 286 l 184 281 l 184 287 b 205 330 198 307 205 321 z m 656 287 b 585 -39 656 210 632 102 l 585 -44 l 591 -44 b 672 276 645 87 672 193 b 661 287 672 282 669 286 z m 205 265 l 205 260 l 119 86 l 113 86 l 113 92 b 200 265 153 182 182 240 z m 227 254 l 227 249 b 222 233 224 242 222 237 l 216 233 l 216 238 b 222 254 220 245 222 251 z m 157 233 l 157 227 b 59 32 96 125 63 60 l 54 32 l 54 37 b 151 233 90 122 122 187 z m 205 216 l 205 211 b 195 184 198 199 195 190 l 189 184 l 189 189 b 200 216 197 201 200 210 z m 634 10 l 645 10 b 694 216 677 138 694 208 l 694 222 l 683 222 z m 520 178 l 531 178 l 531 205 l 520 205 z m 612 162 l 623 162 l 623 173 l 612 173 z m 200 135 l 200 124 l 195 124 l 195 135 z m 574 135 l 585 135 l 585 140 l 574 140 z m 607 135 l 618 135 l 618 140 l 607 140 z m 515 97 l 515 86 l 509 86 l 509 97 z m 444 97 b 385 -60 444 73 425 20 l 385 -66 l 395 -66 b 455 92 419 -22 439 30 l 455 97 z m 509 81 l 509 75 b 455 -66 496 28 477 -19 l 450 -66 l 450 -60 b 504 81 486 22 504 69 z m 102 64 l 102 59 b 97 43 99 52 97 47 l 92 43 l 92 48 b 97 64 95 56 97 61 z m 547 54 b 536 10 547 47 544 33 l 547 10 b 558 48 547 12 551 25 l 558 54 z m 477 37 b 471 16 473 31 471 24 l 466 16 l 466 37 z m 623 -12 b 596 -82 605 -52 596 -76 l 596 -87 b 634 -12 621 -52 634 -26 z m 520 -39 b 509 -50 514 -39 511 -42 l 509 -66 b 526 -39 515 -66 521 -57 z m 81 -55 l 81 -66 l 75 -66 l 75 -55 z m 184 -55 l 184 -66 l 178 -66 l 178 -55 z m 585 -50 b 542 -131 579 -50 565 -77 l 542 -142 b 585 -60 549 -142 564 -115 z m 178 -71 l 178 -82 l 173 -82 l 173 -71 z m 75 -77 l 75 -87 l 70 -87 l 70 -77 z m 531 -93 b 542 -82 538 -93 542 -90 l 531 -82 z m 70 -98 l 70 -109 l 64 -109 l 64 -98 z m 102 -104 l 102 -109 b 70 -245 81 -191 70 -237 l 64 -245 l 64 -239 b 97 -104 71 -180 81 -134 z m 531 -98 b 520 -109 525 -98 522 -102 l 520 -115 b 531 -104 528 -115 531 -111 z m 488 -104 b 460 -163 488 -114 479 -134 l 460 -174 b 498 -104 477 -162 490 -138 z m 509 -125 b 493 -158 509 -133 504 -144 l 493 -163 l 498 -163 b 520 -136 503 -163 511 -154 l 520 -125 z m 580 -142 b 526 -234 575 -142 557 -172 l 526 -239 b 580 -153 541 -236 559 -207 z m -6 -163 l -6 -169 b -17 -337 -14 -246 -17 -302 l -22 -337 l -28 -299 l -28 -261 b -12 -163 -28 -247 -22 -214 z m 48 -169 l 48 -180 l 43 -180 l 43 -169 z m 379 -169 l 379 -174 b 347 -229 360 -202 349 -220 l 341 -229 l 341 -223 b 374 -169 363 -193 374 -175 z m 450 -191 l 455 -191 l 455 -180 l 450 -180 z m 488 -180 b 466 -207 480 -181 473 -190 l 466 -212 l 477 -212 b 488 -191 477 -206 480 -199 z m 43 -191 l 43 -207 l 37 -207 l 37 -191 z m 37 -218 l 37 -234 l 32 -234 l 32 -218 z m 455 -229 b 444 -239 449 -229 446 -232 l 444 -245 l 450 -245 b 460 -234 457 -245 460 -241 l 460 -229 z m 124 -250 l 124 -288 l 119 -288 l 119 -250 z m 271 -250 l 265 -261 l 260 -261 l 265 -250 z m 309 -250 b 287 -277 294 -266 287 -275 l 281 -277 l 303 -250 z m 336 -256 b 281 -310 304 -292 286 -310 l 276 -310 b 330 -256 312 -277 330 -259 z m 428 -272 l 439 -272 l 439 -261 l 428 -261 z m 32 -294 l 32 -315 l 26 -315 l 26 -294 z m 70 -304 l 70 -315 b 146 -397 83 -370 109 -397 l 146 -402 l 140 -402 b 64 -342 117 -402 92 -382 l 64 -304 z m 124 -310 b 135 -321 132 -310 135 -313 l 124 -321 z m 205 -326 b 249 -310 216 -326 231 -321 l 254 -310 l 254 -315 b 211 -337 247 -315 233 -323 l 205 -337 z m 37 -321 l 37 -337 l 32 -337 l 32 -321 z m 374 -326 l 379 -337 b 390 -326 387 -337 390 -334 l 390 -321 l 385 -321 z m -12 -353 b 10 -397 -12 -361 -4 -375 l 10 -402 l 5 -402 b -17 -359 5 -395 -3 -380 l -17 -353 z m 37 -364 l 43 -364 l 43 -353 l 37 -353 z m 168 -408 b 211 -397 178 -408 193 -404 l 216 -397 l 216 -402 b 189 -413 210 -402 201 -406 l 168 -413 z m 21 -418 b 92 -473 52 -454 76 -473 l 92 -478 l 86 -478 b 21 -418 69 -478 47 -458 z "},"1":{"ha":564,"x_min":0,"x_max":0,"o":"m 315 523 l 321 512 b 277 469 296 483 281 469 l 277 474 b 310 512 277 476 288 488 l 299 512 b 158 376 212 422 165 376 b -64 176 52 275 -23 209 b -48 143 -61 154 -56 143 b -26 127 -34 143 -26 138 b 66 67 35 103 66 83 b 104 35 91 58 104 47 l 115 35 l 153 56 l 158 56 b 147 7 158 47 155 31 b 17 -351 79 -171 35 -290 l 28 -351 b 77 -204 41 -300 58 -251 b 147 -47 123 -107 147 -55 l 142 -36 b 196 94 156 -22 174 22 l 201 94 l 201 89 b 6 -475 71 -278 6 -466 l 6 -481 l 12 -481 b 33 -454 17 -481 24 -472 b 120 -210 33 -418 62 -337 b 256 149 199 29 245 149 b 218 2 241 81 229 33 l 218 -9 l 223 -9 b 272 154 241 42 258 96 l 277 154 l 277 149 b 223 -20 277 125 259 69 l 212 -14 l 158 -155 l 169 -155 b 180 -112 169 -152 172 -137 l 185 -112 l 185 -117 b 163 -177 182 -139 174 -159 b 174 -188 163 -184 167 -188 b 147 -264 174 -201 165 -227 l 147 -269 l 153 -269 b 239 -52 160 -264 189 -191 l 245 -52 l 245 -58 b 239 -101 241 -77 239 -92 b 104 -481 193 -197 148 -324 l 109 -492 l 104 -503 l 109 -513 b 98 -519 109 -517 106 -519 b 104 -524 98 -522 100 -524 l 98 -562 l 104 -562 b 115 -546 111 -562 115 -557 b 120 -551 118 -546 120 -548 b 142 -513 130 -551 137 -538 l 136 -513 b 125 -541 129 -513 125 -522 l 120 -541 l 120 -530 b 191 -318 153 -420 176 -350 l 196 -318 l 196 -323 b 153 -454 196 -335 182 -378 l 158 -454 b 185 -394 171 -454 180 -434 l 191 -394 l 191 -405 b 153 -546 184 -451 172 -498 l 158 -546 b 212 -405 165 -543 183 -496 l 218 -405 l 218 -421 l 223 -421 b 267 -313 237 -407 252 -370 l 256 -307 b 267 -248 263 -274 267 -254 l 272 -248 b 283 -264 272 -258 275 -264 l 288 -264 l 288 -253 b 402 51 350 -102 388 0 b 592 561 514 336 578 507 b 576 593 592 579 587 590 l 478 593 l 478 604 l 451 604 l 440 599 b 380 615 440 602 420 607 z m 277 414 l 277 409 b 256 398 272 409 264 406 l 250 398 l 261 414 z m 196 387 b 207 398 196 393 199 397 l 212 398 b 196 382 207 387 201 382 z m 223 360 l 218 349 l 212 349 l 218 360 z m 239 355 l 239 349 l 229 349 l 229 355 z m 185 344 b 196 333 193 344 196 340 l 185 333 z m 212 273 b 239 300 225 292 235 300 l 239 295 b 212 268 227 277 217 268 z m 299 284 l 299 268 l 294 268 l 294 284 z m 180 181 l 174 170 l 169 170 l 174 181 z m 185 159 b 196 170 185 165 189 170 l 196 165 b 185 154 196 157 193 154 z m 391 165 l 391 154 l 386 154 l 386 165 z m 315 143 l 315 138 b 277 24 315 123 302 85 l 272 24 l 272 29 b 310 143 286 80 299 118 z m 359 -14 l 359 -25 l 353 -25 l 353 -14 z m 315 -25 l 315 -41 l 310 -41 l 310 -25 z m 294 -106 l 294 -112 l 283 -144 l 277 -144 l 277 -139 b 288 -106 277 -137 281 -126 z m 142 -193 l 142 -199 l 147 -199 b 158 -188 155 -199 158 -195 l 158 -166 l 147 -166 z m 250 -172 l 250 -188 l 245 -188 l 245 -172 z m 304 -172 l 304 -182 l 299 -182 l 299 -172 z m 142 -204 b 131 -215 136 -204 132 -208 l 131 -226 l 136 -226 b 147 -215 144 -226 147 -222 l 147 -204 z m 136 -231 b 125 -242 130 -231 127 -235 l 125 -248 l 136 -248 z m 125 -258 b 115 -269 119 -258 116 -262 l 115 -275 l 125 -275 z m 115 -286 b 104 -296 109 -286 105 -289 l 104 -302 l 115 -302 z m 147 -286 b 131 -318 138 -286 133 -296 l 131 -329 l 142 -329 b 153 -286 142 -323 145 -309 z m 104 -313 b 93 -323 98 -313 94 -316 l 93 -329 l 104 -329 z m 120 -361 b 109 -372 114 -361 111 -365 l 109 -383 l 120 -383 b 125 -361 120 -375 122 -368 z m 201 -372 l 201 -383 l 191 -383 l 191 -372 z m 104 -405 b 93 -416 98 -405 94 -408 l 93 -427 l 104 -427 z m 136 -443 l 136 -448 b 131 -475 133 -454 131 -463 l 125 -475 l 125 -465 l 131 -443 z m -16 -454 b -37 -503 -16 -467 -23 -483 l -37 -508 l -32 -519 b -5 -459 -24 -519 -16 -499 l -5 -454 z "},"2":{"ha":660,"x_min":0,"x_max":0,"o":"m 584 614 b 486 597 551 614 519 608 b -51 207 321 526 142 395 l -51 196 l 79 98 b 210 191 94 98 138 129 b 562 435 382 346 500 427 l 568 435 b 535 342 568 424 557 393 b 329 82 435 232 366 145 l 329 77 l 334 77 l 378 120 l 378 115 b 226 -59 353 61 302 3 b 14 -341 156 -176 85 -270 l 9 -341 l 9 -330 b -78 -385 -11 -352 -39 -370 b -35 -460 -78 -395 -64 -420 l 20 -526 b 286 -401 92 -526 180 -484 b 513 -271 408 -338 484 -295 b 459 -287 496 -271 477 -276 l 454 -287 l 454 -281 b 671 -157 594 -208 666 -165 l 671 -151 b 242 -390 543 -214 399 -294 l 237 -390 l 329 -319 l 329 -314 b 275 -341 321 -314 302 -323 b 334 -303 281 -330 301 -317 l 345 -309 b 448 -249 406 -281 440 -260 l 437 -249 b 475 -205 460 -228 473 -214 b 405 -233 464 -205 440 -214 l 399 -233 l 405 -222 b 665 -64 514 -177 601 -125 l 665 -59 b 633 -70 659 -59 648 -62 b 627 -64 633 -66 631 -64 l 627 -70 b 600 -108 610 -84 602 -97 l 568 -102 l 568 -97 l 578 -97 l 578 -86 b 557 -92 570 -86 563 -88 l 551 -92 b 589 -59 576 -73 589 -62 b 535 -81 581 -59 563 -66 b 530 -70 532 -81 530 -77 l 524 -70 b 443 -135 482 -102 455 -123 b 437 -119 443 -131 441 -125 b 340 -173 385 -143 353 -161 l 340 -168 l 361 -140 l 361 -135 l 356 -135 b 329 -168 343 -142 334 -153 l 323 -168 b 432 -48 323 -161 359 -122 l 432 -59 l 437 -59 b 492 22 473 -11 492 16 b 741 413 658 192 741 322 l 741 451 b 584 614 718 559 666 614 z m 616 522 b 638 484 616 517 624 505 b 600 522 613 503 600 516 z m 497 511 l 497 505 l 486 505 l 486 511 z m 356 364 b 568 484 444 441 514 481 l 573 484 b 611 446 576 484 589 471 l 616 446 b 595 484 616 454 609 467 l 606 484 b 627 429 620 450 627 432 l 616 429 b 584 337 601 379 590 349 l 584 326 b 606 364 591 326 598 339 l 611 364 l 611 359 b 573 288 611 356 598 332 l 568 288 l 584 315 l 584 326 b 551 288 581 326 570 313 b 481 207 509 234 486 207 b 443 153 461 171 448 153 b 427 131 440 138 435 131 b 394 39 405 86 394 56 l 405 39 b 557 245 425 79 475 148 l 562 245 l 437 66 b 264 -130 437 54 380 -11 b 161 -276 232 -195 198 -244 b 144 -271 157 -276 152 -274 b 52 -330 132 -290 102 -310 l 41 -330 b 226 -86 109 -260 170 -178 b 443 180 313 -3 385 85 b 600 418 548 292 600 371 b 578 473 600 429 593 448 b 361 364 519 473 447 437 z m 416 462 l 416 456 l 405 456 l 405 462 z m 654 462 l 660 435 b 578 261 660 388 633 330 l 573 261 b 654 429 627 336 654 392 l 649 462 z m 519 440 l 519 435 l 508 435 l 508 440 z m 584 424 l 584 413 l 578 413 l 578 424 z m 578 408 l 578 397 l 573 397 l 573 408 z m 329 370 b 372 402 346 388 361 399 l 378 402 l 378 397 b 329 370 373 397 357 388 z m 654 288 l 654 277 l 649 277 l 649 288 z m 497 272 l 486 256 l 481 256 l 492 272 z m 557 272 b 535 245 543 256 535 247 l 530 245 l 551 272 z m 568 169 b 513 104 548 137 530 115 l 513 109 b 557 169 543 140 557 160 z m 497 77 l 497 71 l 492 60 l 486 60 b 492 77 490 68 492 73 z m 470 66 l 470 60 b 454 33 459 49 454 39 l 448 33 l 448 39 b 465 66 459 50 465 60 z m 318 55 l 323 55 l 323 66 l 318 66 z m 378 55 b 389 66 385 55 389 58 l 378 66 z m 302 44 b 275 12 297 44 288 33 l 275 6 b 307 39 296 23 307 34 l 307 44 z m 394 33 b 307 -48 342 -21 313 -48 l 313 -59 b 394 28 367 -10 394 19 z m 226 -37 b 193 -70 204 -54 193 -65 l 193 -75 b 231 -37 218 -56 231 -43 z m 616 -37 b 606 -48 610 -37 607 -41 l 622 -48 l 622 -37 z m 291 -70 b 264 -97 275 -88 266 -97 l 269 -108 b 296 -75 282 -101 292 -90 l 296 -70 z m 340 -92 b 248 -222 278 -171 248 -214 l 242 -222 l 242 -216 b 334 -92 242 -210 273 -168 z m 513 -135 l 513 -140 l 503 -140 l 503 -135 z m 134 -168 b 144 -157 141 -168 144 -164 l 134 -157 z m 421 -168 l 421 -173 l 405 -173 l 405 -168 z m 443 -173 l 443 -178 l 432 -178 l 432 -173 z m 123 -184 b 134 -173 130 -184 134 -180 l 123 -173 z m 524 -173 b 492 -195 503 -182 492 -190 l 508 -195 b 535 -173 526 -185 535 -178 z m 665 -178 l 665 -189 b 692 -173 684 -186 692 -181 z m 123 -184 b 112 -195 117 -184 113 -187 l 123 -195 z m 367 -200 b 378 -189 367 -194 370 -190 l 383 -189 b 372 -200 383 -197 380 -200 z m 649 -189 b 627 -205 635 -195 627 -200 l 638 -205 b 649 -195 646 -205 649 -202 z m 513 -205 b 503 -216 507 -205 504 -209 l 519 -216 l 519 -205 z m 578 -233 b 519 -265 538 -247 519 -258 l 524 -265 b 578 -243 532 -265 551 -258 z m 74 -243 b 63 -254 68 -243 64 -247 l 68 -254 b 79 -243 76 -254 79 -251 z m 394 -271 l 394 -276 l 383 -276 l 383 -271 z m 36 -287 l 47 -287 l 47 -281 l 36 -281 z m 253 -319 b 296 -287 253 -315 267 -304 l 302 -287 b 258 -319 302 -292 288 -302 z m 9 -330 l 14 -330 l 14 -319 l 9 -319 z m 253 -406 l 253 -412 l 242 -412 l 242 -406 z m 172 -428 l 172 -433 l 155 -433 l 155 -428 z "},"3":{"ha":602,"x_min":0,"x_max":0,"o":"m 488 653 b 401 528 479 650 450 609 b 390 539 395 528 391 532 b 363 534 384 536 375 534 l 363 512 b 390 523 369 512 378 515 l 390 517 b 357 474 371 490 360 475 b 173 393 357 441 296 414 l 151 393 l 151 398 b 292 431 230 420 277 431 l 292 441 l 276 441 l 276 447 b 314 463 287 447 300 452 l 314 474 b 298 469 311 474 305 472 l 281 469 l 281 474 b 357 507 285 474 310 485 l 357 523 l 352 523 b 330 517 344 523 336 521 l 325 517 l 325 523 l 347 528 l 347 534 l 341 545 b 363 561 355 550 363 555 l 363 566 b 347 561 359 566 354 564 b 314 566 344 561 333 563 b 303 555 308 566 304 563 b 32 517 208 530 117 517 l 26 517 l 10 507 b 54 404 10 484 24 450 l 54 398 l 48 387 b 108 349 65 362 85 349 b 287 387 227 361 287 374 l 298 387 b 271 333 298 382 289 365 l 271 328 b 303 366 286 336 297 349 l 309 366 b 265 306 290 330 275 310 b 151 138 199 197 161 141 l 146 138 l 135 143 l 124 127 l 32 78 l 37 51 b 108 -52 84 -2 108 -37 b 173 -47 138 -52 159 -50 b 412 35 288 7 367 35 l 433 35 b 368 -68 426 5 404 -30 b 178 -237 251 -162 188 -218 l 189 -237 l 222 -215 l 227 -215 l 222 -226 b 48 -378 120 -303 62 -354 l 54 -378 l 336 -144 b 466 35 403 -101 446 -41 l 455 73 l 417 73 b 368 67 404 73 388 71 l 363 67 l 363 73 l 444 83 b 471 62 463 73 471 66 l 471 2 l 401 -112 b 298 -204 358 -137 324 -168 b 233 -280 281 -204 259 -229 l 233 -286 b 352 -188 245 -286 285 -253 l 357 -188 b 75 -432 319 -227 224 -308 b -87 -600 18 -500 -37 -556 b -44 -584 -85 -600 -71 -595 b 54 -492 3 -522 36 -492 l 59 -492 l 59 -497 l 48 -497 l 54 -508 l 64 -503 l 70 -503 l 37 -541 l 37 -546 l 119 -481 l 119 -492 l 130 -492 b 211 -421 137 -492 164 -468 b 205 -416 211 -418 209 -416 l 216 -399 l 227 -405 l 233 -405 b 249 -367 233 -399 238 -387 b 260 -378 256 -367 260 -370 b 602 24 488 -203 602 -69 l 602 40 b 498 203 602 107 567 161 b 374 224 415 205 374 213 l 379 224 b 488 349 387 224 422 266 l 645 588 l 645 599 l 640 610 b 488 653 632 610 581 624 z m 271 517 l 271 512 l 260 512 l 260 517 z m 287 507 l 287 501 l 276 501 l 276 507 z m 401 458 b 412 469 401 464 404 468 l 412 458 z m 227 458 l 227 452 l 216 452 l 216 458 z m 211 452 l 211 447 l 200 447 l 200 452 z m 265 441 l 265 436 l 254 436 l 254 441 z m 368 420 b 390 441 377 434 385 441 l 390 436 b 374 420 385 425 379 420 z m 303 404 b 314 414 303 410 307 414 l 319 414 b 309 404 319 407 316 404 z m 184 149 b 271 268 184 163 213 203 b 368 409 324 355 357 401 b 363 393 368 406 366 400 b 303 311 331 338 311 311 l 303 300 b 287 246 303 283 298 264 b 292 241 290 246 292 244 b 341 300 295 241 311 260 l 347 300 b 276 186 329 279 305 241 b 184 149 232 173 201 160 z m 417 404 l 417 398 l 374 328 l 368 328 l 412 404 z m 271 398 l 271 393 l 260 393 l 260 398 z m 238 387 l 238 382 l 216 382 l 216 387 z m 374 387 l 374 382 l 363 366 l 357 366 b 368 387 365 374 368 382 z m 168 371 l 168 366 l 135 366 l 135 371 z m 265 322 b 233 290 243 305 233 294 l 233 284 l 238 284 b 265 317 243 284 252 295 z m 216 268 b 211 252 216 264 214 259 l 216 252 b 227 262 224 252 227 255 l 227 268 z m 195 219 b 205 230 202 219 205 222 l 205 235 l 195 235 z m 271 208 b 249 186 256 199 249 193 l 249 181 l 254 181 b 271 203 260 181 265 189 z m 422 94 l 422 89 l 379 89 l 379 94 z m 553 94 b 558 78 553 91 555 85 l 558 67 l 553 67 b 547 89 553 75 551 83 l 547 94 z m 520 35 l 520 18 l 515 18 l 515 35 z m 493 29 l 493 24 b 488 2 490 18 488 10 l 482 2 l 482 13 b 488 29 486 20 488 26 z m 444 18 l 444 7 l 439 7 l 439 18 z m 515 7 l 515 2 b 450 -106 511 -26 490 -62 l 444 -106 b 509 7 488 -56 509 -18 z m 433 -3 l 433 -9 b 422 -31 426 -18 422 -24 l 417 -31 l 417 -25 b 428 -3 425 -16 428 -9 z m 444 -172 b 471 -139 458 -150 467 -139 l 471 -144 b 450 -172 457 -160 450 -170 z m 477 -172 l 466 -188 l 460 -188 l 471 -172 z m 341 -264 b 379 -231 341 -260 354 -250 l 379 -237 b 347 -264 379 -242 368 -251 z m 157 -253 b 146 -264 151 -253 147 -256 l 146 -269 l 151 -269 l 162 -264 z m 135 -269 b 119 -286 124 -275 119 -280 l 119 -291 l 124 -291 b 140 -275 135 -285 140 -279 l 140 -269 z m 184 -286 b 195 -296 184 -293 187 -296 l 195 -286 z m 216 -291 b 205 -302 210 -291 207 -294 l 205 -307 l 211 -307 l 222 -302 z m 102 -296 b 59 -334 73 -319 59 -332 l 59 -340 b 108 -307 69 -340 85 -329 z m 168 -307 b 157 -318 161 -307 158 -311 l 168 -318 z m 195 -313 b 178 -329 184 -318 178 -323 l 184 -329 b 195 -318 191 -329 195 -326 z m 124 -334 l 130 -345 l 140 -340 l 135 -329 z m 151 -351 b 108 -389 130 -362 116 -375 l 119 -389 b 151 -356 140 -372 151 -361 z m 26 -361 b 16 -372 20 -361 17 -365 l 16 -378 l 21 -378 b 32 -367 28 -378 32 -374 l 32 -361 z m -6 -394 b -22 -410 -17 -399 -22 -405 l -17 -410 b -6 -399 -9 -410 -6 -407 z m 26 -399 b -82 -486 5 -401 -31 -431 l -82 -492 b 26 -399 -63 -492 -27 -461 z m -39 -421 b -50 -432 -45 -421 -48 -425 l -44 -432 b -33 -421 -37 -432 -33 -429 z m 184 -432 l 146 -470 l 135 -470 l 135 -465 b 178 -432 144 -465 159 -454 z m 113 -459 b 124 -448 113 -453 117 -449 l 130 -448 b 119 -459 130 -456 126 -459 z m -77 -459 l -71 -459 l -71 -448 l -77 -448 z m 10 -465 l 16 -475 l 26 -470 l 21 -459 z m -98 -470 b -109 -481 -104 -470 -108 -473 l -109 -486 l -104 -486 b -93 -475 -96 -486 -93 -483 l -93 -470 z m 10 -568 l 16 -568 l 16 -557 l 10 -557 z m -12 -578 b -22 -589 -18 -578 -21 -582 l -22 -595 l -17 -595 l -6 -589 z "},"4":{"ha":806,"x_min":0,"x_max":0,"o":"m 706 612 b 641 509 663 612 641 578 b 494 124 616 422 567 294 l 304 70 b 163 32 229 54 182 42 b 147 37 157 35 151 37 l 163 59 b 424 336 267 159 353 251 l 424 341 l 418 341 l 402 330 l 397 330 b 522 482 433 385 475 435 l 522 488 l 511 488 b 435 395 465 445 439 414 b 283 227 334 300 283 243 b 169 108 207 159 169 119 l 158 108 b 267 238 179 142 216 186 l 267 243 b 239 216 248 231 239 221 l 234 216 l 353 330 b 348 336 353 334 351 336 b 370 395 359 354 366 374 b 342 368 351 382 342 373 l 337 368 l 456 520 l 456 526 b 391 477 436 526 414 509 l 386 477 b 418 509 397 498 408 509 b 408 520 418 515 415 519 l 397 515 l 397 520 l 413 542 l 413 547 b 332 493 404 547 376 529 b 337 477 332 490 334 484 b 321 450 326 465 321 456 b 310 460 315 450 311 453 b 180 325 229 371 186 326 b -64 86 22 165 -60 86 b -48 54 -64 68 -59 57 l -37 59 b -21 43 -31 48 -26 43 b -48 21 -21 38 -30 31 b -16 -82 -33 -47 -22 -82 b 93 -153 -16 -129 20 -153 b 391 -87 113 -153 212 -131 b 364 -147 388 -99 378 -119 l 364 -158 b 408 -98 391 -118 405 -98 b 402 -120 408 -106 406 -114 b 299 -380 334 -262 299 -349 l 310 -380 b 326 -337 310 -366 315 -351 b 451 -71 374 -201 416 -113 l 456 -71 l 440 -104 l 446 -131 b 429 -191 446 -133 440 -153 l 440 -191 b 489 -77 440 -178 456 -140 l 494 -77 l 494 -82 l 370 -364 b 326 -522 351 -451 337 -503 l 332 -532 b 386 -402 368 -496 386 -452 l 391 -402 l 391 -413 l 402 -413 l 402 -402 l 408 -402 l 408 -408 b 397 -462 408 -411 404 -429 l 397 -467 l 408 -467 b 440 -353 429 -416 440 -378 l 446 -353 l 446 -370 l 456 -370 b 478 -304 471 -331 478 -309 l 467 -304 b 446 -348 463 -334 455 -348 b 494 -229 464 -294 480 -255 l 505 -234 l 516 -229 b 635 -12 575 -99 614 -27 b 630 -6 635 -8 633 -6 b 836 54 630 16 699 35 l 842 54 l 842 64 l 831 64 b 646 26 789 64 728 52 l 641 26 l 641 37 b 657 48 652 37 657 41 l 652 59 l 695 86 l 695 92 l 673 81 l 668 81 l 679 97 b 863 157 781 117 842 137 b 793 140 837 157 813 151 b 755 157 779 144 766 149 l 739 157 l 739 146 l 755 146 l 755 140 b 728 135 743 140 734 138 b 711 140 721 138 715 140 l 711 151 b 777 168 741 162 763 168 l 777 178 l 760 178 b 717 168 745 178 730 175 l 711 168 l 711 173 l 722 173 b 711 184 722 179 719 183 b 798 401 769 321 798 394 b 836 596 811 401 824 466 l 836 602 b 825 612 836 608 833 612 z m 566 656 b 555 645 559 656 556 652 l 544 650 l 544 640 b 555 629 544 632 547 629 b 571 645 566 635 571 640 z m 490 509 b 500 520 497 509 500 513 l 490 520 z m 571 493 b 522 439 568 493 552 475 l 528 439 l 576 482 z m 365 455 l 376 455 b 387 477 376 461 379 468 l 381 477 b 365 455 376 477 370 469 z m 473 455 l 484 455 l 484 460 l 473 460 z m 755 455 l 755 444 l 750 444 l 750 455 z m 734 444 l 734 439 b 647 227 695 331 666 260 l 636 227 b 728 444 636 243 667 316 z m 750 439 l 750 428 l 745 428 l 745 439 z m 327 417 b 349 433 327 422 334 428 b 327 412 340 419 333 412 z m 696 417 l 696 406 l 690 406 l 690 417 z m 690 401 l 690 395 b 685 379 687 389 685 383 l 680 379 l 680 385 b 685 401 683 392 685 397 z m 354 374 b 311 319 325 345 311 327 l 305 319 l 305 325 l 349 374 z m 392 314 b 381 292 385 305 381 298 l 376 292 l 376 298 l 387 314 z m 620 243 l 620 233 l 614 233 l 614 243 z m 327 238 l 305 211 l 300 211 b 321 238 300 213 307 222 z m 859 227 l 859 222 l 886 222 l 886 227 z m 783 222 l 783 216 l 793 216 l 793 222 z m 962 135 l 972 135 l 972 146 l 962 146 z m 392 124 l 392 119 l 403 119 l 403 124 z m 500 102 b 517 108 505 102 510 104 l 533 108 l 533 102 b 506 97 521 102 512 100 l 500 97 z m 815 108 b 761 97 786 100 768 97 l 750 97 l 750 86 l 761 86 b 815 108 797 91 815 98 z m 587 97 l 587 92 l 576 92 l 576 97 z m 452 86 l 452 81 l 425 81 l 425 86 z m 566 70 b 576 81 566 76 569 80 l 582 81 b 566 64 576 70 571 64 z m 517 75 l 517 70 l 506 70 l 506 75 z m 544 70 l 544 59 l 538 59 l 538 70 z m 332 16 b 506 59 424 31 481 46 l 511 59 b 300 -6 490 42 420 20 l 289 -6 b 311 5 289 1 296 5 l 311 10 l 305 21 l 332 26 z m 414 48 b 430 54 418 48 423 50 l 441 54 l 441 48 b 419 43 433 48 425 46 l 414 43 z m 468 21 b 484 26 472 21 477 23 l 500 26 l 500 21 l 473 16 l 468 16 z m 294 16 l 294 10 l 278 10 l 278 16 z m 636 10 b 631 -12 636 2 634 -5 l 631 -17 l 636 -17 b 647 10 636 -11 640 -1 z m 327 -17 l 327 -22 l 316 -22 l 316 -17 z m 522 -60 l 522 -66 b 511 -77 522 -73 519 -77 l 511 -71 b 522 -60 513 -64 516 -60 z m 587 -66 l 587 -77 l 593 -77 l 593 -66 z m 435 -120 l 446 -120 l 452 -93 l 441 -93 z m 528 -104 l 528 -120 l 517 -120 l 517 -115 b 528 -104 518 -107 522 -104 z m 511 -131 l 517 -142 l 506 -147 l 500 -147 l 500 -142 b 511 -131 502 -134 505 -131 z m 414 -174 l 425 -174 l 430 -147 l 419 -147 z m 495 -169 l 500 -169 l 500 -174 b 495 -191 497 -181 495 -186 l 484 -191 l 484 -180 b 495 -169 486 -172 489 -169 z m 511 -229 b 490 -299 497 -269 490 -293 l 490 -304 l 495 -304 l 517 -245 l 517 -229 z m 392 -321 b 370 -359 386 -321 379 -334 l 376 -359 b 392 -326 383 -359 389 -348 z "},"5":{"ha":665,"x_min":0,"x_max":0,"o":"m 555 625 b 496 608 525 614 505 608 l 496 597 l 507 597 l 507 592 l 479 587 l 479 597 b 154 543 339 562 231 543 l 83 543 b 29 516 47 536 29 527 b 62 446 39 469 50 446 b 56 429 62 442 60 437 l 73 408 b 51 304 73 385 65 350 l 51 299 b 78 326 66 317 76 326 b 62 277 78 313 73 297 l 62 267 b 111 342 68 267 84 292 l 127 342 b 121 337 127 339 125 337 b 127 315 121 329 123 321 b 121 299 123 309 121 303 l 116 299 l 116 310 b 100 294 105 304 100 299 l 100 288 b 121 283 108 288 115 286 l 105 250 l 105 239 l 116 239 b 176 348 127 281 146 317 b 100 185 165 315 140 261 b -74 125 -3 160 -61 140 b -68 120 -74 122 -72 120 l -74 109 b -52 93 -74 98 -66 93 b -58 87 -52 90 -54 87 l -58 77 b 13 -37 -21 33 3 -5 b 67 -32 32 -34 50 -32 b 420 60 212 18 330 48 l 425 60 b 252 -130 410 18 351 -45 l 257 -140 b 7 -347 118 -249 35 -317 b 132 -254 83 -312 124 -281 b 170 -227 157 -243 170 -233 l 176 -227 l 143 -265 b -117 -488 24 -358 -62 -433 b -20 -417 -95 -484 -62 -460 b 262 -189 46 -358 140 -282 l 268 -189 b 89 -352 245 -217 186 -271 b 111 -363 89 -359 96 -363 l 111 -368 b 29 -428 104 -368 77 -388 l 35 -439 l 165 -336 l 165 -341 l -36 -515 b -74 -558 -45 -538 -58 -553 l -68 -569 b -3 -520 -37 -555 -16 -538 l -9 -520 l -20 -526 l 7 -498 l 13 -498 l -3 -520 l 2 -520 b 67 -460 23 -508 45 -488 l 73 -460 l 18 -520 l 35 -520 l 35 -526 l -25 -585 b 45 -536 -12 -585 12 -569 b 51 -542 49 -536 51 -538 b 121 -493 72 -542 95 -526 b 257 -374 182 -449 228 -410 b 577 -92 294 -363 400 -269 b 686 71 650 -41 686 14 b 675 142 686 85 682 109 b 474 261 641 221 574 261 b 214 212 300 241 214 224 l 208 212 b 219 234 211 227 214 234 b 317 364 252 321 284 364 l 583 435 l 583 446 b 447 408 520 435 475 422 b 425 413 441 411 433 413 l 425 418 l 659 484 l 659 494 l 648 494 b 545 462 591 484 557 473 l 322 408 l 295 408 b 322 418 295 415 304 418 l 322 429 l 311 429 l 311 435 b 382 451 350 446 373 451 l 393 451 l 393 446 b 360 440 374 442 363 440 l 360 429 b 469 456 376 429 412 438 l 469 462 l 463 473 b 523 500 488 491 509 500 l 523 511 b 436 489 477 503 448 496 l 431 489 l 431 494 b 485 516 467 505 485 511 b 664 592 574 539 633 564 l 664 597 l 631 603 l 599 581 b 577 597 585 587 577 592 l 626 614 l 626 625 b 550 608 588 621 563 616 l 545 608 l 545 614 l 555 614 z m 555 587 l 555 581 l 545 581 l 545 587 z m 447 581 l 447 576 l 436 576 l 436 581 z m 593 570 b 610 576 597 570 603 572 l 615 576 l 604 559 b 593 570 598 559 595 563 z m 382 559 l 382 554 l 371 554 l 371 559 z m 414 538 b 425 549 414 544 418 548 l 431 549 b 420 538 431 541 427 538 z m 376 527 b 382 511 376 524 378 518 l 366 511 b 371 516 366 514 368 516 l 366 527 z m 545 511 l 555 511 l 555 522 l 545 522 z m 398 484 b 420 489 406 484 414 486 l 425 489 l 425 484 b 409 478 422 484 416 481 l 398 478 z m 528 478 l 539 478 l 539 489 l 528 489 z m 387 478 l 393 478 l 393 473 l 317 462 l 306 462 l 306 467 z m 686 478 b 604 456 640 464 612 456 l 604 446 b 686 467 617 446 644 453 z m 409 456 l 409 451 l 398 451 l 398 456 z m 338 424 l 349 424 l 349 435 l 338 435 z m 420 413 l 420 408 l 404 408 l 404 413 z m 398 408 l 398 402 l 387 402 l 387 408 z m 333 391 b 371 402 344 391 357 395 l 376 402 l 376 397 b 344 386 370 397 359 393 l 333 386 z m 116 310 l 121 310 l 121 321 l 116 321 z m 94 272 b 78 256 83 267 78 261 l 78 245 l 89 245 b 100 272 89 251 92 260 z m 51 250 b 29 229 37 241 29 235 l 29 212 l 40 212 b 51 239 40 218 43 228 z m 501 245 l 501 239 l 479 239 l 479 245 z m 7 229 b -3 218 1 229 -2 225 l -3 207 l 7 207 z m 149 218 l 149 207 l 143 207 l 143 218 z m 404 212 b 420 218 408 212 413 214 l 431 218 l 431 212 b 409 207 422 212 415 210 l 404 207 z m 566 201 l 566 196 l 555 196 l 555 201 z m 621 196 b 659 153 640 183 652 169 l 659 147 l 653 147 b 621 191 653 161 642 176 z m 610 174 l 610 163 l 604 163 l 604 174 z m 474 169 l 512 163 l 512 158 l 501 158 l 463 163 l 463 169 z m 539 158 l 539 153 l 523 153 l 523 158 z m 366 153 l 366 147 l 349 147 l 349 153 z m 637 142 l 637 125 l 631 125 b 626 142 631 130 629 135 l 626 147 z m 311 142 l 311 136 l 300 136 l 300 142 z m 485 136 l 485 131 l 452 131 l 452 136 z m 317 93 b 431 131 376 104 414 117 l 436 131 l 436 125 l 425 125 l 425 115 l 431 115 b 452 120 439 115 446 117 b 469 115 460 117 465 115 l 469 109 b 322 87 377 95 328 87 l 317 87 z m 523 131 l 523 125 l 507 125 l 507 115 b 550 93 528 115 543 107 l 550 82 l 545 82 b 479 109 516 100 494 109 b 496 131 490 118 496 125 z m 311 109 l 311 104 l 300 104 l 300 109 z m 566 98 l 566 77 l 561 77 l 561 98 z m 599 87 b 593 66 595 81 593 74 l 588 66 l 588 93 z m 235 87 l 235 82 l 224 82 l 224 87 z m 268 77 l 268 71 b 252 66 264 71 259 69 l 252 77 z m 387 77 l 398 77 l 398 71 l 371 66 l 355 66 l 355 71 z m 284 55 l 284 50 l 273 50 l 273 55 z m 262 50 l 262 44 l 252 44 l 252 50 z m 642 44 l 642 33 l 637 33 l 637 44 z m 230 39 l 230 33 l 219 33 l 219 39 z m 376 -43 l 338 -86 l 333 -86 l 371 -43 z m 387 -70 b 338 -124 387 -74 371 -92 l 333 -124 l 382 -70 z m 138 -200 l 143 -211 b 241 -140 186 -187 218 -164 z m 192 -216 b 230 -178 212 -191 224 -178 l 235 -178 b 197 -216 210 -200 197 -213 z m 143 -319 b 116 -341 142 -327 133 -334 l 138 -319 z m -3 -352 b -20 -368 -14 -357 -20 -363 l -14 -368 b 2 -352 -3 -362 2 -357 z m 186 -379 b 214 -363 193 -379 202 -374 l 214 -374 b 197 -385 203 -374 197 -377 l 186 -385 z m 73 -363 b 56 -379 62 -368 56 -374 l 62 -379 b 78 -363 73 -373 78 -368 z m -36 -379 b -161 -488 -41 -379 -83 -415 l -161 -493 b -31 -379 -140 -488 -96 -450 z m 45 -385 b 2 -422 24 -396 10 -409 l 13 -422 b 51 -385 38 -403 51 -390 z m 159 -390 b 143 -406 154 -401 149 -406 b 149 -412 143 -410 145 -412 l 149 -417 l 138 -412 l 154 -390 z m 56 -526 b 143 -455 65 -526 94 -502 l 149 -455 b 67 -531 149 -461 121 -487 l 56 -531 z m -3 -460 b -52 -504 -36 -484 -52 -498 l -52 -509 b 2 -460 -34 -500 -16 -484 z m -101 -504 b -112 -515 -107 -504 -111 -507 l -106 -515 b -96 -504 -99 -515 -96 -511 z m -36 -558 b -47 -569 -42 -558 -45 -562 l -36 -569 z m -63 -585 b -52 -574 -56 -585 -52 -582 l -63 -574 z "},"6":{"ha":708,"x_min":0,"x_max":0,"o":"m 563 625 b 498 581 563 615 541 601 b -28 -205 147 256 -28 -7 l -18 -205 b 26 -54 -18 -186 -3 -135 l 31 -54 l 31 -59 b -12 -287 2 -139 -12 -215 l -12 -309 b 123 -477 -12 -387 33 -442 l 145 -477 l 145 -466 l 134 -466 b -1 -276 44 -437 -1 -373 b 42 -102 1 -213 16 -155 b 107 44 71 -5 93 44 b 64 -70 78 -24 64 -62 l 64 -75 l 69 -75 b 64 -135 69 -104 67 -124 b 69 -140 67 -135 69 -137 b 47 -281 58 -178 51 -224 l 58 -281 b 102 -81 71 -174 85 -107 l 107 -81 l 107 -86 b 75 -276 85 -172 75 -236 b 80 -325 75 -295 77 -311 b 178 -390 80 -368 113 -390 b 172 -395 178 -393 176 -395 l 178 -406 b 183 -401 181 -406 183 -404 b 199 -406 187 -401 193 -403 b 216 -401 203 -406 209 -404 l 221 -412 b 281 -374 243 -412 263 -399 l 270 -374 b 254 -390 259 -379 254 -385 b 227 -385 248 -387 239 -385 b 248 -368 227 -379 234 -374 l 259 -374 l 264 -374 l 264 -368 l 259 -357 b 275 -341 270 -351 275 -346 l 270 -341 b 216 -374 237 -363 219 -374 b 205 -363 210 -374 206 -370 l 205 -357 b 416 -211 287 -319 357 -270 b 541 -75 500 -132 541 -87 l 552 -75 b 384 -260 552 -99 496 -161 l 384 -265 l 395 -265 l 384 -281 l 389 -292 b 324 -336 364 -314 342 -328 l 330 -347 b 471 -238 368 -326 416 -290 l 476 -238 b 319 -368 411 -311 359 -354 b 232 -428 268 -408 239 -428 l 232 -433 l 237 -444 b 189 -450 224 -444 208 -446 l 189 -455 b 232 -471 191 -466 205 -471 l 243 -471 b 286 -439 272 -456 286 -446 b 259 -450 280 -439 271 -442 l 254 -450 l 254 -444 b 275 -417 268 -444 275 -435 l 308 -417 l 286 -439 b 324 -428 297 -439 310 -435 l 330 -428 b 281 -471 330 -432 313 -446 l 281 -477 b 357 -439 315 -464 341 -451 l 346 -455 l 357 -455 b 411 -412 390 -435 408 -420 l 411 -406 l 389 -417 b 433 -379 389 -412 404 -400 b 427 -395 433 -382 431 -388 l 427 -401 l 433 -401 b 709 -113 603 -269 695 -173 b 731 71 713 -16 720 45 b 709 109 726 96 719 109 l 677 104 b 655 109 671 107 663 109 b 471 180 604 156 542 180 b 389 174 462 180 435 178 b 465 261 395 186 421 215 b 720 494 623 399 708 477 l 720 511 b 682 538 720 515 707 524 b 601 603 628 571 601 593 b 595 597 597 603 595 601 b 574 625 581 605 574 614 z m 264 321 b 373 435 264 330 300 368 l 373 429 b 270 321 319 379 285 343 z m 378 402 b 227 218 313 328 262 267 l 227 212 b 275 261 259 240 275 256 l 281 261 b 167 109 205 165 167 115 l 161 109 l 161 120 l 102 55 b 156 136 102 69 120 96 b 373 402 168 176 239 265 z m 400 391 b 357 348 376 362 361 348 l 357 353 b 395 391 357 355 370 368 z m 189 229 l 189 223 b 129 136 166 193 146 164 l 123 136 l 183 229 z m 199 115 b 281 207 223 145 250 176 l 281 201 b 199 109 281 197 254 165 z m 216 196 l 221 196 l 221 207 l 216 207 z m 351 201 l 346 191 l 340 191 l 346 201 z m 411 158 l 427 158 l 427 153 l 395 147 l 378 147 l 378 153 z m 519 158 l 519 153 l 498 153 l 498 158 z m 324 98 b 422 136 324 109 357 122 b 574 115 470 136 521 129 l 574 109 l 568 109 b 449 125 515 120 475 125 b 330 98 397 125 357 117 z m 161 120 b 172 131 169 120 172 123 l 161 131 z m 362 98 b 454 115 407 109 437 115 l 460 115 b 368 93 460 106 429 99 l 362 93 z m 91 87 l 91 82 b 58 33 74 50 63 33 l 85 87 z m 189 87 b 178 77 189 80 185 77 l 178 87 z m 362 71 b 406 77 366 71 380 73 l 449 77 l 449 71 b 411 66 428 71 416 69 l 400 71 l 373 66 l 362 66 z m 357 66 l 357 60 l 346 60 l 346 66 z m 270 22 b 335 60 270 35 292 47 l 340 60 l 340 55 b 275 22 325 55 303 44 z m 373 17 b 395 22 381 17 389 19 l 411 22 l 411 17 l 378 12 l 373 12 z m 313 6 l 313 1 l 297 1 l 297 6 z m 346 1 l 346 -5 l 330 -5 l 330 1 z m 313 -16 l 313 -21 l 302 -21 l 302 -16 z m 243 -26 b 232 -37 243 -34 239 -37 l 232 -26 z m 427 -26 l 481 -26 b 503 -48 496 -35 503 -42 b 476 -102 503 -61 494 -79 b 324 -238 383 -175 332 -220 l 324 -243 b 471 -124 351 -243 400 -203 l 476 -124 b 411 -195 476 -134 454 -157 b 189 -357 321 -271 247 -326 l 167 -357 l 259 -287 b 183 -330 239 -292 214 -306 b 145 -309 163 -330 151 -323 l 145 -281 b 172 -195 145 -224 154 -195 b 210 -108 193 -137 205 -108 b 205 -102 210 -104 208 -102 b 286 -48 211 -91 238 -73 l 292 -48 l 286 -59 l 286 -64 z m 107 -70 b 123 -48 113 -56 118 -48 l 118 -70 z m 80 -54 l 80 -70 l 75 -70 l 75 -54 z m 275 -64 b 216 -102 235 -83 216 -96 b 281 -70 239 -102 261 -92 l 281 -64 z m 47 -124 l 58 -124 l 58 -113 l 47 -113 z m 536 -130 l 536 -135 b 492 -184 528 -153 513 -169 l 492 -178 b 530 -130 517 -153 530 -137 z m 42 -140 b 26 -233 42 -151 37 -181 l 37 -233 b 53 -140 47 -176 53 -146 z m 547 -168 b 563 -151 553 -157 558 -151 l 563 -157 b 552 -168 563 -164 559 -168 z m 623 -168 b 617 -184 619 -174 617 -180 l 612 -184 l 612 -178 l 617 -168 z m 161 -222 l 172 -222 l 172 -205 l 161 -205 z m 557 -233 b 574 -216 564 -222 569 -216 l 579 -216 l 568 -238 z m -34 -347 l -23 -347 l -23 -227 l -34 -227 z m 151 -303 l 151 -309 l 156 -319 b 167 -309 163 -319 167 -316 l 167 -238 l 156 -238 z m 20 -287 l 31 -287 l 31 -243 l 20 -243 z m 308 -243 b 264 -281 279 -263 264 -276 l 275 -281 b 313 -249 300 -266 313 -255 l 313 -243 z m 107 -271 l 107 -298 l 102 -298 l 102 -271 z m 362 -276 b 351 -287 356 -276 353 -279 l 351 -292 l 357 -292 l 368 -287 z m 552 -281 l 547 -292 l 541 -292 l 547 -281 z m 340 -292 b 324 -309 330 -298 324 -303 l 324 -314 b 346 -298 338 -309 346 -303 l 346 -292 z m 460 -314 b 487 -303 466 -314 475 -311 l 492 -303 l 492 -309 b 476 -319 481 -309 476 -312 l 460 -319 z m 20 -336 l 31 -336 l 31 -319 l 20 -319 z m 53 -330 l 64 -368 l 75 -368 b 64 -319 67 -341 64 -325 l 53 -319 z m 129 -325 b 156 -341 147 -328 156 -333 l 156 -347 b 123 -368 146 -347 136 -354 l 123 -352 l 134 -352 b 129 -330 134 -344 132 -336 z m 107 -347 l 107 -352 l 96 -352 l 96 -347 z m 302 -352 b 286 -368 292 -357 286 -363 l 297 -368 b 313 -352 308 -362 313 -357 z m 167 -363 l 167 -368 l 156 -368 l 156 -363 z m 80 -390 l 91 -390 b 80 -379 91 -384 87 -380 z m -18 -385 b 37 -460 -18 -408 1 -434 l 42 -460 b -12 -385 9 -410 -9 -385 z m 357 -406 l 357 -412 l 340 -412 l 340 -406 z m 156 -417 b 167 -428 156 -425 159 -428 l 178 -428 l 178 -422 b 167 -412 178 -416 174 -412 l 156 -412 z m 47 -471 l 58 -471 l 58 -466 l 47 -466 z m 69 -477 b 189 -515 72 -491 112 -504 l 189 -504 b 75 -477 153 -493 115 -484 z "},"7":{"ha":644,"x_min":0,"x_max":0,"o":"m 33 580 l 33 569 b 201 580 58 569 114 572 l 256 580 l 256 574 b 104 558 226 574 175 569 b 87 564 97 562 92 564 b 60 558 81 560 73 558 l 60 547 l 71 547 b 505 569 129 547 274 555 l 522 569 l 522 564 l 484 558 l 446 558 l 256 536 l 250 536 b 239 520 243 536 239 531 b 158 515 203 517 176 515 l 136 515 l 136 504 b 158 498 144 504 152 502 b 245 515 205 506 235 511 b 294 509 245 511 261 509 l 294 504 b 33 460 120 492 33 477 l 33 455 b 50 444 44 455 50 452 l 87 450 l 125 444 l 125 439 l 71 433 l 71 422 l 77 422 b 147 428 100 422 123 425 l 158 428 l 158 422 l 136 422 l 136 412 l 196 412 l 196 422 b 169 433 178 422 169 426 l 185 433 b 218 417 203 433 214 428 b 446 422 245 417 321 419 b 294 140 446 404 395 310 b 131 75 221 117 167 95 b -32 43 22 72 -32 61 l -32 37 b -26 32 -32 34 -30 32 b 33 -82 3 -39 23 -77 b 28 -87 33 -85 31 -87 l 33 -109 l 66 -109 l 98 -115 b 153 -98 121 -110 140 -104 b 115 -185 153 -117 140 -146 l 115 -196 b 174 -104 119 -196 138 -165 l 180 -104 l 180 -109 b 87 -288 165 -153 134 -213 b 6 -500 54 -395 26 -465 l 6 -516 l 12 -516 b 44 -462 18 -515 28 -497 b 223 -82 44 -404 104 -277 l 223 -104 l 229 -104 l 229 -93 l 234 -93 l 234 -98 b 191 -180 234 -102 220 -129 l 191 -185 l 196 -196 b 267 -82 224 -165 247 -127 l 272 -82 l 272 -87 b 87 -522 189 -235 127 -380 b 93 -527 91 -522 93 -524 b 71 -597 85 -545 79 -568 l 71 -603 l 82 -603 l 87 -570 b 93 -576 91 -570 93 -572 b 115 -538 102 -576 110 -563 l 115 -532 l 104 -532 l 98 -559 l 93 -559 l 93 -554 l 115 -500 b 109 -484 115 -496 113 -490 b 180 -332 127 -456 151 -406 l 185 -332 l 185 -337 l 169 -375 b 180 -380 169 -378 172 -380 l 180 -391 b 125 -489 163 -391 145 -424 l 136 -489 l 158 -435 l 163 -435 l 163 -440 l 158 -462 l 158 -473 b 185 -424 165 -473 174 -456 l 196 -429 l 201 -429 b 234 -348 223 -380 234 -353 b 229 -342 234 -345 232 -342 b 250 -267 229 -323 236 -298 l 256 -267 l 256 -288 b 342 -136 313 -195 342 -144 b 435 10 367 -90 397 -41 l 429 21 b 559 81 510 47 553 66 l 559 86 l 456 54 l 456 64 l 462 64 b 505 130 486 108 500 130 b 559 173 505 132 524 146 l 559 178 l 554 178 l 543 173 b 532 184 543 179 540 183 b 657 412 532 190 574 266 l 706 439 l 706 493 b 722 531 706 505 711 518 b 717 553 722 539 720 547 l 668 574 b 673 596 668 583 670 590 l 663 612 b 592 607 633 612 610 610 b 511 612 556 610 529 612 z m 522 591 l 522 585 l 484 585 l 484 591 z m 348 585 l 348 580 l 332 580 l 332 585 z m 391 585 l 391 580 l 380 580 l 380 585 z m 429 547 l 429 542 l 413 542 l 413 547 z m 120 526 l 153 526 l 153 536 l 120 536 z m 424 515 l 424 509 l 342 509 l 342 515 z m 256 471 l 256 466 l 245 466 l 245 471 z m 163 466 l 163 460 l 153 460 l 153 466 z m 294 460 l 294 455 l 277 455 l 277 460 z m 484 363 l 484 352 b 456 309 471 323 463 309 l 456 314 b 478 363 471 334 478 350 z m 456 347 l 456 341 l 359 157 l 348 157 b 451 347 416 276 451 339 z m 402 292 l 402 287 b 370 238 385 254 374 238 l 370 243 b 397 292 388 270 397 286 z m 538 173 l 538 168 l 527 168 l 527 173 z m 505 108 l 511 108 l 511 119 l 505 119 z m 212 64 l 212 59 l 196 59 l 196 64 z m 587 64 b 456 26 570 64 527 52 l 456 16 b 592 59 516 30 562 45 l 592 64 z m 326 16 l 326 5 l 321 5 l 321 16 z m 272 5 l 272 -1 l 261 -1 l 261 5 z m 261 -17 l 261 -28 l 250 -28 l 250 -17 z m 147 -39 b 163 -33 151 -39 157 -37 l 180 -33 l 180 -39 b 153 -44 168 -39 159 -41 l 147 -44 z m 359 -39 l 359 -44 l 348 -44 l 348 -39 z m 158 -55 b 174 -50 162 -55 168 -53 l 180 -50 l 180 -55 b 163 -60 176 -55 171 -57 l 158 -60 z m 283 -158 b 310 -120 297 -133 306 -120 b 288 -163 310 -125 302 -140 l 283 -163 z m 207 -131 b 191 -153 201 -131 196 -138 l 191 -158 l 201 -158 b 212 -131 201 -152 205 -142 z m 256 -185 l 256 -191 b 250 -207 252 -197 250 -203 l 245 -207 l 245 -201 b 250 -185 248 -194 250 -189 z m 277 -185 l 277 -196 l 272 -196 l 272 -185 z m 109 -201 b 87 -234 103 -201 96 -212 l 87 -245 b 109 -212 94 -245 100 -234 z m 136 -256 b 120 -294 136 -263 131 -275 l 120 -304 b 147 -256 138 -290 147 -274 z m 169 -261 b 153 -277 158 -267 153 -272 l 153 -288 l 163 -288 b 169 -272 163 -284 165 -279 z m 256 -294 b 245 -304 250 -294 246 -297 l 245 -310 l 256 -310 z m 142 -299 b 125 -337 142 -311 136 -324 l 131 -348 b 153 -304 145 -338 153 -324 l 153 -299 z m 109 -315 b 98 -337 109 -321 106 -328 l 98 -348 l 109 -348 b 120 -321 109 -342 113 -332 l 120 -315 z m 44 -353 l 55 -353 l 55 -337 l 44 -337 z m 44 -359 b -5 -473 36 -359 20 -397 l -5 -484 b 44 -370 3 -484 19 -446 z m 104 -402 l 115 -402 l 115 -386 l 104 -386 z m 169 -413 l 169 -429 l 163 -429 l 163 -413 z m 180 -456 l 191 -456 l 191 -446 l 180 -446 z m 87 -451 b 77 -462 81 -451 78 -454 l 77 -473 l 87 -473 b 93 -451 87 -465 90 -457 z m -32 -554 l -21 -554 l -16 -527 l -26 -527 z m 131 -532 b 120 -559 131 -538 127 -548 b 125 -565 123 -559 125 -562 b 142 -532 133 -565 138 -554 z "},"8":{"ha":581,"x_min":0,"x_max":0,"o":"m 486 624 b 377 591 428 602 391 591 b 95 271 189 473 95 366 b 198 81 95 201 130 138 l 193 71 b -41 -282 37 -57 -41 -174 l -41 -304 b 24 -477 -41 -380 -19 -437 b 236 -553 24 -500 95 -525 b 241 -548 236 -550 238 -548 l 241 -553 l 269 -548 l 323 -548 l 345 -564 b 399 -532 377 -543 395 -532 b 469 -461 446 -497 469 -473 b 551 -282 524 -373 551 -313 l 551 -277 l 540 -282 l 540 -163 l 529 -163 l 529 -179 l 524 -179 b 507 -103 524 -153 518 -127 l 507 -98 l 513 -98 l 513 -109 l 524 -109 b 448 49 513 -58 488 -5 l 458 65 l 458 71 l 442 71 l 442 60 l 437 60 l 437 65 l 442 76 b 621 228 454 93 514 143 l 621 233 l 600 222 l 426 87 l 420 87 b 404 114 420 93 415 102 l 415 130 l 415 136 l 399 125 l 388 125 b 496 222 388 128 424 161 l 496 228 b 388 163 471 228 435 206 l 382 163 l 420 201 b 404 195 417 201 412 199 l 399 195 b 540 320 412 213 458 254 b 518 315 527 317 520 315 b 355 179 410 233 355 187 l 350 179 l 350 184 l 361 201 b 334 190 355 201 345 197 b 274 255 298 233 279 254 b 437 412 274 290 328 342 b 594 488 542 457 594 482 l 594 499 b 486 624 528 583 492 624 z m 225 456 l 165 391 l 160 391 l 220 456 z m 165 353 b 258 456 166 359 197 394 l 258 450 b 171 353 200 391 171 359 z m 263 434 l 252 418 l 247 418 l 258 434 z m 616 336 l 627 336 l 627 347 l 616 347 z m 155 336 l 155 331 b 138 271 147 315 142 295 b 236 114 138 211 171 159 b 225 103 236 106 233 103 b 127 266 160 168 127 222 b 149 336 127 276 135 300 z m 578 326 b 551 304 560 316 551 309 l 562 304 b 583 326 576 313 583 320 z m 589 320 b 486 239 566 297 531 270 l 513 233 b 562 271 545 256 562 268 l 556 282 l 600 309 b 589 320 600 315 596 319 z m 534 293 b 486 255 503 273 486 261 l 486 250 b 540 282 515 271 534 282 l 540 293 z m 442 266 b 453 277 450 266 453 269 l 442 277 z m 263 136 l 258 136 b 187 239 239 147 215 181 l 187 244 z m 415 250 b 393 228 401 241 393 234 l 399 228 b 420 239 408 235 415 239 z m 605 250 b 594 239 599 250 595 246 l 605 239 z m 654 233 b 637 217 643 228 637 222 b 665 233 656 220 665 225 z m 252 222 b 269 206 263 217 269 212 l 269 201 l 258 201 b 252 217 258 205 256 210 z m 388 228 b 377 217 382 228 378 224 l 377 212 b 393 228 388 218 393 223 z m 621 206 b 610 195 615 206 612 203 l 616 195 b 627 206 623 195 627 199 z m 540 201 b 518 190 531 193 524 190 l 518 179 l 524 179 b 545 190 532 186 540 190 l 545 201 z m 138 190 b 193 109 166 136 184 109 l 193 103 b 133 184 173 117 153 144 l 133 190 z m 187 184 b 225 136 187 173 200 157 l 225 130 b 182 174 222 130 208 144 l 182 184 z m 469 179 b 437 152 448 166 437 157 l 448 152 b 469 174 462 161 469 168 z m 567 157 l 578 157 l 578 163 l 567 163 z m 480 152 b 448 125 465 147 454 138 l 453 125 b 480 146 471 134 480 142 z m 562 152 b 491 98 543 151 519 132 b 562 152 507 98 530 116 z m 285 38 b 296 49 285 44 288 48 l 296 38 z m 307 27 b 323 11 317 22 323 16 l 323 0 l 312 0 b 307 22 312 8 310 16 z m 453 27 b 475 -16 453 23 460 9 l 475 -22 l 469 -22 b 448 22 469 -17 462 -3 l 448 27 z m 426 22 l 426 11 l 420 11 l 420 22 z m 160 -11 b 193 16 167 2 178 12 b 165 -11 174 1 165 -9 z m 372 16 l 372 5 l 366 5 l 366 16 z m 100 -152 b 252 11 146 -83 197 -28 l 258 11 l 258 5 b 106 -152 157 -87 106 -140 z m 420 5 l 453 -60 l 453 -65 l 448 -65 l 415 0 l 415 5 z m 382 0 b 464 -217 437 -93 464 -165 l 464 -239 l 458 -239 l 453 -190 l 448 -190 b 431 -217 439 -190 434 -199 l 426 -217 l 426 -206 l 415 -206 l 415 -217 l 410 -217 b 345 -43 397 -138 375 -80 l 345 -38 l 355 -22 b 393 -81 364 -22 376 -41 l 410 -81 l 382 -5 z m 345 -11 b 334 -22 345 -18 341 -22 l 334 -11 z m 247 -33 b 269 -16 247 -27 254 -22 b 247 -33 269 -22 261 -27 z m 73 -298 b 111 -212 80 -298 93 -269 b 279 -22 130 -155 185 -92 l 290 -22 b 258 -54 288 -34 277 -45 b 95 -309 149 -138 95 -223 l 95 -315 b 160 -396 103 -369 125 -396 l 160 -401 l 149 -401 b 84 -315 106 -382 84 -353 l 73 -320 z m 458 -22 l 458 -33 l 453 -33 l 453 -22 z m 355 -43 l 366 -43 l 366 -33 l 355 -33 z m 225 -49 l 171 -109 l 165 -109 l 220 -49 z m 84 -54 l 84 -60 l 62 -87 l 57 -87 b 79 -54 71 -73 79 -62 z m 290 -54 l 285 -65 l 279 -65 l 285 -54 z m 334 -60 b 393 -206 345 -60 365 -109 b 241 -369 366 -315 315 -369 b 133 -309 169 -369 133 -349 b 301 -65 133 -245 189 -163 l 312 -65 b 350 -136 319 -65 332 -89 l 361 -136 b 334 -71 361 -128 352 -106 z m 111 -65 b 100 -76 111 -73 108 -76 l 100 -65 z m 372 -71 l 382 -71 l 382 -60 l 372 -60 z m 475 -76 b 480 -92 475 -79 477 -85 l 480 -98 l 475 -98 b 469 -81 475 -94 473 -88 l 469 -76 z m 95 -81 l 95 -87 l 57 -136 l 52 -136 b 90 -81 77 -106 90 -87 z m 404 -141 b 415 -152 404 -149 408 -152 l 415 -136 l 404 -136 z m 431 -157 l 442 -157 l 442 -146 b 431 -136 442 -140 439 -136 z m 187 -152 b 144 -217 158 -186 144 -208 l 138 -217 l 138 -212 b 182 -152 157 -182 172 -163 z m 90 -168 l 90 -174 b 52 -271 66 -210 54 -242 l 46 -271 l 46 -260 b 84 -168 46 -246 59 -215 z m 366 -195 l 377 -195 b 372 -163 377 -193 375 -182 l 361 -163 z m 415 -184 l 426 -184 l 426 -179 l 415 -179 z m 496 -206 l 496 -222 l 491 -222 l 491 -206 z m 95 -212 l 95 -217 b 84 -255 87 -231 84 -244 l 79 -255 l 79 -250 b 90 -212 79 -248 82 -235 z m 372 -222 l 382 -222 l 382 -212 l 372 -212 z m 420 -228 l 420 -239 b 415 -255 417 -245 415 -251 l 410 -255 l 410 -250 b 415 -228 413 -243 415 -236 z m 496 -228 l 496 -239 l 491 -239 l 491 -228 z m 127 -255 l 127 -266 l 122 -266 l 122 -255 z m 79 -260 l 79 -288 l 73 -288 l 73 -260 z m 388 -266 l 388 -271 b 382 -288 385 -278 382 -283 l 377 -288 l 377 -282 b 382 -266 380 -275 382 -269 z m 458 -277 l 458 -293 l 453 -293 l 453 -277 z m -3 -293 l -3 -331 l -8 -331 l -8 -293 z m 453 -298 l 453 -304 b 448 -320 450 -311 448 -316 l 442 -320 l 442 -315 b 448 -298 446 -307 448 -302 z m 529 -298 l 529 -309 l 524 -331 l 518 -331 l 518 -326 b 524 -298 522 -319 524 -311 z m 491 -320 l 491 -326 b 480 -358 484 -341 480 -352 l 475 -358 l 475 -353 b 486 -320 482 -337 486 -326 z m 122 -326 b 144 -363 127 -351 134 -363 l 144 -369 b 117 -331 133 -366 124 -353 l 117 -326 z m 453 -331 l 453 -342 l 448 -342 l 448 -331 z m 3 -336 l 3 -347 l -3 -347 l -3 -336 z m 187 -380 l 187 -385 l 176 -385 l 176 -380 z m 117 -401 b 144 -412 128 -409 138 -412 l 144 -418 l 138 -418 l 117 -407 z m 165 -418 l 165 -423 l 149 -423 l 149 -418 z "},"9":{"ha":673,"x_min":0,"x_max":0,"o":"m 446 592 b 288 543 361 574 309 557 b -37 82 71 368 -37 214 l -37 55 b 22 -48 -37 19 -18 -16 l 28 -48 b -21 55 -5 -12 -21 23 l -21 87 l -16 87 b 153 -75 -16 -6 41 -60 l 169 -75 b 326 -37 213 -75 266 -62 l 332 -37 b 288 -75 332 -42 317 -54 l 299 -75 b 250 -146 299 -83 283 -107 l 250 -151 l 256 -151 b 315 -92 292 -111 312 -92 l 315 -97 b 229 -205 264 -169 235 -205 b 98 -395 166 -309 123 -373 l 104 -406 l 115 -401 b 391 -37 209 -252 301 -130 l 391 -54 b 408 -32 402 -54 408 -46 l 413 -32 l 413 -37 b 326 -151 413 -42 384 -80 l 326 -178 b 397 -92 361 -140 385 -111 l 402 -92 b 234 -330 353 -170 296 -250 b 142 -488 176 -435 146 -488 l 142 -493 l 147 -493 b 158 -482 155 -493 158 -490 b 163 -488 161 -482 163 -484 l 201 -455 b 191 -444 201 -449 198 -445 b 174 -471 191 -450 185 -460 l 169 -471 b 201 -433 184 -446 195 -433 l 196 -422 l 196 -417 l 207 -417 b 201 -412 207 -414 205 -412 b 212 -390 209 -403 212 -395 l 223 -395 l 294 -303 l 294 -309 l 272 -341 l 277 -341 l 288 -336 l 288 -341 l 277 -357 b 272 -352 274 -357 272 -355 b 223 -406 267 -353 250 -370 l 223 -412 l 229 -412 l 267 -374 l 267 -379 l 250 -406 l 250 -417 b 370 -254 330 -319 370 -264 l 375 -254 l 375 -265 l 380 -265 b 690 332 587 -35 690 164 b 570 543 690 399 650 470 l 576 554 b 446 592 559 579 516 592 z m 169 418 b 277 511 214 470 251 500 b 174 418 226 460 191 429 z m 315 505 l 315 500 l 304 500 l 304 505 z m 288 489 l 288 484 b 196 402 276 484 245 456 l 191 402 b 277 489 191 410 220 438 z m 261 446 b 283 462 261 451 269 456 b 267 446 277 451 272 446 z m 288 424 l 288 418 l 277 418 l 277 424 z m 153 109 l 196 185 b 429 397 295 326 373 397 b 494 348 441 397 463 380 l 494 304 b 408 104 494 212 465 145 b 424 109 412 104 417 106 l 429 109 b 364 17 416 85 395 55 b 174 -59 364 -19 301 -45 l 147 -59 b 1 55 50 -43 1 -5 b 12 125 1 69 4 93 b 169 375 72 274 124 357 b 71 234 130 329 98 282 b 77 218 71 231 73 225 l 44 136 l 39 136 l 39 142 b 71 218 46 165 57 190 l 71 223 b 17 77 35 179 17 130 l 17 55 b 33 22 17 37 22 26 l 39 22 b 33 28 39 26 37 28 l 33 39 l 39 39 b 55 12 41 20 47 12 l 55 6 l 44 12 l 44 6 l 55 -10 b 82 6 69 1 78 6 b 55 55 64 24 55 41 l 55 82 b 71 147 55 93 60 115 l 77 147 l 77 142 b 60 50 69 123 64 93 b 158 -5 92 14 125 -5 b 370 77 231 -5 302 22 l 380 71 b 402 93 380 79 388 87 b 397 109 402 97 400 102 b 348 87 372 109 356 102 l 359 87 l 359 82 b 337 60 348 82 340 75 b 304 71 330 60 319 64 l 304 60 l 294 60 l 294 71 l 277 71 b 267 60 271 71 268 68 l 250 60 l 250 66 b 272 82 264 66 272 71 l 239 77 l 234 77 l 239 87 b 174 77 203 80 181 77 l 174 66 l 180 66 b 201 71 188 66 195 68 l 207 71 l 207 66 l 180 60 l 147 60 b 153 66 147 64 149 66 b 147 87 153 74 151 81 z m 104 337 l 104 332 b 50 245 68 279 50 251 l 44 245 l 44 250 b 98 337 80 302 98 331 z m 98 207 b 185 321 113 239 142 277 l 185 315 b 104 201 131 255 104 217 l 98 201 z m 559 321 b 565 304 559 317 562 312 b 559 261 562 285 559 270 l 554 261 l 554 321 z m 543 310 l 543 250 b 511 136 543 240 532 202 l 511 131 b 522 153 518 131 522 138 l 527 153 l 527 142 b 505 98 513 117 505 103 l 500 98 l 500 104 l 505 115 l 505 125 b 462 60 476 90 462 68 l 456 60 l 456 66 b 538 310 511 146 538 228 z m 522 288 l 522 277 b 505 207 522 269 516 245 l 500 207 l 500 212 b 516 288 511 238 516 263 z m 147 191 l 147 180 l 142 180 l 142 191 z m 608 136 l 608 131 b 603 115 605 124 603 119 l 597 115 l 597 120 b 603 136 601 127 603 133 z m 364 125 b 310 98 328 117 310 107 b 364 125 346 107 364 117 z m 109 104 l 109 82 l 104 82 l 104 104 z m 456 104 b 446 93 456 96 453 93 l 446 104 z m 538 104 l 538 98 b 489 28 524 68 507 45 l 489 33 b 532 104 518 75 532 98 z m 386 98 l 386 93 l 375 93 l 375 98 z m 239 87 l 250 87 l 250 93 l 239 93 z m 98 66 l 98 55 l 93 55 l 93 66 z m 234 55 b 223 44 234 47 231 44 l 223 55 z m 391 -21 b 456 55 431 30 452 55 b 397 -26 456 39 437 12 l 391 -26 z m 473 55 l 473 44 l 467 44 l 467 55 z m 554 44 b 565 55 554 50 557 54 l 565 44 z m 256 50 l 256 44 l 245 44 l 245 50 z m 299 50 l 299 44 l 288 44 l 288 50 z m 223 39 l 223 33 l 212 33 l 212 39 z m 543 22 l 543 12 l 538 12 l 538 22 z m 98 1 b 142 -21 108 -14 122 -21 l 147 -21 l 147 -10 b 104 1 141 -10 127 -7 z m 250 -10 l 256 -10 b 267 1 263 -10 267 -7 l 250 1 z m 467 -5 l 467 -10 l 418 -75 l 413 -75 b 462 -5 446 -36 462 -12 z m 522 -10 b 516 -26 518 -17 516 -22 l 511 -26 l 511 -21 l 516 -10 z m 212 -10 b 174 -16 198 -14 185 -16 l 174 -26 l 212 -21 z m 98 -37 b 163 -48 123 -45 145 -48 l 174 -48 l 174 -37 b 98 -26 163 -37 138 -34 z m 494 -48 l 494 -54 l 489 -64 l 484 -64 b 489 -48 487 -57 489 -52 z m 386 -64 l 391 -64 l 391 -54 l 386 -54 z m 87 -81 b 98 -92 87 -88 91 -92 l 104 -92 l 104 -81 z m 250 -81 b 201 -97 218 -83 201 -89 l 250 -92 z m 364 -92 b 375 -81 372 -92 375 -88 l 364 -81 z m 115 -97 l 153 -102 l 158 -102 l 158 -92 l 142 -92 l 115 -86 z m 353 -102 b 332 -124 339 -111 332 -118 l 332 -130 l 342 -130 b 359 -102 342 -123 348 -114 z m 424 -146 b 451 -113 437 -124 446 -113 b 424 -146 451 -129 442 -140 z m 239 -168 b 212 -205 233 -168 224 -180 l 212 -211 b 239 -178 218 -211 227 -200 z m 435 -178 l 435 -189 l 429 -189 l 429 -178 z m 272 -211 b 261 -222 266 -211 262 -214 l 261 -227 b 272 -216 269 -227 272 -224 z m 201 -227 l 207 -227 l 207 -216 l 201 -216 z m 288 -238 l 294 -238 l 294 -227 l 288 -227 z m 256 -233 b 239 -249 245 -238 239 -243 l 239 -254 b 256 -238 250 -248 256 -243 z m 191 -238 b 158 -276 186 -238 175 -251 l 158 -281 b 191 -243 174 -273 184 -260 z m 283 -243 b 250 -276 261 -260 250 -271 l 250 -281 l 256 -281 b 283 -249 269 -275 278 -264 z m 147 -298 b 136 -309 141 -298 138 -301 l 136 -319 b 147 -309 144 -319 147 -316 z m 353 -298 b 277 -395 351 -298 326 -330 l 277 -401 l 283 -401 b 353 -309 293 -395 316 -365 z m 229 -314 b 218 -325 222 -314 219 -317 l 218 -330 b 229 -319 225 -330 229 -327 z m 131 -325 b 115 -341 120 -330 115 -336 l 115 -352 b 131 -330 120 -352 125 -345 z m 109 -357 b 93 -374 98 -363 93 -368 l 93 -379 b 109 -363 104 -373 109 -368 z m 234 -363 l 234 -374 l 229 -374 l 229 -363 z m 191 -363 b 169 -390 186 -363 178 -372 l 169 -395 l 174 -395 b 196 -368 179 -395 186 -386 l 196 -363 z m 87 -385 b 55 -417 66 -401 55 -412 l 55 -422 b 87 -390 77 -406 87 -395 z m 239 -433 l 245 -433 l 245 -422 l 239 -422 z m 234 -439 b 196 -482 229 -439 217 -453 l 201 -482 b 234 -444 217 -473 228 -460 z "},"\u0000":{"ha":0,"x_min":0,"x_max":0,"o":""},"\u001d":{"ha":0,"x_min":0,"x_max":0,"o":""}," ":{"ha":345,"x_min":0,"x_max":0,"o":""},"":{"ha":345,"x_min":0,"x_max":0,"o":""},"!":{"ha":553,"x_min":0,"x_max":0,"o":"m 471 732 b 444 699 471 720 463 709 b 178 113 357 477 269 281 l 178 102 b 238 200 182 102 201 135 l 243 200 l 243 195 b 227 168 236 176 231 168 b 124 -66 170 26 135 -52 l 124 -71 l 130 -82 l 140 -77 b 260 184 191 50 231 137 b 417 536 308 269 360 386 l 422 536 l 422 531 l 314 260 l 314 243 l 319 243 l 368 368 l 374 368 l 374 363 b 265 168 338 267 302 202 l 265 162 b 281 130 276 162 281 151 b 314 184 303 154 314 172 l 319 184 l 319 178 b 238 -1 293 106 266 46 b 205 -82 222 -55 212 -82 b 211 -98 205 -85 208 -91 b 200 -104 211 -102 208 -104 l 200 -115 l 195 -153 l 205 -153 b 276 16 226 -91 250 -35 l 281 16 l 281 10 b 249 -66 260 -33 249 -58 l 249 -71 b 271 -39 263 -60 271 -50 l 276 -39 l 276 -44 l 271 -71 l 271 -77 l 276 -77 b 341 64 287 -46 309 1 l 347 64 l 347 43 b 357 54 354 43 357 46 b 466 265 357 66 393 137 l 558 482 b 645 677 616 591 645 656 l 645 688 b 504 721 645 699 598 710 l 493 715 b 477 732 488 726 482 732 z m 444 536 l 444 526 b 433 498 437 514 433 505 l 428 498 l 428 504 b 439 536 435 515 439 526 z m 395 531 l 395 526 b 390 509 392 519 390 513 l 385 509 l 385 515 b 390 531 388 522 390 528 z m 471 385 l 471 374 l 466 374 l 466 385 z m 379 314 b 412 374 393 354 404 374 b 379 314 397 334 387 314 z m 325 368 l 325 363 b 265 233 301 317 281 274 l 260 233 l 260 238 l 319 368 z m 417 276 l 417 265 l 412 265 l 412 276 z m 406 238 l 406 233 l 395 233 l 395 238 z m 379 189 l 379 184 b 374 168 376 177 374 172 l 368 168 l 368 173 b 374 189 372 180 374 186 z m 260 140 b 233 92 255 140 246 124 l 233 81 b 260 135 251 99 260 117 z m 281 130 b 271 119 275 130 272 126 l 271 108 b 281 119 278 108 281 111 z m 233 26 l 243 26 b 260 75 243 39 249 56 l 260 81 l 249 81 z m 227 75 b 216 64 221 75 218 72 l 216 59 l 227 59 z m 162 64 b 146 43 157 64 151 57 l 146 32 b 162 54 151 32 157 39 z m 330 10 b 298 -55 311 -11 300 -33 l 298 -60 b 336 5 304 -60 317 -39 l 336 10 z m 135 5 b 113 -39 127 5 120 -9 l 113 -44 b 135 -6 119 -44 126 -31 z m 200 -28 b 195 -44 200 -31 198 -37 l 195 -50 l 205 -50 b 211 -33 205 -45 208 -40 l 211 -28 z m 243 -33 l 243 -44 l 238 -44 l 238 -33 z m 113 -50 b 97 -71 108 -50 102 -57 l 97 -82 b 113 -66 108 -76 113 -71 z m 92 -98 l 102 -98 l 102 -87 l 92 -87 z m 260 -104 b 243 -136 251 -104 245 -115 l 254 -136 l 260 -109 z m 216 -136 l 227 -136 b 233 -115 227 -128 229 -121 l 222 -109 z m 102 -277 b 92 -288 96 -277 93 -281 l 108 -288 l 108 -277 z m 146 -277 b 135 -288 140 -277 136 -281 l 146 -288 z m 135 -288 b 92 -304 124 -288 110 -294 b 48 -294 76 -304 61 -301 b -98 -359 -50 -321 -98 -342 l -98 -364 b -66 -408 -84 -377 -73 -391 b -12 -484 -37 -458 -19 -484 l -17 -494 l -17 -500 l -12 -511 b 130 -462 83 -492 130 -476 l 124 -451 l 124 -446 l 200 -402 l 200 -397 b 75 -446 182 -397 140 -413 l 64 -446 l 64 -440 b 102 -413 79 -440 92 -431 l 102 -386 l 92 -386 l 92 -370 b 184 -315 114 -370 145 -351 l 178 -304 l 146 -321 l 151 -332 l 124 -326 l 130 -315 l 130 -310 l 113 -310 z m 108 -332 l 108 -337 l 97 -337 l 97 -332 z m 124 -370 b 113 -380 118 -370 115 -373 l 130 -380 l 130 -370 z m 70 -424 l 70 -429 l 54 -429 l 54 -424 z m 211 -424 b 146 -446 204 -424 182 -431 l 146 -456 b 211 -424 189 -443 211 -432 z "},"\"":{"ha":671,"x_min":0,"x_max":0,"o":""},"#":{"ha":906,"x_min":0,"x_max":0,"o":""},"$":{"ha":739,"x_min":0,"x_max":0,"o":""},"%":{"ha":657,"x_min":0,"x_max":0,"o":""},"&":{"ha":890,"x_min":0,"x_max":0,"o":""},"'":{"ha":373,"x_min":0,"x_max":0,"o":""},"(":{"ha":514,"x_min":0,"x_max":0,"o":""},")":{"ha":514,"x_min":0,"x_max":0,"o":""},"*":{"ha":694,"x_min":0,"x_max":0,"o":""},"+":{"ha":916,"x_min":0,"x_max":0,"o":""},",":{"ha":307,"x_min":0,"x_max":0,"o":""},"-":{"ha":429,"x_min":0,"x_max":0,"o":""},"":{"ha":429,"x_min":0,"x_max":0,"o":""},".":{"ha":374,"x_min":0,"x_max":0,"o":""},"/":{"ha":386,"x_min":0,"x_max":0,"o":""},":":{"ha":374,"x_min":0,"x_max":0,"o":""},";":{"ha":307,"x_min":0,"x_max":0,"o":""},"":{"ha":307,"x_min":0,"x_max":0,"o":""},"<":{"ha":688,"x_min":0,"x_max":0,"o":""},"=":{"ha":644,"x_min":0,"x_max":0,"o":""},">":{"ha":688,"x_min":0,"x_max":0,"o":""},"?":{"ha":736,"x_min":0,"x_max":0,"o":"m 549 650 b 256 519 460 650 362 606 b 142 362 194 422 156 370 l 147 340 b 180 324 169 338 180 333 b 283 281 201 319 235 305 l 288 281 b 337 308 302 281 319 290 b 581 476 392 420 473 476 l 587 476 l 587 471 b 478 384 514 418 478 389 l 484 384 b 505 389 492 384 499 386 l 511 389 l 511 384 l 462 351 b 272 102 353 237 290 154 l 272 96 l 304 129 b 543 400 304 159 384 250 b 635 481 605 435 635 462 b 570 519 635 498 614 511 l 516 509 l 511 509 l 511 514 b 565 536 547 519 565 526 l 608 536 l 608 530 l 597 530 l 597 519 b 646 492 608 519 625 511 l 657 498 l 657 465 b 619 422 657 444 644 429 l 608 427 b 587 411 594 422 587 416 l 587 406 b 597 416 594 406 597 409 l 603 416 b 576 389 590 398 581 389 l 570 389 l 576 400 l 570 400 b 538 368 549 383 538 372 l 538 362 b 543 368 541 362 543 364 l 549 368 l 511 330 l 511 319 l 516 319 b 646 411 559 355 603 386 b 294 -18 462 268 345 125 l 294 -23 l 304 -23 b 359 75 304 -12 323 20 l 375 75 b 418 123 380 75 395 91 b 402 91 418 116 413 105 l 402 85 b 435 118 424 102 435 113 l 440 118 l 429 96 l 429 91 l 440 91 b 500 172 440 103 460 130 l 500 178 b 484 161 489 172 484 167 l 478 161 l 543 232 l 543 221 l 532 221 l 538 210 b 657 319 544 210 583 246 b 771 476 733 353 771 405 b 619 650 771 567 720 625 z m 597 617 l 597 612 l 587 612 l 587 617 z m 673 617 b 695 606 682 610 690 606 l 695 601 l 690 601 b 668 612 681 608 674 612 l 668 617 z m 684 579 b 695 568 692 579 695 576 l 695 563 b 684 574 689 563 686 566 z m 532 563 l 532 557 l 516 557 l 516 563 z m 619 563 b 641 557 625 559 633 557 l 641 552 l 630 552 b 614 557 623 555 618 557 l 614 563 z m 701 552 b 711 563 701 558 704 562 l 711 552 z m 473 547 l 473 541 l 462 541 l 462 547 z m 657 541 b 673 525 668 536 673 530 l 673 519 b 657 541 668 519 663 527 z m 619 530 l 641 519 l 641 514 b 614 525 629 522 620 525 l 614 530 z m 484 503 b 500 509 488 503 493 505 l 505 509 l 505 503 b 489 498 502 503 496 501 l 484 498 z m 424 476 b 473 498 430 476 446 484 l 478 498 l 478 492 b 429 471 472 492 456 485 l 424 471 z m 549 492 l 549 487 l 527 487 l 527 492 z m 456 471 b 473 476 460 471 466 473 l 484 476 l 484 471 b 462 465 475 471 468 469 l 456 465 z m 728 476 l 728 438 l 722 438 l 722 476 z m 679 471 l 679 433 l 673 433 l 673 471 z m 549 422 b 592 460 562 441 576 454 l 597 460 b 549 422 576 438 559 425 z m 749 444 l 749 427 b 717 368 749 418 739 398 l 711 368 b 744 444 733 394 744 420 z m 614 427 l 625 427 l 625 433 l 614 433 z m 711 411 l 711 395 l 701 395 b 706 411 704 402 706 408 z m 467 378 b 315 216 374 290 323 236 l 315 210 b 473 378 343 238 396 294 z m 608 330 b 646 357 614 330 627 338 l 646 351 l 619 324 l 608 324 z m 494 335 b 484 324 488 335 485 332 l 484 319 l 489 319 b 500 330 496 319 500 322 l 500 335 z m 597 330 l 587 313 l 581 313 l 592 330 z m 565 302 l 554 286 l 549 286 l 559 302 z m 592 302 l 581 286 l 576 286 l 587 302 z m 456 297 b 440 281 446 292 440 286 l 440 275 b 456 292 451 281 456 287 z m 478 281 b 446 254 456 268 446 259 l 446 248 l 451 248 b 478 275 469 261 478 271 z m 435 243 b 402 205 431 243 420 230 l 402 199 l 408 199 b 440 237 412 199 423 212 l 440 243 z m 397 232 b 386 221 391 232 387 229 l 397 221 z m 310 205 b 299 194 304 205 300 201 l 299 189 b 310 199 307 189 310 192 z m 288 172 l 294 172 l 294 183 l 288 183 z m 418 134 b 435 151 425 145 430 151 l 435 145 b 424 134 435 138 431 134 z m 342 123 b 332 113 336 123 333 120 l 332 102 b 342 113 339 102 342 105 z m 375 91 b 391 113 380 105 386 113 l 391 107 l 380 91 z m 267 91 b 239 58 254 84 244 73 l 245 58 b 267 85 250 59 257 68 z m 207 42 b 196 31 201 42 197 39 l 207 31 z m 337 20 b 315 -1 323 12 315 5 l 315 -12 b 337 9 330 -3 337 4 z m 250 -213 b 196 -251 218 -238 199 -251 l 185 -245 b 82 -305 152 -257 117 -277 b -48 -370 9 -336 -34 -357 b -26 -414 -48 -384 -41 -398 b 50 -506 8 -441 33 -473 b 261 -397 104 -498 174 -463 l 261 -387 l 250 -387 l 250 -381 b 326 -316 258 -381 283 -359 l 326 -311 b 125 -435 258 -360 191 -402 l 120 -435 b 153 -392 142 -415 153 -401 b 158 -397 156 -392 158 -394 b 245 -349 164 -397 193 -381 l 245 -343 l 234 -343 l 234 -338 b 256 -311 234 -336 241 -326 l 256 -305 b 201 -332 248 -305 229 -314 l 196 -332 b 294 -240 249 -300 281 -269 l 294 -235 l 283 -235 l 272 -240 b 267 -235 272 -237 270 -235 l 239 -240 l 256 -218 l 256 -213 z m 207 -229 l 218 -229 l 218 -224 l 207 -224 z m 245 -256 l 239 -267 l 234 -267 l 239 -256 z m 261 -332 l 272 -332 l 272 -327 l 261 -327 z m 332 -332 b 315 -349 321 -338 315 -343 b 342 -332 334 -346 342 -340 z m 136 -365 b 158 -354 142 -365 149 -361 l 163 -354 b 142 -370 163 -359 156 -365 l 136 -370 z m 180 -430 b 191 -419 180 -424 183 -420 l 196 -419 b 185 -430 196 -427 193 -430 z "},"@":{"ha":1369,"x_min":0,"x_max":0,"o":""},"A":{"ha":804,"x_min":0,"x_max":0,"o":"m 782 632 b 744 621 771 632 758 629 b 722 627 738 625 730 627 l 717 627 b 706 616 711 627 707 623 l 679 621 b 652 605 661 618 652 613 l 614 616 b 603 605 608 616 604 612 l 592 610 l 587 610 l 549 572 l 549 529 b 516 496 549 507 538 496 b 494 524 516 515 509 524 l 440 464 b 180 46 349 288 262 149 b 115 -57 146 -22 125 -57 b -5 -46 115 -54 75 -50 b -64 -68 -24 -46 -45 -54 b -32 -160 -57 -117 -46 -149 l -43 -176 b -21 -193 -43 -187 -35 -193 l -26 -225 b -10 -247 -21 -239 -16 -247 l -102 -404 l -102 -410 l -92 -410 b 1 -274 -45 -330 -15 -285 l 6 -274 b -10 -317 6 -279 1 -293 b -70 -415 -50 -374 -70 -406 l -70 -420 l -64 -420 b -48 -404 -62 -420 -56 -415 b 33 -285 1 -325 28 -285 l 44 -290 l 39 -301 l 39 -307 l 44 -307 l 71 -290 b 82 -312 76 -290 79 -298 l 104 -290 l 115 -290 b 33 -410 92 -328 65 -367 b -5 -518 33 -439 20 -475 l -5 -534 b 28 -491 -2 -534 9 -520 l 28 -502 l 39 -502 l 33 -475 b 60 -404 43 -456 52 -433 b 66 -410 64 -404 66 -406 b 142 -317 112 -348 137 -317 l 142 -328 b 77 -431 98 -387 77 -421 l 82 -431 b 115 -388 104 -412 115 -397 l 125 -388 l 104 -431 l 104 -437 l 109 -437 l 142 -404 l 142 -420 l 147 -420 b 212 -328 174 -394 196 -363 l 212 -323 l 207 -323 b 180 -361 198 -323 189 -336 l 174 -361 l 174 -355 b 218 -290 195 -312 210 -290 l 223 -290 l 223 -301 l 229 -301 b 315 -274 250 -283 279 -274 l 408 -274 b 451 -263 423 -274 437 -271 b 467 -269 458 -267 464 -269 b 440 -502 449 -372 440 -450 l 440 -518 l 451 -518 b 478 -317 469 -389 478 -322 b 473 -301 475 -317 473 -312 b 494 -263 473 -281 480 -269 l 473 -458 b 484 -475 473 -469 476 -475 l 489 -475 b 516 -263 489 -439 498 -368 l 532 -263 l 527 -301 l 527 -312 l 538 -312 l 543 -263 l 559 -263 l 559 -307 l 570 -307 b 587 -258 573 -274 578 -258 l 592 -258 b 570 -458 592 -326 585 -393 l 581 -464 b 570 -491 581 -470 578 -479 b 581 -518 570 -497 574 -507 l 576 -529 l 581 -540 b 603 -502 587 -540 595 -527 b 597 -496 600 -502 597 -500 l 597 -491 b 603 -496 601 -491 603 -493 b 614 -486 610 -496 614 -493 l 614 -480 l 603 -480 b 608 -415 606 -461 608 -439 l 619 -420 b 635 -361 630 -420 635 -401 l 641 -361 l 641 -399 b 630 -507 641 -451 637 -488 l 641 -507 b 646 -496 641 -500 643 -496 b 679 -258 657 -368 668 -288 l 684 -258 l 684 -263 l 668 -372 l 668 -377 l 679 -377 b 690 -296 686 -342 690 -315 l 690 -274 b 717 -247 690 -271 699 -261 l 695 -247 l 695 -231 l 733 -225 b 777 -231 760 -229 774 -231 l 787 -225 b 777 -214 787 -219 784 -215 l 701 -214 l 706 -149 l 706 -138 b 771 -122 749 -136 771 -130 l 798 -127 b 809 -111 806 -127 809 -122 l 820 -117 l 831 -117 l 842 -111 b 831 -100 842 -105 838 -101 l 739 -100 l 728 -106 b 711 -100 728 -102 722 -100 l 711 -95 l 722 -95 l 722 -79 b 749 -68 722 -73 731 -68 l 782 -68 l 782 -57 l 749 -52 b 728 -57 743 -55 736 -57 l 722 -57 b 728 -41 722 -54 724 -48 b 717 -35 728 -37 724 -35 b 733 41 725 16 730 41 b 798 578 745 236 766 415 b 782 632 798 602 793 619 z m 559 610 b 570 600 559 603 563 600 l 570 616 z m 386 328 l 386 323 b 332 225 378 299 359 267 l 326 225 l 326 231 b 380 328 362 288 380 320 z m 397 285 l 397 279 l 370 225 l 364 225 l 364 231 b 391 285 382 258 391 276 z m 402 252 b 424 285 410 274 418 285 b 408 247 424 280 418 268 l 402 247 z m 538 -35 b 581 225 549 138 563 225 l 559 24 l 559 -3 l 565 -14 b 549 -35 557 -28 552 -35 z m 695 198 l 695 176 l 690 176 l 690 198 z m 635 171 l 635 165 b 603 -30 620 35 609 -30 b 625 176 603 24 610 92 z m 326 165 l 326 160 b 283 79 297 109 283 82 l 283 68 b 315 117 304 90 315 106 l 321 117 l 321 111 b 234 -30 277 28 248 -19 b 239 -14 234 -26 236 -21 l 239 -3 b 201 -57 214 -31 201 -49 l 185 -57 b 321 165 202 -22 248 52 z m 532 149 l 532 111 b 527 68 532 102 530 87 l 522 68 l 522 79 b 527 149 525 124 527 147 z m 592 144 l 592 127 l 587 127 l 587 144 z m 261 122 l 261 111 l 256 111 l 256 122 z m 511 117 b 494 14 500 83 494 49 b 451 -46 494 -26 480 -46 b 408 -41 448 -43 433 -41 b 500 117 459 41 490 94 z m 191 8 b 250 100 227 70 247 100 l 250 95 b 191 3 220 43 201 12 z m 429 95 l 429 84 l 424 84 l 424 95 z m 267 -41 b 353 90 321 46 350 90 b 277 -41 347 71 321 28 z m 272 52 l 277 52 l 277 62 l 272 62 z m 522 30 b 527 -8 522 9 524 -3 b 522 -35 524 -14 522 -24 l 516 -35 l 516 30 z m 706 8 l 706 -8 l 701 -8 l 701 8 z m 581 -3 b 576 -35 578 -22 576 -33 l 565 -30 b 570 -3 568 -24 570 -14 z m 359 -8 l 359 -19 l 353 -19 l 353 -8 z m 180 -14 l 180 -24 l 174 -24 l 174 -14 z m 429 -57 l 429 -62 l 413 -62 l 413 -57 z m 484 -84 b 473 -95 484 -92 480 -95 l 473 -84 z m 435 -90 l 435 -95 l 424 -95 l 424 -90 z m 777 -95 l 804 -95 l 804 -84 l 793 -84 l 782 -90 b 777 -84 782 -86 780 -84 z m 749 -111 l 749 -117 l 728 -117 l 728 -111 z m 592 -138 b 603 -149 600 -138 603 -142 l 592 -149 z m 505 -144 l 505 -149 l 494 -149 l 494 -144 z m 538 -144 b 549 -155 545 -144 549 -147 l 532 -155 l 532 -144 z m 559 -144 l 559 -155 l 554 -155 l 554 -144 z m 467 -149 l 467 -155 l 456 -155 l 456 -149 z m 402 -155 l 402 -160 b 337 -165 370 -160 348 -162 b 326 -160 337 -162 334 -160 l 326 -155 z m 424 -155 l 424 -160 l 408 -160 l 408 -155 z m 446 -155 l 446 -160 l 429 -160 l 429 -155 z m 592 -165 l 592 -182 l 587 -182 l 587 -165 z m 467 -182 l 467 -187 l 446 -187 l 446 -182 z m 538 -182 l 538 -187 l 527 -187 l 527 -182 z m 321 -198 l 321 -203 l 304 -203 l 304 -198 z m 283 -220 b 429 -198 367 -205 416 -198 b 467 -203 444 -201 456 -203 l 473 -203 l 473 -214 l 446 -220 l 375 -220 b 288 -231 359 -220 330 -223 l 283 -231 z m 489 -209 b 500 -198 489 -203 492 -199 l 505 -198 b 500 -214 502 -205 500 -211 l 489 -214 z m 522 -209 b 532 -198 522 -203 525 -199 l 538 -198 l 538 -203 b 527 -214 538 -211 534 -214 l 522 -214 z m 570 -198 l 570 -203 b 559 -214 570 -211 567 -214 l 549 -214 l 549 -198 z m 597 -198 b 592 -214 594 -205 592 -211 l 581 -214 l 581 -198 z m 576 -241 b 587 -231 576 -235 579 -231 l 592 -231 l 592 -247 l 587 -247 z m 565 -236 l 565 -247 l 549 -247 l 549 -236 z m 684 -236 l 684 -241 l 673 -241 l 673 -236 z m 456 -241 l 456 -247 l 446 -247 l 446 -241 z m 326 -252 b 370 -247 335 -252 350 -250 l 391 -247 l 391 -252 b 348 -258 382 -252 368 -254 l 326 -258 z m 408 -247 l 408 -252 l 397 -252 l 397 -247 z m 722 -252 l 739 -252 l 804 -258 l 804 -247 l 749 -241 l 722 -241 z m 277 -258 l 277 -263 l 256 -263 l 256 -258 z m 630 -301 l 630 -307 b 619 -410 623 -367 619 -401 l 614 -410 l 614 -393 b 625 -301 614 -380 617 -350 z m 60 -334 b 44 -350 50 -339 44 -345 l 44 -355 l 50 -355 b 60 -345 57 -355 60 -352 z m 136 -355 l 136 -361 b 131 -377 133 -368 131 -374 l 125 -377 l 125 -372 b 131 -355 129 -364 131 -359 z m 522 -361 l 532 -361 l 532 -350 l 522 -350 z m 554 -361 l 565 -361 l 565 -350 l 554 -350 z m 603 -377 l 603 -382 b 592 -442 600 -390 597 -410 l 587 -442 l 587 -437 b 597 -377 587 -428 590 -408 z m 28 -382 b 17 -393 22 -382 18 -386 l 17 -399 b 33 -382 28 -393 33 -388 z m 549 -415 l 559 -415 l 559 -399 l 549 -399 z m 516 -410 l 527 -410 l 527 -404 l 516 -404 z m -102 -415 b -119 -431 -113 -420 -119 -426 l -119 -437 l -113 -437 b -102 -426 -106 -437 -102 -433 z m 505 -480 l 516 -480 l 516 -469 l 505 -469 z m 77 -480 b 60 -496 66 -486 60 -491 l 60 -507 l 66 -507 b 82 -486 71 -507 77 -500 l 82 -480 z "},"B":{"ha":724,"x_min":0,"x_max":0,"o":"m 429 594 l 439 594 l 439 605 l 429 605 z m 505 594 l 553 594 l 553 589 b 407 578 493 589 444 585 b 60 382 252 533 136 468 l 71 382 b 277 518 144 443 212 488 l 288 518 l 250 486 b 271 491 258 486 265 488 l 277 491 b 250 431 273 465 264 445 b 76 285 207 414 149 366 l 76 279 b 136 312 116 290 136 300 l 130 323 l 141 328 l 141 317 l 146 317 l 163 328 b 157 345 163 332 161 338 b 163 361 157 349 159 354 b 179 345 174 361 179 355 l 190 350 b 184 366 190 354 188 359 l 184 377 l 201 366 b 255 388 212 366 230 374 l 195 334 l 206 334 l 239 355 b 244 328 239 343 241 334 b 146 127 222 272 189 205 b 71 90 146 119 121 106 b 103 30 81 50 92 30 b 76 -35 96 7 87 -14 l 76 -46 b 98 -14 90 -35 98 -24 l 103 -14 l 103 -19 b 54 -127 103 -31 87 -67 b -11 -307 20 -231 -1 -291 l -11 -317 l -5 -328 b 27 -247 1 -328 12 -301 b 125 -30 82 -108 115 -35 l 130 -30 b 119 -57 130 -36 127 -45 b 130 -68 127 -57 130 -60 l 130 -73 b 125 -68 127 -73 125 -71 b 92 -127 114 -68 103 -87 l 103 -127 b 119 -79 114 -101 119 -85 b 130 -90 127 -79 130 -82 b 109 -155 130 -93 123 -115 l 109 -160 l 163 -62 b 125 -155 143 -124 130 -155 l 71 -317 l 76 -328 b 71 -350 73 -334 71 -342 l 71 -372 b 22 -399 38 -382 22 -391 l 22 -404 b 38 -399 25 -404 31 -402 l 43 -399 l 43 -404 b -136 -496 -76 -452 -136 -483 b -16 -442 -129 -496 -89 -478 l -5 -442 l -5 -448 b -217 -562 -142 -518 -213 -556 l -217 -567 l -206 -567 b 98 -420 -26 -475 75 -427 l 103 -420 l 103 -426 l 98 -426 b -5 -502 52 -441 17 -466 b -92 -556 -62 -530 -90 -549 b 33 -502 -59 -547 -18 -529 l 38 -502 l 33 -513 b -201 -654 -102 -569 -180 -616 l -168 -654 b -157 -643 -161 -654 -157 -650 l -168 -643 l -168 -637 b -152 -621 -157 -637 -152 -632 b -146 -627 -149 -621 -146 -623 b -130 -621 -143 -627 -138 -625 b -114 -627 -123 -625 -118 -627 l -87 -621 l -87 -627 b -152 -665 -115 -634 -136 -646 l -146 -665 b -87 -643 -136 -665 -116 -657 b -81 -648 -87 -646 -85 -648 b 0 -616 -70 -648 -43 -637 l 0 -610 l -5 -600 l 5 -594 l 11 -594 l 11 -600 b 87 -567 37 -600 62 -589 b 298 -458 181 -535 252 -498 b 581 -290 486 -382 581 -326 b 673 -133 642 -243 673 -191 l 673 -122 b 537 73 673 -31 627 35 l 537 79 b 667 203 604 130 648 172 b 749 399 698 203 725 269 b 738 464 749 410 745 432 b 564 605 690 558 631 605 l 505 605 z m 412 600 b 212 518 347 600 280 572 b 412 589 309 565 375 589 z m 570 589 b 673 534 595 589 629 570 l 673 529 b 559 583 625 565 587 583 l 559 589 z m 298 529 b 515 572 353 558 425 572 l 537 572 b 705 388 649 555 705 493 l 705 377 b 694 323 705 341 702 323 b 494 95 694 272 627 196 l 483 95 l 483 100 b 581 182 528 124 560 151 l 581 187 l 570 187 l 624 247 l 629 247 l 597 203 l 602 203 l 624 220 b 700 399 675 277 700 337 b 526 562 700 486 642 540 b 358 524 414 562 358 549 b 342 529 354 524 349 526 l 304 524 l 298 524 z m 380 529 b 461 545 380 540 407 545 l 467 545 l 467 534 b 380 524 439 534 410 531 z m 515 529 l 515 524 l 477 524 l 477 529 z m 190 513 b 146 475 161 490 146 477 l 157 475 l 195 502 z m 640 502 b 678 442 650 502 663 482 l 678 431 l 673 431 b 640 496 660 475 649 496 z m 228 469 l 233 469 l 233 480 l 228 480 z m 553 475 b 570 469 560 471 566 469 l 570 464 l 564 464 b 548 469 557 467 551 469 l 548 475 z m 130 464 l 141 464 l 141 469 l 130 469 z m 646 458 l 656 420 l 656 415 l 651 415 b 640 453 651 422 648 435 l 640 458 z m 228 442 l 233 442 b 244 453 241 442 244 446 l 228 453 z m 477 448 b 559 426 522 444 549 437 b 396 203 559 342 505 268 b 450 323 396 222 414 262 b 477 448 459 394 468 435 z m 602 437 l 602 415 l 597 415 l 597 437 z m 81 437 b 33 393 50 414 33 400 l 33 388 l 38 388 b 92 437 56 397 74 413 z m 684 426 l 684 415 l 678 415 l 678 426 z m 190 415 b 201 426 197 415 201 418 l 190 426 z m 174 415 b 146 388 155 402 146 393 l 157 388 b 179 410 172 397 179 404 l 179 415 z m 109 399 l 114 388 l 130 399 l 125 410 z m 727 404 l 727 361 b 705 285 727 349 720 324 l 700 285 l 700 290 b 722 404 714 315 722 353 z m 656 382 l 656 372 b 602 258 656 347 638 309 l 597 258 b 651 382 633 317 651 359 z m 5 377 l 11 366 b 22 377 18 366 22 370 l 22 382 l 16 382 z m 81 366 l 87 366 l 87 377 l 81 377 z m 38 339 b 27 328 32 339 28 336 l 27 323 l 33 323 b 43 334 40 323 43 326 l 43 339 z m 103 334 l 109 323 l 119 328 l 114 339 z m 222 328 l 228 328 l 228 339 l 222 339 z m 586 328 l 586 317 l 581 317 l 581 328 z m 184 328 b 157 301 166 315 157 306 l 163 301 b 190 328 181 314 190 323 z m 309 323 l 309 317 b 304 301 306 311 304 305 l 298 301 l 298 307 b 304 323 302 314 304 319 z m 288 317 l 288 312 b 282 307 288 309 286 307 b 195 117 260 233 231 170 b 282 317 195 136 224 203 z m 255 307 l 255 301 b 233 252 241 275 233 258 l 228 252 l 228 258 b 250 307 242 284 250 300 z m 136 296 l 141 285 b 152 296 149 285 152 288 l 152 301 l 146 301 z m 255 198 l 255 193 b 228 133 237 157 228 138 l 222 133 l 222 138 b 250 198 241 172 250 192 z m 190 165 l 190 160 b 174 122 179 138 174 125 l 168 122 l 168 127 b 184 165 179 146 184 158 z m 271 160 l 271 155 b 266 138 268 148 266 142 l 260 138 l 260 144 b 266 160 264 151 266 157 z m 521 95 b 602 155 537 115 564 134 b 526 95 602 151 577 131 z m 505 -57 l 505 -62 l 494 -57 l 494 -52 z m 71 -57 b 49 -90 64 -57 57 -68 l 49 -100 b 71 -68 55 -100 62 -90 z m 244 -95 b 407 -79 336 -84 391 -79 l 423 -79 b 483 -138 463 -79 483 -98 b 477 -144 479 -138 477 -140 b 358 -231 449 -188 409 -217 b 130 -350 287 -272 211 -312 b 201 -155 144 -288 168 -223 l 217 -155 b 244 -95 227 -147 235 -127 z m 38 -111 b -43 -350 -16 -252 -43 -332 l -33 -350 b 49 -117 -33 -332 -5 -254 l 49 -111 z m 526 -138 l 526 -144 b 450 -241 526 -168 501 -201 l 445 -241 b 521 -138 496 -190 521 -155 z m 92 -138 b 76 -160 87 -138 81 -146 l 76 -165 l 87 -165 b 92 -149 87 -161 89 -156 z m 92 -193 l 92 -198 l 103 -198 l 109 -171 l 109 -165 l 98 -165 z m 65 -193 l 76 -193 l 76 -176 l 65 -176 z m 195 -193 b 206 -182 203 -193 206 -189 l 206 -176 l 195 -176 z m 553 -187 l 553 -193 l 532 -225 l 526 -225 b 548 -187 541 -204 548 -192 z m 461 -193 l 450 -209 l 445 -209 l 456 -193 z m 141 -203 l 141 -231 l 114 -279 l 114 -290 l 119 -290 b 136 -263 127 -290 133 -281 l 141 -263 l 141 -269 b 103 -361 125 -330 113 -361 l 98 -361 l 103 -350 l 103 -334 l 92 -339 l 103 -301 l 92 -301 b 136 -203 113 -262 128 -230 z m 195 -198 b 157 -274 192 -198 179 -223 b 163 -279 161 -274 163 -276 b 195 -203 184 -256 195 -231 z m 76 -236 l 87 -236 l 87 -225 l 76 -225 z m 49 -241 l 54 -241 l 54 -231 l 49 -231 z m 54 -290 l 65 -290 l 65 -279 l 54 -279 z m 103 -334 b 114 -323 111 -334 114 -330 l 103 -323 z m 92 -345 l 92 -355 l 87 -355 l 87 -345 z m 206 -355 b 233 -345 212 -355 222 -352 l 239 -345 l 239 -350 b 212 -361 233 -350 223 -353 l 206 -361 z m 87 -361 l 87 -372 l 81 -372 l 81 -361 z m 136 -399 b 179 -372 136 -393 150 -384 l 184 -372 l 184 -377 b 141 -399 177 -377 163 -385 z m 0 -475 b -11 -486 -6 -475 -10 -478 l -11 -491 b 5 -486 -4 -488 1 -486 l 5 -475 z m -255 -551 l -255 -562 b -136 -496 -199 -543 -159 -521 z m -27 -496 b -60 -513 -45 -496 -56 -502 b -27 -496 -41 -513 -31 -507 z m -76 -513 b -103 -534 -94 -522 -103 -530 b -60 -513 -74 -530 -60 -522 z m 92 -529 l 92 -534 l 76 -534 l 76 -529 z m 49 -551 l 49 -556 l 38 -556 l 38 -551 z m 65 -567 l 65 -572 l 54 -572 l 54 -567 z m -141 -572 b -152 -583 -147 -572 -151 -576 l -152 -589 l -130 -583 l -130 -572 z "},"C":{"ha":812,"x_min":0,"x_max":0,"o":"m 769 642 b 682 621 723 639 694 631 b 650 626 680 621 669 623 b 302 387 582 626 466 547 b -34 -220 78 132 -34 -71 b 42 -383 -34 -283 -9 -337 l 42 -372 b 4 -269 26 -354 14 -320 l 4 -258 l 9 -258 l 15 -280 b 205 -443 61 -389 124 -443 b 595 -242 305 -443 435 -376 l 595 -237 l 585 -237 b 232 -416 436 -356 319 -416 l 199 -416 b 26 -220 83 -372 26 -307 b 113 29 26 -160 55 -77 b 449 436 144 118 256 254 l 454 436 b 416 404 454 431 441 420 b 248 208 328 292 272 227 b 53 -248 118 56 53 -96 l 53 -253 l 64 -253 l 64 -199 l 69 -199 b 107 -296 75 -264 87 -296 b 205 -356 140 -334 172 -354 l 216 -356 l 216 -351 b 107 -220 143 -313 107 -270 l 107 -193 l 113 -139 l 118 -139 l 118 -150 b 113 -182 115 -169 113 -180 l 118 -237 b 221 -329 139 -298 173 -329 b 487 -182 296 -329 385 -280 l 481 -172 b 530 -150 506 -157 522 -150 b 525 -144 530 -146 528 -144 l 536 -128 l 530 -117 b 433 -188 508 -122 475 -145 l 433 -193 l 444 -193 b 406 -226 435 -209 422 -220 b 400 -220 402 -226 400 -224 l 378 -220 b 449 -155 425 -180 449 -159 l 444 -155 b 411 -182 422 -168 411 -177 b 335 -220 378 -190 353 -202 l 330 -220 l 427 -134 l 427 -128 b 270 -231 397 -136 345 -170 l 237 -231 l 237 -226 b 264 -210 256 -223 264 -218 l 237 -210 b 400 78 254 -134 308 -38 b 579 273 519 200 579 265 b 671 349 641 301 671 327 b 726 344 703 346 721 344 b 899 420 820 365 878 390 l 899 441 b 867 463 899 448 888 455 b 829 512 867 496 854 512 l 829 517 l 834 545 b 796 593 809 545 796 561 b 764 637 774 593 764 608 b 769 642 767 637 769 639 z m 433 463 b 270 300 324 357 270 302 l 264 300 b 427 463 265 311 319 365 z m 384 333 b 476 420 385 338 416 366 l 476 414 b 389 333 476 410 447 382 z m 411 295 b 427 311 416 306 422 311 l 427 306 b 411 290 422 295 416 290 z m 368 246 l 368 235 l 362 235 l 362 246 z m 297 230 b 167 56 210 121 167 64 l 161 56 l 161 62 b 292 230 208 137 251 193 z m 178 186 b 85 45 132 127 101 80 l 80 45 l 80 51 b 172 186 80 66 111 111 z m 368 132 b 406 176 374 149 387 163 l 406 170 b 373 127 384 149 373 134 l 368 127 z m 118 -128 b 302 170 136 -50 197 49 b 281 127 302 163 295 149 b 123 -134 176 -14 123 -101 l 118 -134 z m 292 45 b 302 56 292 52 295 56 l 308 56 l 308 45 b 292 40 304 45 299 43 z m 151 40 l 151 35 l 85 -123 l 80 -123 l 80 -117 b 145 40 80 -98 102 -46 z m 264 2 l 264 -9 l 259 -9 l 259 2 z m 248 -36 l 248 -52 b 232 -79 237 -52 232 -61 l 221 -79 b 237 -36 221 -77 227 -62 z m 281 -52 l 281 -58 b 264 -96 270 -76 264 -88 l 259 -96 l 259 -90 b 275 -52 270 -72 275 -60 z m 574 -68 b 557 -85 563 -74 557 -79 l 557 -90 l 563 -90 l 579 -79 z m 487 -74 b 433 -123 451 -101 433 -117 l 444 -123 b 492 -85 476 -102 492 -90 l 492 -74 z m 210 -96 b 221 -85 210 -90 214 -85 l 221 -90 b 210 -101 221 -98 218 -101 z m 4 -112 b 15 -101 4 -106 7 -102 l 15 -128 l 4 -128 z m 509 -101 b 460 -139 484 -126 467 -139 l 460 -150 l 465 -150 b 519 -106 501 -126 519 -112 l 519 -101 z m 80 -128 l 80 -139 l 75 -139 l 75 -128 z m 368 -144 l 373 -144 l 373 -134 l 368 -134 z m 351 -150 b 264 -210 309 -168 280 -188 b 351 -161 280 -210 309 -193 z m 194 -166 l 189 -188 l 183 -188 l 183 -166 z m 167 -204 b 178 -253 167 -210 170 -226 l 178 -258 l 172 -258 b 161 -220 172 -256 169 -243 l 161 -204 z m 406 -199 b 416 -210 406 -206 409 -210 l 416 -199 z m 227 -210 l 227 -220 b 216 -210 220 -220 216 -217 z m 189 -226 b 199 -237 196 -226 199 -229 l 189 -237 z m 297 -242 b 313 -226 302 -231 308 -226 l 319 -226 l 319 -237 b 297 -248 313 -237 306 -240 z m 655 -226 b 623 -264 652 -226 641 -239 b 400 -416 514 -330 440 -380 l 400 -421 b 661 -231 497 -380 584 -316 l 661 -226 z m 4 -237 l 4 -248 l -1 -248 l -1 -237 z m 454 -242 b 433 -264 440 -251 433 -258 l 449 -264 l 465 -253 b 454 -242 465 -247 462 -243 z m 259 -286 b 297 -258 259 -280 272 -271 l 302 -258 l 302 -264 b 264 -286 295 -264 283 -271 z m 416 -269 b 400 -286 406 -275 400 -280 b 427 -269 418 -283 427 -277 z m 64 -275 b 113 -351 66 -296 82 -321 l 118 -351 l 118 -334 b 75 -275 104 -334 89 -315 z m 465 -291 l 471 -291 l 471 -280 l 465 -280 z m 384 -286 b 357 -302 372 -296 363 -302 l 357 -313 b 395 -291 382 -307 395 -300 l 395 -286 z m 433 -307 b 416 -323 422 -313 416 -318 l 422 -323 b 433 -313 429 -323 433 -320 z m 308 -323 b 248 -345 289 -338 269 -345 l 237 -345 l 237 -351 b 248 -361 237 -358 241 -361 b 313 -329 279 -361 300 -351 l 313 -323 z m 389 -329 b 362 -351 371 -338 362 -345 l 362 -356 b 395 -334 376 -356 387 -349 l 395 -329 z m 134 -351 b 129 -356 134 -354 132 -356 b 259 -399 159 -385 202 -399 b 302 -389 284 -392 299 -389 l 302 -378 l 259 -378 b 134 -351 220 -378 178 -369 z m 319 -361 b 308 -372 313 -361 309 -365 l 308 -378 l 319 -378 b 330 -367 326 -378 330 -374 l 330 -361 z m 80 -416 b 102 -437 89 -430 96 -437 l 113 -432 l 91 -410 z m 373 -421 b 297 -454 343 -443 318 -454 l 259 -454 b 129 -437 230 -454 186 -448 l 123 -437 l 123 -448 b 194 -470 157 -463 180 -470 l 259 -470 b 378 -427 315 -470 355 -456 l 378 -421 z "},"D":{"ha":891,"x_min":0,"x_max":0,"o":"m 374 616 b 222 600 342 616 292 611 b -5 530 83 567 7 543 b 43 437 -5 498 11 468 b 38 421 43 434 41 429 b 49 416 38 418 41 416 b 76 367 60 383 69 367 l 76 351 l 87 329 b 277 372 159 340 222 354 l 293 372 l 266 296 b 81 -208 204 163 143 -5 l 92 -208 b 163 -13 123 -98 147 -33 l 168 -13 l 168 -18 l 81 -290 l 81 -300 l 92 -300 b 222 31 114 -223 157 -113 b 342 372 284 216 323 330 l 347 372 l 347 367 b 315 242 347 350 336 308 l 315 237 l 326 242 b 293 134 326 229 315 193 l 288 134 l 288 139 b 309 210 298 165 306 189 l 298 210 l 239 41 l 244 41 b 233 20 244 27 241 20 l 239 9 l 239 3 l 228 9 b 233 -7 228 5 230 0 b 206 -127 226 -76 217 -116 b 212 -132 210 -127 212 -129 l 217 -132 b 353 220 307 94 353 211 l 363 220 b 353 182 356 202 353 190 b 184 -295 241 -88 184 -247 b 71 -393 109 -346 71 -378 b -81 -523 -17 -455 -68 -498 l -71 -523 l -43 -507 b 179 -317 35 -432 109 -369 l 179 -338 l 168 -333 l 163 -333 b -5 -490 100 -410 43 -462 l 0 -501 b 168 -371 48 -469 104 -426 l 174 -371 b 130 -425 174 -374 159 -393 l 136 -425 b 152 -409 146 -419 152 -414 l 163 -414 l 174 -414 b 184 -387 174 -396 177 -387 l 190 -387 l 184 -398 l 201 -398 b 222 -355 204 -373 212 -358 l 228 -355 l 222 -366 l 222 -376 l 233 -376 b 244 -333 233 -373 237 -359 l 250 -333 l 250 -344 l 266 -344 b 298 -290 266 -332 277 -313 l 298 -284 l 288 -290 b 347 -214 288 -265 307 -240 b 711 226 589 -30 711 117 b 705 280 711 231 709 248 b 548 437 705 361 653 414 l 548 443 l 553 443 b 727 242 669 423 727 356 b 716 166 727 218 724 193 l 727 166 l 727 177 l 732 177 l 732 172 b 640 9 719 125 688 71 l 635 9 b 673 68 660 46 673 66 l 673 74 b 526 -89 589 -11 541 -65 l 537 -89 b 548 -78 545 -89 548 -85 l 553 -78 b 483 -149 507 -123 483 -146 l 483 -154 l 494 -154 b 418 -224 443 -197 418 -220 l 423 -224 b 505 -159 473 -190 500 -168 b 770 253 682 -26 770 111 l 770 291 l 765 329 l 770 329 b 787 237 781 274 787 243 b 564 -127 787 144 713 23 b 298 -366 453 -215 364 -294 b 98 -534 188 -448 121 -504 l 98 -539 l 109 -539 b 76 -561 109 -545 98 -552 b 71 -555 76 -557 74 -555 b 27 -615 51 -571 37 -591 b 33 -621 31 -615 33 -617 l 54 -610 l 43 -626 b 98 -583 58 -626 76 -612 l 92 -572 b 130 -523 100 -572 113 -555 l 136 -523 l 130 -534 l 130 -539 b 146 -545 134 -539 140 -541 l 152 -545 l 152 -534 l 141 -534 l 146 -523 l 141 -512 l 157 -501 l 163 -501 l 163 -512 l 174 -512 b 179 -496 174 -508 176 -503 l 174 -485 b 195 -469 188 -485 195 -479 b 212 -474 203 -472 208 -474 l 212 -479 l 201 -496 l 201 -501 l 217 -501 b 98 -621 215 -511 176 -551 l 109 -621 b 358 -420 174 -559 257 -492 b 515 -279 385 -391 437 -344 l 515 -284 l 494 -317 l 494 -322 b 548 -273 512 -313 530 -297 b 890 210 776 -91 890 71 b 857 399 890 273 879 336 b 505 616 800 544 683 616 z m 602 497 l 602 492 l 586 492 l 586 497 z m 743 486 b 803 410 770 469 789 444 l 803 405 l 798 405 b 743 481 798 419 779 444 z m 678 459 b 694 454 686 456 691 454 l 694 448 l 689 448 b 673 454 682 452 677 454 l 673 459 z m 548 416 b 635 372 606 397 635 382 l 629 372 b 548 405 606 394 578 405 z m 684 399 b 727 334 694 397 709 375 l 727 329 l 722 329 b 684 394 706 372 694 394 z m 543 383 b 591 372 564 383 580 380 b 662 242 638 353 662 309 l 662 215 b 331 -165 662 138 551 12 l 331 -154 l 320 -154 l 309 -186 l 304 -186 l 304 -181 l 320 -121 l 326 -121 l 326 -138 l 342 -138 b 418 41 348 -90 374 -31 b 543 383 429 97 470 211 z m 374 372 l 374 367 b 369 351 371 360 369 355 l 363 351 l 363 356 b 369 372 367 363 369 369 z m 852 372 l 852 361 l 846 361 l 846 372 z m 760 367 b 765 345 760 359 762 351 l 765 334 l 760 334 b 749 367 760 345 756 355 z m 315 361 l 315 356 b 298 307 304 330 298 313 l 293 307 l 293 313 l 309 361 z m 732 323 b 738 302 732 315 734 308 l 738 286 l 732 286 l 727 318 l 727 323 z m 868 296 l 868 269 l 863 269 l 863 296 z m 684 280 l 689 253 b 618 68 689 189 665 127 l 613 68 b 678 280 656 122 678 193 z m 743 275 l 743 210 l 738 210 l 738 275 z m 830 264 b 846 258 838 260 843 258 l 846 220 l 841 220 b 830 231 841 228 838 231 z m 429 226 l 429 215 l 423 215 l 423 226 z m 819 220 l 819 204 l 814 204 l 814 220 z m 255 210 l 255 204 b 212 85 255 196 241 156 l 206 85 l 206 90 l 250 210 z m 738 199 l 738 182 l 732 182 l 732 199 z m 819 144 l 819 134 l 814 134 l 814 144 z m 288 128 l 288 123 b 277 96 280 111 277 102 l 271 96 l 271 101 b 282 128 279 113 282 122 z m 374 101 l 374 90 l 369 90 l 369 101 z m 206 79 l 206 68 l 201 68 l 201 79 z m 266 79 l 266 74 b 260 58 262 67 260 62 l 255 58 l 255 63 b 260 79 258 71 260 76 z m 358 74 b 369 63 366 74 369 71 b 358 41 361 54 358 47 l 353 41 l 353 47 z m 401 74 l 401 63 l 396 63 l 396 74 z m 825 63 l 825 52 l 819 52 l 819 63 z m 396 58 l 396 47 l 391 47 l 391 58 z m 195 52 l 195 47 l 184 47 l 184 52 z m 564 25 b 581 41 570 36 576 41 l 586 41 b 564 20 577 27 570 20 z m 770 41 b 781 31 778 41 781 38 l 765 31 z m 808 36 l 808 31 b 787 -7 794 12 787 0 l 781 -7 l 781 -2 b 803 36 795 16 803 28 z m 754 14 b 765 25 754 20 758 24 l 765 14 z m 342 -2 l 342 -7 b 326 -35 339 -26 334 -35 l 336 -2 z m 228 -2 b 212 -35 219 -2 214 -13 l 222 -35 l 228 -7 z m 304 -45 l 304 -56 b 298 -73 300 -63 298 -68 l 293 -73 l 293 -67 b 298 -45 296 -61 298 -54 z m 358 -45 l 358 -56 l 353 -56 l 353 -45 z m 326 -51 l 326 -56 l 315 -56 l 315 -51 z m 309 -219 b 488 -62 353 -155 413 -102 l 488 -67 b 309 -224 488 -73 429 -125 z m 195 -67 b 174 -138 195 -73 188 -96 l 184 -138 l 206 -73 l 206 -67 z m 684 -78 l 684 -89 b 613 -149 661 -116 638 -136 z m 494 -111 b 467 -143 489 -111 480 -121 l 477 -143 b 499 -116 485 -141 492 -132 l 499 -111 z m 206 -149 b 195 -159 200 -149 197 -152 l 195 -170 l 206 -170 b 212 -154 206 -166 208 -161 l 212 -149 z m 250 -154 l 250 -165 l 244 -165 l 244 -154 z m 157 -181 l 168 -181 l 174 -154 l 163 -154 z m 439 -159 b 418 -186 435 -159 427 -168 l 423 -186 b 445 -165 437 -178 445 -170 l 445 -159 z m 646 -165 b 581 -230 607 -208 585 -230 l 575 -230 l 640 -165 z m 564 -170 l 559 -181 l 553 -181 l 559 -170 z m 597 -176 l 586 -192 l 581 -192 l 591 -176 z m 255 -186 l 255 -197 l 250 -197 l 250 -186 z m 250 -203 l 250 -214 b 233 -252 239 -232 233 -244 l 228 -252 l 228 -246 b 244 -203 239 -228 244 -214 z m 401 -197 b 380 -219 387 -206 380 -213 l 385 -219 b 401 -203 396 -213 401 -208 z m 174 -230 l 184 -230 l 184 -219 l 174 -219 z m 363 -230 b 342 -252 349 -239 342 -245 l 347 -252 b 363 -235 358 -245 363 -240 z m 505 -246 l 499 -257 l 494 -257 l 499 -246 z m 260 -252 l 244 -279 l 239 -279 b 250 -252 246 -267 250 -258 z m 331 -257 b 315 -273 320 -262 315 -268 l 315 -279 b 331 -262 326 -273 331 -267 z m 363 -273 b 282 -344 329 -296 302 -319 l 293 -344 b 369 -279 326 -324 351 -302 l 369 -273 z m 277 -284 l 277 -290 b 255 -317 267 -307 260 -316 b 266 -284 255 -315 258 -304 z m 217 -290 l 217 -300 l 212 -300 l 212 -290 z m 54 -300 b 38 -333 45 -300 40 -311 l 49 -333 l 54 -306 z m 212 -349 b 239 -311 212 -335 220 -322 l 239 -322 b 212 -349 226 -340 216 -349 z m 391 -328 l 336 -382 l 331 -382 b 385 -328 367 -348 385 -330 z m 472 -333 b 450 -355 458 -342 450 -349 l 456 -355 b 472 -338 467 -349 472 -343 z m 195 -349 l 195 -360 l 190 -360 l 190 -349 z m 255 -360 b 184 -414 213 -396 189 -414 l 190 -425 b 260 -366 216 -413 239 -393 l 260 -360 z m 434 -366 b 266 -507 322 -452 266 -498 l 277 -507 b 434 -371 352 -450 405 -406 z m 222 -496 b 320 -409 265 -446 298 -418 l 320 -414 b 222 -501 291 -450 258 -479 z m 168 -431 b 130 -469 143 -450 130 -463 b 179 -441 137 -469 153 -460 b 168 -431 179 -435 176 -431 z m 109 -441 b 98 -452 102 -441 99 -445 l 109 -452 z m 76 -469 b 65 -479 70 -469 66 -472 l 76 -479 z m 179 -501 b 174 -517 179 -505 177 -510 l 174 -523 b 190 -507 184 -517 190 -511 l 190 -501 z m 5 -534 l 11 -534 l 11 -523 l 5 -523 z m 239 -528 b 228 -539 233 -528 229 -532 l 239 -539 z m 114 -555 b 109 -572 114 -559 112 -564 l 109 -577 b 125 -561 119 -571 125 -566 l 125 -555 z m 206 -555 b 195 -566 200 -555 197 -559 l 206 -566 z m 5 -637 b -5 -648 -1 -637 -4 -640 l 5 -648 z "},"E":{"ha":818,"x_min":0,"x_max":0,"o":"m 609 601 l 609 590 b 631 595 617 590 625 592 l 642 595 l 642 590 b 609 579 631 590 621 587 b 593 590 598 579 593 583 b 251 503 522 590 408 561 b 39 465 113 498 43 486 l 39 454 b 61 433 48 440 55 433 l 56 406 b 77 384 56 395 63 387 b 137 264 104 304 123 264 b 224 270 189 268 218 270 l 229 270 l 148 75 b 50 42 83 64 50 53 b 83 -94 72 -23 83 -68 l 104 -83 b 83 -170 104 -89 97 -118 l 83 -175 l 115 -142 l 115 -170 l 148 -170 l 148 -180 l 159 -180 b 170 -164 159 -170 162 -164 l 180 -164 b 137 -332 159 -220 144 -277 l 148 -332 b 170 -262 148 -314 155 -290 l 164 -251 l 175 -245 b 170 -240 175 -242 173 -240 b 175 -218 173 -234 175 -227 b 180 -224 178 -218 180 -220 b 213 -186 182 -224 193 -211 b 197 -235 202 -212 197 -229 l 202 -235 b 218 -208 213 -235 218 -226 l 224 -208 l 224 -218 b 213 -267 224 -224 220 -240 l 213 -273 b 267 -164 249 -211 267 -175 l 278 -164 l 273 -175 l 273 -186 b 300 -153 277 -186 286 -175 b 500 -94 395 -130 462 -111 l 500 -83 b 327 -132 470 -83 412 -99 l 311 -132 l 311 -126 b 555 -39 423 -96 505 -67 l 549 -28 b 316 -104 436 -58 359 -83 l 316 -94 b 408 -50 372 -73 402 -58 l 387 -50 l 387 -45 l 397 -45 b 463 -7 425 -20 447 -7 l 463 4 b 370 -23 437 4 406 -5 l 354 -23 l 354 -18 b 538 80 433 1 494 34 l 538 85 b 484 69 531 85 513 80 l 479 69 l 484 80 l 484 85 l 479 85 b 468 75 473 85 469 82 l 457 80 l 495 113 l 495 118 b 414 91 477 118 450 109 l 408 91 l 408 102 b 452 113 414 102 429 105 l 452 123 b 419 113 441 123 431 120 l 414 113 b 495 313 432 151 459 218 b 631 373 495 336 541 355 l 631 384 l 604 378 l 560 378 l 560 384 b 680 422 583 384 622 397 b 810 454 765 438 808 449 l 810 460 b 517 395 685 441 587 420 l 511 395 b 587 427 521 416 546 427 l 587 438 l 566 438 l 566 444 b 593 449 577 444 587 446 b 642 476 602 467 618 476 l 642 487 b 538 465 607 484 572 476 l 538 476 l 690 525 b 826 568 720 525 765 539 l 826 579 b 728 563 818 579 785 574 l 734 574 l 734 579 l 701 579 l 701 585 l 783 606 l 783 617 l 680 601 l 674 601 l 674 606 l 690 606 l 690 617 z m 788 579 l 793 579 l 793 590 l 788 590 z m 560 574 l 560 568 b 544 563 556 568 551 566 l 538 563 l 544 574 z m 712 563 l 712 557 l 696 557 l 696 563 z m 690 557 l 690 552 l 680 552 l 680 557 z m 734 552 b 750 557 737 552 743 554 l 761 557 b 739 541 761 552 753 547 z m 652 547 b 669 552 656 547 661 549 l 674 552 l 674 547 b 658 541 670 547 665 545 l 652 541 z m 441 541 b 457 547 444 541 450 543 l 468 547 l 468 541 b 446 536 460 541 452 539 l 441 536 z m 571 547 l 571 541 b 555 536 567 541 562 539 l 549 536 l 555 547 z m 533 536 b 544 525 541 536 544 532 l 517 525 l 517 536 z m 593 530 l 593 525 l 582 525 l 582 530 z m 549 519 b 571 525 557 519 565 522 l 576 525 l 576 519 b 560 514 572 519 567 517 l 549 514 z m 658 492 l 663 481 b 685 487 665 481 672 484 l 685 498 l 669 498 z m 696 465 b 620 449 692 465 667 460 l 609 449 l 609 438 b 696 454 618 438 647 444 z m 560 438 l 560 433 l 544 433 l 544 438 z m 837 433 b 734 416 814 433 779 427 l 734 406 b 837 422 777 416 812 422 z m 549 378 l 549 373 l 533 373 l 533 378 z m 300 281 b 262 172 292 268 279 231 l 262 167 b 273 183 269 167 273 172 l 278 183 l 278 178 l 240 80 l 235 80 l 235 96 b 202 64 216 75 205 64 b 289 281 202 90 231 162 z m 354 275 l 354 264 l 349 264 l 349 275 z m 283 199 l 283 189 l 278 189 l 278 199 z m 327 189 b 278 80 294 121 278 85 l 273 80 l 273 85 b 316 189 302 148 316 182 z m 218 183 l 218 178 l 180 85 l 175 85 l 175 91 l 213 183 z m 387 183 l 387 172 l 381 172 l 381 183 z m 235 75 l 235 64 l 229 64 l 229 75 z m 441 58 b 457 64 444 58 450 60 l 463 64 l 463 58 b 446 53 458 58 453 56 l 441 53 z m 506 64 l 506 58 b 490 53 502 58 496 56 l 484 53 l 490 64 z m 403 42 l 403 37 b 387 31 399 37 393 35 l 381 31 l 387 42 z m 479 15 l 479 4 l 506 9 l 506 20 z m 435 -34 l 435 -45 l 468 -39 l 468 -28 l 463 -28 z m 332 -61 b 359 -50 338 -61 348 -58 l 376 -50 l 376 -56 b 343 -66 366 -56 355 -59 l 332 -66 z m 522 -72 l 522 -83 b 571 -66 526 -83 542 -77 l 571 -56 z m 83 -99 b 66 -132 74 -99 68 -110 l 77 -132 l 83 -104 z m 685 -159 l 685 -153 b 593 -186 672 -153 642 -164 l 593 -197 b 609 -191 596 -197 602 -195 l 614 -191 l 614 -197 b 560 -224 606 -197 587 -205 l 555 -224 l 560 -213 l 560 -208 b 446 -256 530 -211 492 -227 b 300 -305 368 -279 319 -295 b 56 -408 155 -374 74 -408 b -151 -484 -82 -448 -151 -473 l -151 -490 b -96 -560 -138 -536 -120 -560 b -47 -642 -80 -614 -64 -642 l -47 -674 b 235 -582 20 -674 115 -644 b 620 -414 492 -484 620 -428 l 609 -414 b 549 -425 583 -414 564 -417 l 544 -425 l 544 -419 b 859 -273 729 -341 834 -292 l 859 -267 b 669 -354 798 -286 734 -315 b 354 -490 484 -420 379 -465 b 153 -571 258 -520 191 -547 l 142 -571 l 142 -566 b 381 -446 299 -492 379 -452 b 544 -376 481 -414 536 -391 l 533 -376 l 533 -370 b 571 -354 537 -370 550 -365 l 571 -349 l 566 -338 b 680 -289 607 -323 645 -307 l 680 -278 b 495 -354 602 -302 541 -328 l 490 -354 l 490 -349 b 587 -294 525 -336 557 -318 b 793 -202 690 -258 758 -227 l 788 -191 b 826 -175 813 -186 826 -181 b 864 -148 851 -162 864 -153 b 810 -164 846 -148 828 -153 l 804 -164 l 804 -159 l 815 -159 l 815 -148 l 804 -148 b 755 -186 777 -173 761 -186 b 750 -175 752 -186 750 -182 b 701 -186 745 -175 728 -178 b 799 -132 701 -177 734 -159 l 799 -121 z m 56 -148 b 12 -245 56 -165 41 -197 l 12 -256 l 23 -256 b 66 -148 45 -209 60 -173 z m 235 -186 l 235 -197 b 224 -186 229 -197 224 -193 z m 77 -191 b 50 -229 73 -191 64 -204 l 56 -240 b 77 -202 62 -240 68 -227 z m 685 -197 l 685 -202 l 674 -202 l 674 -197 z m 142 -197 b 132 -208 136 -197 132 -200 l 132 -218 l 142 -218 z m 267 -202 b 251 -235 258 -202 253 -213 l 262 -235 l 267 -208 z m 728 -213 l 728 -218 l 718 -218 l 718 -213 z m 636 -235 b 663 -224 642 -235 652 -231 l 669 -224 l 669 -229 b 642 -240 663 -229 653 -233 l 636 -240 z m 522 -235 l 522 -240 l 511 -240 l 511 -235 z m 506 -240 l 506 -245 b 490 -251 502 -245 496 -248 l 484 -251 l 490 -240 z m 755 -251 l 766 -251 l 766 -240 l 755 -240 z m 566 -256 l 566 -262 l 555 -262 l 555 -256 z m 506 -267 b 522 -262 509 -267 515 -265 l 528 -262 l 528 -267 b 511 -273 524 -267 518 -269 l 506 -273 z m 718 -267 l 728 -267 l 728 -256 l 718 -256 z m 560 -273 l 560 -278 l 549 -278 l 549 -273 z m 180 -273 b 164 -305 172 -273 166 -283 l 175 -305 l 180 -278 z m 213 -278 b 197 -300 208 -278 202 -286 l 197 -305 l 208 -305 b 213 -289 208 -301 210 -296 z m 452 -294 b 479 -283 458 -294 467 -291 l 495 -283 l 495 -289 b 452 -305 486 -289 472 -294 z m 902 -283 b 712 -370 821 -308 758 -337 l 902 -294 z m 490 -300 b 506 -294 493 -300 498 -298 l 511 -294 l 511 -300 b 495 -305 507 -300 502 -302 l 490 -305 z m 376 -300 l 376 -305 l 365 -305 l 365 -300 z m 712 -305 l 723 -305 l 723 -294 l 712 -294 z m 359 -305 l 359 -311 l 349 -311 l 349 -305 z m 397 -316 b 408 -327 405 -316 408 -319 l 397 -327 z m 674 -321 l 685 -321 l 685 -311 l 674 -311 z m 658 -321 b 598 -354 618 -336 598 -347 l 604 -354 b 658 -332 612 -354 630 -347 z m 262 -343 b 289 -332 268 -343 277 -340 l 294 -332 l 294 -338 b 267 -349 288 -338 279 -341 l 262 -349 z m 359 -332 b 365 -338 363 -332 365 -334 b 381 -332 368 -338 374 -336 l 387 -332 l 387 -338 b 359 -349 380 -338 371 -341 z m 332 -343 b 349 -349 339 -347 345 -349 l 349 -354 b 332 -359 345 -354 339 -356 z m 376 -349 b 392 -343 379 -349 385 -347 l 397 -343 l 397 -349 b 381 -354 393 -349 388 -351 l 376 -354 z m 300 -365 b 316 -359 303 -365 309 -363 l 321 -359 l 321 -365 b 305 -370 317 -365 312 -367 l 300 -370 z m 435 -376 l 441 -376 l 441 -381 l 278 -446 l 278 -435 z m 213 -397 b 240 -387 219 -397 229 -394 l 245 -387 l 245 -392 b 218 -403 239 -392 230 -395 l 213 -403 z m 495 -387 l 495 -392 l 484 -392 l 484 -387 z m 479 -392 l 479 -397 l 468 -397 l 468 -392 z m 392 -425 b 457 -397 395 -425 417 -416 l 463 -397 l 463 -403 b 397 -430 455 -403 433 -412 l 392 -430 z m 528 -430 l 528 -435 l 517 -435 l 517 -430 z m 490 -446 l 490 -452 l 479 -452 l 479 -446 z m 229 -463 l 229 -468 l 218 -468 l 218 -463 z m 273 -484 b 289 -479 276 -484 281 -482 l 294 -479 l 294 -484 b 278 -490 290 -484 285 -486 l 273 -490 z m 338 -511 b 370 -500 345 -511 355 -508 l 376 -500 b 354 -517 376 -506 368 -511 l 338 -517 z m 170 -533 l 170 -538 l 159 -538 l 159 -533 z m 126 -544 b 148 -538 134 -544 142 -542 l 153 -538 l 153 -544 b 137 -549 149 -544 144 -546 l 126 -549 z m 267 -549 l 273 -549 l 273 -555 l 153 -598 l 148 -598 l 148 -593 z "},"F":{"ha":833,"x_min":0,"x_max":0,"o":"m 820 696 l 820 707 l 814 707 b 722 685 770 692 739 685 l 722 674 l 744 674 l 744 669 b 690 647 733 669 715 661 l 684 658 b 559 620 642 658 601 645 b 267 522 499 609 401 576 b 22 484 122 513 41 501 b 71 381 22 453 39 418 l 66 370 l 66 365 b 82 354 72 365 77 361 b 104 311 84 325 91 311 l 98 283 l 98 278 b 115 283 102 278 107 280 l 131 273 l 147 273 b 239 289 161 273 193 278 l 256 289 b 125 -53 193 93 149 -21 l 55 -53 b -64 -91 -1 -53 -41 -66 b -16 -189 -47 -156 -31 -189 l -21 -199 l -21 -205 l -10 -205 b 22 -254 -4 -237 7 -254 l 17 -264 l 17 -270 b 60 -292 17 -281 31 -288 l -48 -585 l -48 -590 l -37 -590 b -5 -503 -19 -532 -8 -503 b 87 -286 43 -359 73 -286 b 50 -416 87 -294 75 -337 l 50 -422 b 115 -281 53 -421 75 -374 l 136 -292 l 163 -286 l 120 -411 l 120 -416 l 131 -416 b 174 -275 131 -410 145 -363 l 191 -275 b 109 -498 172 -351 145 -425 b 82 -595 109 -559 100 -592 l 87 -623 l 82 -661 l 93 -661 b 125 -547 93 -647 104 -609 l 120 -547 b 125 -525 120 -538 122 -531 b 180 -411 161 -458 180 -420 l 185 -411 l 185 -416 b 174 -454 178 -435 174 -447 l 174 -460 l 185 -454 l 191 -454 b 185 -476 187 -460 185 -468 l 169 -465 l 147 -525 l 147 -530 l 153 -530 b 174 -487 167 -521 174 -507 l 185 -492 b 163 -568 174 -517 167 -543 l 163 -574 b 201 -492 171 -574 183 -547 l 207 -492 l 207 -514 l 218 -514 l 250 -422 b 239 -411 250 -416 247 -412 l 239 -422 l 234 -422 l 234 -416 b 250 -346 245 -391 250 -368 l 256 -346 b 261 -368 256 -354 258 -361 l 272 -362 b 332 -205 296 -278 316 -226 b 576 -80 494 -128 576 -86 l 565 -80 b 505 -91 539 -80 519 -83 l 500 -91 l 500 -85 b 532 -69 520 -81 531 -76 b 749 28 653 -26 726 6 l 749 34 b 592 -26 689 20 637 -1 b 353 -145 448 -92 368 -132 l 353 -140 b 505 -47 355 -122 406 -92 l 505 -42 l 500 -31 b 522 -15 514 -31 522 -26 b 570 23 522 -9 538 3 l 570 28 b 456 -15 525 14 487 -1 l 456 -9 l 462 1 b 690 110 587 47 663 83 l 684 121 l 695 121 b 706 110 703 121 706 117 b 744 148 723 118 736 131 l 744 153 b 711 142 736 153 726 150 l 706 142 l 706 148 l 717 148 l 717 159 b 695 153 704 155 697 153 l 695 148 l 701 137 b 652 121 688 137 671 132 l 646 121 b 652 126 646 124 648 126 l 646 137 l 608 126 l 614 115 b 597 110 610 115 604 113 l 597 126 b 690 170 654 155 684 170 l 690 180 b 511 104 570 136 511 111 b 500 115 505 104 500 108 b 435 94 473 115 452 108 l 429 94 b 505 365 480 245 505 336 b 739 452 617 401 695 430 l 739 463 b 635 425 670 455 635 443 l 608 425 l 581 419 l 581 425 b 744 490 686 465 740 486 b 950 555 857 513 926 534 l 950 560 b 522 425 793 517 651 471 l 516 425 b 679 500 516 441 570 467 l 673 511 b 695 506 682 511 689 509 l 701 506 b 690 538 701 513 697 524 b 749 555 717 549 736 555 l 749 566 b 635 533 733 566 695 555 l 630 533 l 630 538 l 782 604 b 907 642 865 623 907 636 l 907 647 b 858 636 898 647 882 644 l 852 636 l 852 642 b 966 669 894 649 932 658 l 966 680 l 928 674 l 928 685 l 907 685 l 907 674 l 923 674 l 923 669 b 863 658 909 669 888 665 l 847 669 l 814 663 l 809 663 l 809 669 b 912 701 859 690 893 701 l 912 712 z m 814 696 l 814 690 l 804 690 l 804 696 z m 690 663 l 701 663 l 701 674 l 690 674 z m 798 663 l 798 652 l 793 652 l 793 663 z m 608 631 b 625 636 612 631 617 633 l 630 636 l 630 631 b 614 625 626 631 621 629 l 608 625 z m 760 631 b 782 636 768 631 776 633 l 787 636 l 787 631 b 771 625 783 631 778 629 l 760 625 z m 630 609 b 646 614 633 609 639 611 l 652 614 l 652 609 b 635 604 648 609 642 607 l 630 604 z m 684 614 l 684 609 l 673 609 l 673 614 z m 511 593 b 527 598 514 593 519 595 l 532 598 l 532 593 b 516 587 528 593 523 591 l 511 587 z m 581 587 b 608 598 587 587 597 591 l 614 598 b 581 576 614 592 603 585 z m 635 587 b 668 598 645 587 656 591 l 673 598 l 673 593 b 646 582 667 593 658 589 l 635 582 z m 814 582 l 842 582 l 842 593 l 814 593 z m 494 582 l 494 576 l 484 576 l 484 582 z m 766 576 l 766 566 l 793 571 l 793 582 z m 522 560 b 538 566 525 560 530 562 l 549 566 l 549 560 b 527 555 541 560 533 558 l 522 555 z m 494 555 b 505 544 502 555 505 551 b 489 538 501 544 496 542 l 489 555 z m 809 549 b 722 528 800 549 772 542 l 722 517 b 809 538 772 531 802 538 z m 456 533 l 456 528 l 446 528 l 446 533 z m 885 511 l 885 500 b 988 522 946 515 981 522 l 988 533 l 977 533 z m 364 506 b 391 517 370 506 380 509 l 402 517 l 402 511 b 370 500 392 511 381 508 l 364 500 z m 863 495 l 874 495 l 874 506 l 863 506 z m 467 479 b 500 490 474 479 485 482 l 505 490 l 505 484 b 467 468 498 484 486 479 z m 760 473 l 760 463 l 771 463 b 820 479 777 463 793 468 l 820 490 z m 511 392 b 570 419 517 392 536 401 l 576 419 l 576 414 b 527 387 543 404 527 395 l 511 387 z m 261 240 l 261 229 l 256 229 l 256 240 z m 315 235 l 315 229 l 304 191 l 299 191 l 299 197 b 310 235 307 211 310 224 z m 288 229 l 288 224 b 212 -15 288 196 263 117 l 201 -15 b 283 229 225 80 252 161 z m 256 224 l 256 213 b 229 142 248 200 239 176 l 223 142 l 223 148 b 250 224 241 190 250 215 z m 597 164 b 511 132 590 164 562 153 l 511 121 b 597 153 547 130 575 141 z m 657 104 b 668 115 657 111 661 115 l 673 115 b 668 99 670 109 668 103 z m 467 94 l 467 88 l 456 88 l 456 94 z m 565 88 b 581 94 568 88 574 90 l 587 94 l 587 88 b 570 83 583 88 577 86 l 565 83 z m 494 72 b 511 77 498 72 503 74 l 516 77 l 516 72 b 500 66 512 72 507 70 l 494 66 z m 256 66 l 256 56 l 245 18 l 239 18 l 239 23 b 250 66 247 46 250 60 z m 635 50 l 646 50 l 646 61 l 635 61 z m 440 50 l 456 50 l 456 45 l 418 34 l 418 45 z m 467 45 b 484 50 471 45 476 47 l 489 50 l 489 45 b 473 39 485 45 479 43 l 467 39 z m 191 39 l 191 34 b 174 -31 191 31 185 9 l 163 -31 b 185 39 178 6 185 29 z m 581 34 l 587 23 b 608 34 595 31 602 34 l 608 45 l 597 45 z m 239 12 l 239 1 l 234 1 l 234 12 z m 793 18 b 695 -26 728 -3 695 -17 b 793 7 710 -26 743 -15 z m 614 12 b 565 -15 581 2 565 -7 l 570 -15 b 614 1 577 -15 591 -9 z m 375 -53 b 408 -37 380 -53 391 -47 l 413 -37 l 413 -42 b 380 -58 408 -42 397 -47 l 375 -58 z m 402 -80 l 402 -85 b 386 -91 398 -85 393 -87 l 391 -80 z m 348 -167 b 380 -156 355 -167 366 -163 l 386 -156 l 386 -161 b 364 -172 380 -161 373 -165 l 348 -172 z m 234 -270 l 234 -281 b 229 -297 231 -288 229 -293 l 223 -297 l 223 -292 b 229 -270 227 -286 229 -278 z m 256 -275 l 256 -286 l 250 -286 l 250 -275 z m 277 -297 l 277 -308 l 272 -308 l 272 -297 z m 120 -308 b 109 -351 113 -333 109 -348 l 120 -351 b 131 -308 120 -345 123 -331 z m 93 -395 l 104 -395 l 109 -368 l 98 -368 z m 180 -384 l 180 -395 l 174 -395 l 174 -384 z m 82 -422 l 93 -422 l 93 -411 l 82 -411 z m 93 -481 l 93 -487 l 98 -487 b 109 -476 106 -487 109 -484 l 109 -454 l 98 -454 z m 22 -481 b -5 -557 22 -484 14 -509 l 1 -557 b 33 -481 12 -557 22 -532 z m 82 -514 l 93 -514 l 93 -503 l 82 -503 z m 109 -628 l 120 -628 b 131 -590 120 -626 123 -613 l 120 -590 z m 158 -595 b 142 -628 149 -595 144 -606 l 153 -628 l 158 -601 z "},"G":{"ha":935,"x_min":0,"x_max":0,"o":"m 711 624 b 347 336 647 624 526 528 b -38 -326 109 45 -20 -176 l -38 -342 b 179 -575 -38 -497 35 -575 b 380 -515 257 -575 324 -555 l 385 -515 l 380 -526 l 380 -537 l 423 -488 b 401 -553 409 -524 401 -546 l 401 -559 b 477 -450 442 -490 467 -454 l 477 -461 l 488 -461 l 499 -429 l 505 -429 l 515 -434 b 494 -483 515 -446 508 -462 l 494 -499 b 564 -385 537 -423 561 -385 l 564 -391 b 445 -700 485 -559 445 -662 l 445 -705 l 450 -705 b 461 -689 458 -705 461 -700 l 472 -694 l 477 -694 b 483 -678 477 -690 479 -685 l 472 -673 b 532 -548 498 -596 518 -555 l 526 -575 l 537 -575 l 537 -586 l 521 -575 l 521 -586 b 532 -597 521 -593 524 -597 b 515 -651 521 -628 515 -646 l 515 -656 l 521 -656 b 602 -505 563 -561 590 -511 b 591 -532 602 -511 599 -520 l 591 -537 l 602 -537 b 738 -266 602 -529 648 -439 b 846 71 767 -153 803 -40 b 1020 201 846 96 904 140 l 1020 217 l 917 326 b 863 358 905 347 886 358 l 852 342 b 613 201 759 303 679 256 b 537 152 566 176 541 160 l 537 146 b 597 174 569 155 589 165 b 684 233 597 178 626 199 l 694 233 l 694 228 b 434 54 640 197 553 139 l 434 49 b 656 190 468 55 542 102 b 792 266 737 231 782 256 l 803 266 b 716 201 753 222 724 201 l 716 195 l 727 195 b 705 179 727 190 720 184 l 694 184 b 608 130 680 184 651 166 b 532 43 597 96 572 67 b 608 87 547 43 573 58 l 618 87 b 521 16 596 57 564 33 b 467 -22 492 -9 474 -22 l 467 -27 l 472 -38 b 467 -43 469 -38 467 -40 l 467 -54 l 472 -54 l 483 -49 l 483 -60 l 494 -60 l 494 -54 l 488 -43 b 505 -16 494 -43 500 -35 l 510 -16 l 505 -27 l 521 -27 b 515 -33 521 -31 519 -33 l 521 -43 l 548 -33 l 548 -38 l 499 -81 b 564 -49 515 -81 537 -71 l 570 -49 l 559 -65 l 559 -71 l 570 -65 l 575 -65 b 483 -206 555 -121 525 -169 l 483 -212 b 543 -163 486 -212 507 -195 b 505 -222 543 -175 530 -195 l 505 -228 l 515 -228 b 499 -239 515 -235 510 -239 b 456 -298 488 -279 474 -298 l 461 -288 b 434 -298 455 -288 446 -291 b 461 -277 441 -284 450 -277 l 461 -266 b 396 -315 418 -279 396 -295 l 391 -315 l 391 -309 b 483 -217 391 -300 421 -270 l 483 -212 b 201 -391 334 -331 240 -391 b 163 -369 180 -376 168 -369 b 233 -201 163 -341 186 -285 b 521 130 322 -20 418 90 l 521 146 l 515 146 l 423 81 l 418 81 b 651 336 435 127 513 212 b 852 494 732 393 800 445 b 781 570 852 505 828 530 b 732 613 756 570 740 584 l 722 608 l 711 608 b 716 613 711 611 713 613 z m 0 -374 b 152 5 0 -300 51 -174 b 418 336 246 147 334 258 l 418 331 b 293 190 394 298 353 252 b 22 -326 138 -22 47 -193 l 33 -326 l 33 -374 l 38 -412 l 33 -412 l 33 -396 l 22 -396 b 65 -472 22 -429 36 -454 l 65 -461 b 152 -488 96 -479 125 -488 b 353 -429 226 -488 293 -469 l 347 -418 b 163 -477 290 -458 229 -477 b 60 -358 102 -477 68 -437 b 71 -288 60 -340 63 -317 b 250 33 130 -137 189 -31 b 222 -16 250 20 241 4 b 65 -353 136 -136 84 -249 b 71 -374 65 -367 67 -374 b 190 -467 71 -429 111 -460 l 195 -467 b 282 -445 203 -467 231 -459 b 467 -309 385 -389 446 -344 l 477 -309 b 407 -423 477 -332 454 -370 l 418 -423 l 418 -439 b 163 -532 320 -501 235 -532 b 0 -374 70 -532 16 -479 z m 407 288 l 374 250 l 369 250 l 401 288 z m 336 282 l 255 184 l 250 184 b 331 282 267 211 294 243 z m 732 255 l 732 250 l 716 250 l 716 255 z m 808 244 l 808 239 b 792 228 798 239 792 235 l 781 228 l 781 233 b 798 244 792 233 798 237 z m 711 195 b 700 184 705 195 701 192 l 705 184 b 716 195 713 184 716 188 z m 684 168 l 684 163 b 656 146 677 163 668 157 l 656 157 b 673 168 667 157 673 161 z m 705 146 b 743 168 713 146 725 154 l 743 163 l 722 141 l 705 141 z m 331 146 l 331 136 l 326 136 l 326 146 z m 586 119 b 559 98 568 110 559 102 l 559 92 l 564 92 b 591 109 576 103 585 109 l 591 119 z m 244 87 b 98 -168 168 -29 119 -115 l 92 -168 l 92 -163 b 239 87 128 -79 177 3 z m 526 71 b 537 81 534 71 537 74 l 526 81 z m 347 71 l 347 65 l 320 27 l 315 27 b 342 71 333 51 342 65 z m 76 -81 b 136 16 92 -43 111 -10 l 81 -87 l 76 -87 z m 581 11 l 581 5 l 570 5 l 570 11 z m 629 -54 l 629 -60 l 624 -87 l 618 -87 l 618 -81 l 624 -54 z m 244 -71 b 255 -60 244 -64 248 -60 l 255 -71 z m 591 -87 l 591 -98 l 586 -98 l 586 -87 z m 60 -114 l 60 -125 l 54 -125 l 54 -114 z m 54 -130 l 54 -136 b 33 -179 40 -156 33 -170 l 27 -179 l 27 -174 b 49 -130 41 -149 49 -134 z m 190 -168 l 190 -179 l 184 -179 l 184 -168 z m 87 -184 l 87 -190 b 81 -206 83 -197 81 -202 l 76 -206 l 76 -201 b 81 -184 79 -193 81 -188 z m 613 -184 l 613 -195 l 608 -195 l 608 -184 z m 22 -195 l 22 -201 b 16 -217 18 -208 16 -213 l 11 -217 l 11 -212 b 16 -195 14 -204 16 -199 z m 456 -201 b 412 -244 427 -225 412 -239 l 423 -244 b 461 -206 448 -224 461 -212 l 461 -201 z m 526 -326 b 586 -206 556 -246 576 -206 b 532 -326 562 -282 544 -322 z m 168 -217 l 168 -228 l 163 -228 l 163 -217 z m 11 -222 l 11 -233 l 5 -233 l 5 -222 z m 5 -239 l 5 -250 l 0 -250 l 0 -239 z m 624 -250 l 624 -255 b 613 -282 616 -267 613 -276 l 608 -282 l 608 -277 b 618 -250 615 -265 618 -256 z m 54 -260 l 54 -271 l 49 -271 l 49 -260 z m 380 -266 b 255 -353 365 -281 323 -310 l 255 -358 b 385 -277 277 -358 321 -331 z m 521 -271 l 521 -282 l 515 -282 l 515 -271 z m 43 -288 l 43 -298 l 38 -298 l 38 -288 z m -16 -304 l -16 -315 l -22 -315 l -22 -304 z m 38 -309 l 38 -320 l 33 -320 l 33 -309 z m 564 -315 b 553 -326 564 -322 561 -326 l 553 -315 z m 651 -320 l 651 -331 l 646 -331 l 646 -320 z m 125 -326 b 130 -347 125 -334 127 -341 b 125 -369 127 -347 125 -355 l 119 -369 l 119 -326 z m 353 -342 b 363 -331 353 -336 356 -332 l 369 -331 b 358 -342 369 -338 366 -342 z m 586 -331 l 586 -342 l 581 -342 l 581 -331 z m 678 -336 l 678 -347 l 673 -347 l 673 -336 z m 385 -342 l 374 -358 l 363 -358 l 363 -353 b 380 -342 374 -353 380 -349 z m 526 -342 b 499 -380 513 -367 505 -380 b 515 -342 499 -376 505 -363 z m 16 -385 l 27 -385 l 27 -342 l 16 -342 z m 434 -358 b 418 -380 429 -358 423 -366 l 423 -380 l 439 -369 z m 309 -380 b 326 -374 313 -380 318 -378 l 331 -374 l 331 -380 b 315 -385 327 -380 321 -382 l 309 -385 z m 467 -385 l 467 -401 b 439 -429 453 -420 444 -429 b 461 -385 439 -424 447 -409 z m 521 -391 l 521 -401 l 515 -401 l 515 -391 z m 618 -396 l 618 -401 b 613 -418 615 -408 613 -414 l 608 -418 l 608 -412 b 613 -396 611 -405 613 -399 z m 461 -445 b 499 -401 481 -416 494 -401 b 461 -450 499 -416 486 -432 z m 125 -407 b 146 -418 134 -414 140 -418 l 146 -423 l 141 -423 b 119 -407 127 -418 119 -412 z m 586 -429 l 586 -434 b 581 -450 583 -441 581 -446 l 575 -450 l 575 -445 b 581 -429 578 -437 581 -432 z m 391 -434 l 401 -434 l 401 -429 l 391 -429 z m 412 -483 b 445 -445 420 -460 431 -448 l 445 -450 b 418 -483 432 -472 423 -483 z m 629 -445 l 629 -456 l 624 -456 l 624 -445 z m 11 -467 b 163 -543 43 -517 94 -543 l 201 -543 b 391 -477 250 -543 313 -521 l 401 -477 l 401 -483 b 195 -564 321 -537 252 -564 b 5 -472 102 -564 39 -534 l 5 -467 z m 326 -467 b 293 -488 311 -467 300 -474 b 326 -472 311 -488 322 -483 z m 467 -483 l 477 -483 l 477 -477 l 467 -477 z m 98 -499 b 163 -515 130 -510 152 -515 l 195 -515 b 266 -494 242 -513 266 -505 b 212 -505 237 -501 218 -505 l 201 -505 b 98 -488 176 -505 141 -499 z m 467 -494 b 450 -510 456 -499 450 -505 l 450 -521 l 461 -521 b 467 -499 461 -513 463 -505 z m 477 -532 l 488 -532 l 494 -505 l 483 -505 z m 439 -548 b 450 -537 447 -548 450 -545 l 450 -532 l 439 -532 z m 581 -553 b 548 -624 581 -559 570 -583 l 548 -635 b 591 -553 568 -618 583 -591 z m 467 -559 b 456 -570 460 -559 456 -562 l 456 -581 b 472 -559 461 -581 467 -573 z m 385 -591 b 363 -618 380 -591 373 -600 l 363 -635 l 374 -635 b 385 -602 374 -625 378 -614 z m 521 -591 b 499 -618 516 -591 509 -600 l 499 -629 l 505 -629 b 521 -597 515 -626 521 -615 z m 439 -608 l 450 -608 l 450 -597 l 439 -597 z m 342 -618 b 326 -640 336 -618 331 -626 l 326 -646 l 331 -646 b 342 -635 338 -646 342 -642 z m 391 -646 l 401 -646 l 401 -640 l 391 -640 z m 515 -662 b 494 -689 511 -662 503 -671 l 494 -700 l 505 -700 b 515 -673 505 -694 508 -684 z "},"H":{"ha":867,"x_min":0,"x_max":0,"o":"m 914 819 b 827 802 899 812 869 807 b 817 813 827 808 824 812 b 800 797 806 808 800 802 b 773 808 789 804 779 808 b 751 802 765 808 758 806 b 730 808 745 806 738 808 b 692 710 711 808 699 775 b 556 260 645 495 600 345 b 502 238 556 252 538 244 l 496 238 l 496 243 l 529 254 l 529 265 b 437 227 467 251 437 238 l 475 238 l 480 238 l 480 233 b 437 216 471 233 457 227 b 431 233 437 220 435 226 b 372 216 402 229 382 224 l 366 216 b 453 569 410 361 439 479 l 453 574 b 431 591 453 580 446 585 b 269 585 415 591 361 589 l 231 591 l 231 580 b 193 455 205 549 193 507 l 100 146 b -57 102 -5 122 -57 107 l -57 92 b -14 5 -57 60 -43 31 b -19 -12 -14 1 -16 -4 b 8 -33 -19 -16 -10 -24 l -8 -109 l -8 -115 b 24 -71 10 -85 21 -71 l 30 -71 b 19 -109 22 -90 19 -102 b -62 -332 -35 -245 -62 -319 l -57 -332 b 46 -98 -43 -328 -8 -251 l 57 -104 b 19 -207 57 -115 44 -149 l 19 -212 l 24 -212 b 79 -104 37 -197 55 -161 l 95 -104 l 57 -201 b 62 -207 60 -201 62 -203 l 68 -207 b 122 -93 92 -136 109 -98 b 68 -239 122 -114 104 -163 b 30 -348 48 -311 35 -347 b 35 -364 30 -351 32 -357 l 30 -397 l 30 -408 l 41 -408 l 41 -397 l 52 -402 b 68 -380 57 -402 62 -395 l 62 -359 l 62 -353 l 73 -359 l 79 -359 b 68 -348 79 -353 75 -349 l 79 -310 l 90 -315 b 106 -299 100 -309 106 -304 l 106 -283 l 95 -283 l 95 -294 l 90 -294 l 90 -288 b 117 -207 108 -246 117 -219 l 122 -207 l 122 -212 b 106 -261 122 -225 117 -241 b 122 -277 111 -272 117 -277 b 90 -386 100 -344 90 -380 l 90 -391 b 144 -272 125 -335 144 -296 l 149 -272 l 149 -277 b 138 -310 149 -284 146 -295 l 144 -310 b 193 -201 155 -310 172 -274 l 193 -196 l 182 -196 l 160 -261 l 155 -261 l 155 -256 b 187 -158 176 -197 187 -164 l 193 -158 l 193 -180 l 198 -180 b 236 -98 205 -178 218 -151 b 453 10 236 -65 309 -29 l 458 10 b 426 -87 458 -1 448 -34 l 426 -93 l 437 -93 b 480 -1 466 -35 480 -4 l 486 -1 l 486 -6 b 480 -22 486 -9 484 -15 b 339 -418 386 -277 339 -409 l 350 -418 b 426 -234 379 -330 404 -269 b 540 37 473 -77 511 14 l 518 -28 b 529 -33 518 -31 522 -33 l 518 -87 b 524 -104 522 -87 524 -93 l 534 -104 b 600 43 555 -33 576 16 b 529 -153 574 -48 551 -113 b 437 -408 484 -296 452 -381 l 442 -435 b 420 -462 442 -449 435 -458 b 426 -467 420 -465 422 -467 l 420 -522 l 431 -522 b 442 -478 439 -502 442 -488 l 448 -478 l 448 -494 l 458 -494 b 469 -462 458 -488 462 -477 b 464 -456 466 -462 464 -460 b 453 -473 456 -456 453 -462 l 448 -473 l 448 -467 l 469 -413 l 464 -391 b 469 -375 467 -384 469 -378 l 475 -375 l 475 -386 b 496 -348 482 -386 489 -373 l 502 -348 l 502 -353 l 491 -380 l 496 -380 b 518 -342 511 -374 518 -362 l 524 -342 l 524 -353 b 480 -494 521 -376 507 -422 l 491 -494 b 518 -413 509 -446 518 -419 b 610 -169 580 -260 610 -179 b 621 -185 618 -169 621 -174 l 632 -185 b 806 260 675 -55 733 94 l 898 536 b 941 781 916 673 930 755 l 941 797 b 914 819 939 804 930 812 z m 730 536 l 730 531 b 703 460 720 484 711 460 b 724 536 717 505 724 530 z m 703 526 l 703 515 b 670 385 681 445 670 401 b 616 233 634 293 616 243 l 605 233 b 697 526 667 415 697 513 z m 670 520 l 670 509 b 637 406 670 496 659 461 l 632 406 l 632 412 b 665 520 654 467 665 503 z m 789 417 l 789 406 l 784 406 l 784 417 z m 252 374 l 252 368 b 241 325 245 343 241 328 l 236 325 l 236 330 l 247 374 z m 225 368 l 225 357 b 160 151 225 326 203 256 l 149 151 l 220 368 z m 198 363 b 171 281 180 318 171 291 l 165 281 l 165 287 l 187 363 z m 670 336 l 670 325 l 665 325 l 665 336 z m 665 319 l 665 314 b 643 254 650 278 643 258 l 637 254 l 637 260 b 659 319 646 273 653 293 z m 768 314 l 768 298 l 762 298 l 762 314 z m 670 227 b 697 292 681 271 690 292 b 675 222 697 286 690 262 l 670 222 z m 507 216 b 540 233 515 216 526 222 l 545 233 b 524 211 536 218 529 211 l 507 211 z m 203 216 l 203 211 l 193 173 l 187 173 l 187 178 l 198 216 z m 399 211 l 399 205 l 382 205 l 382 211 z m 529 200 l 529 195 l 518 195 l 518 200 z m 665 200 b 659 184 661 193 659 188 l 654 184 l 654 200 z m 138 195 l 138 189 b 122 146 127 165 122 151 l 117 146 l 117 151 b 133 195 127 172 133 186 z m 236 195 l 236 178 l 225 178 b 231 195 229 186 231 191 z m 486 189 b 507 195 494 189 501 191 l 513 195 l 513 189 b 496 184 509 189 503 187 l 486 184 z m 399 178 b 410 189 399 184 402 189 l 415 189 b 404 178 415 182 412 178 z m 442 189 l 442 184 l 431 184 l 431 189 z m 572 157 b 594 184 579 174 587 182 l 589 157 z m 399 173 l 399 168 b 366 162 382 168 372 165 l 366 173 z m 399 162 b 415 168 402 162 408 164 l 431 168 l 431 162 b 404 157 419 162 410 160 l 399 157 z m 312 86 b 334 97 326 86 334 90 b 513 157 431 127 490 147 l 513 146 l 502 130 l 502 102 b 469 86 480 99 469 94 l 486 86 l 486 75 b 285 -1 456 61 389 35 l 279 -1 b 437 70 279 19 332 42 l 437 81 l 426 81 l 426 86 b 491 119 454 108 475 119 l 491 130 b 334 81 435 130 382 113 l 312 81 z m 562 119 b 578 146 566 137 572 146 l 583 146 b 567 119 581 127 575 119 z m 545 86 b 562 108 551 100 556 108 l 572 108 l 572 102 b 556 86 566 92 561 86 z m 681 102 b 692 92 688 102 692 99 l 681 92 z m 719 92 l 719 86 b 713 70 715 79 713 74 l 708 70 l 708 75 b 713 92 711 83 713 88 z m 534 54 b 556 75 543 68 550 75 b 534 43 556 57 549 46 z m 578 75 b 572 59 574 68 572 63 l 562 59 b 567 75 565 66 567 72 z m 708 64 l 708 54 l 703 54 l 703 64 z m 301 43 b 317 48 304 43 310 45 l 323 48 l 323 43 b 307 37 319 43 313 41 l 301 37 z m 372 16 b 475 43 433 34 467 43 l 475 37 b 382 10 475 30 444 21 l 372 10 z m 334 -1 b 361 10 340 -1 349 3 l 366 10 l 366 5 b 339 -6 360 5 351 1 l 334 -6 z m 654 5 l 654 -1 b 637 -28 651 -19 646 -28 l 648 5 z m 296 -22 b 323 -6 296 -16 304 -11 l 328 -6 b 307 -22 328 -12 321 -17 z m 534 -17 l 534 -28 l 529 -28 l 529 -17 z m 605 -60 l 605 -66 b 589 -98 602 -87 596 -98 b 600 -60 589 -96 592 -83 z m 627 -60 l 627 -77 l 621 -77 l 621 -60 z m 442 -239 l 442 -245 b 502 -93 463 -213 482 -162 l 502 -87 l 491 -87 z m 513 -125 b 496 -174 513 -127 507 -144 l 502 -174 b 524 -125 509 -174 516 -158 z m 594 -131 l 594 -142 l 589 -142 l 589 -131 z m 486 -196 b 475 -245 478 -220 475 -236 l 486 -245 b 496 -196 493 -221 496 -205 z m 534 -212 l 534 -223 l 529 -223 l 529 -212 z m 605 -218 l 616 -218 l 616 -207 l 605 -207 z m -46 -212 b -100 -342 -59 -224 -77 -267 l -100 -353 b -46 -218 -92 -353 -74 -308 z m 600 -229 b 556 -348 570 -301 556 -340 l 562 -348 b 610 -229 570 -348 587 -308 z m 52 -234 b 35 -250 41 -239 35 -245 l 35 -256 l 41 -256 b 52 -245 48 -256 52 -252 z m 3 -250 l 14 -250 l 14 -245 l 3 -245 z m 122 -256 l 122 -267 l 117 -267 l 117 -256 z m 534 -261 l 534 -272 l 529 -272 l 529 -261 z m 79 -272 l 79 -283 l 73 -283 l 73 -272 z m 24 -277 b 14 -299 24 -283 21 -290 l 19 -310 b 35 -277 26 -310 32 -299 z m 453 -299 l 464 -299 l 464 -283 l 453 -283 z m 540 -294 l 540 -310 l 534 -310 l 534 -294 z m 355 -299 b 290 -456 312 -376 290 -428 l 296 -456 b 355 -310 304 -453 324 -404 z m 62 -321 l 62 -332 l 57 -332 l 57 -321 z m 507 -332 l 507 -342 l 502 -342 l 502 -332 z m 426 -359 b 420 -375 426 -362 424 -368 l 420 -380 l 431 -380 b 437 -364 431 -376 433 -371 l 437 -359 z m 19 -435 l 30 -435 l 30 -429 l 19 -429 z m 355 -456 l 366 -456 l 366 -451 l 355 -451 z "},"I":{"ha":412,"x_min":0,"x_max":0,"o":"m 456 600 b 446 589 450 600 447 596 l 408 594 l 380 589 l 353 594 b 348 583 350 594 348 591 b 277 594 339 583 315 587 b 245 572 260 580 250 572 b 136 214 225 458 189 338 b -119 -393 -34 -181 -119 -384 l -108 -393 b 55 -35 -40 -230 14 -111 l 60 -35 l 60 -41 b 17 -138 34 -105 19 -138 b -75 -355 -26 -252 -57 -324 l -75 -377 l -64 -377 l -64 -372 b 22 -171 -27 -311 2 -244 b 169 176 81 -66 130 50 b 245 355 208 249 233 309 l 250 355 l 250 350 b 207 203 243 310 229 261 l 207 198 l 218 203 b 180 95 218 196 205 160 l 174 95 l 174 100 b 191 155 185 130 191 147 l 191 160 b 93 -117 144 83 111 -9 l 98 -127 l 93 -138 l 93 -144 l 104 -144 b 169 -3 104 -133 125 -86 l 174 -3 l 174 -8 b 131 -111 160 -60 146 -94 b 22 -372 85 -237 50 -323 b 39 -382 22 -379 28 -382 b 6 -458 17 -406 6 -431 l 6 -464 l 17 -464 l 22 -442 l 33 -448 b 55 -415 39 -448 46 -437 b 44 -366 52 -390 47 -374 b 50 -339 47 -366 50 -357 l 60 -339 l 60 -350 l 71 -350 b 115 -252 91 -285 106 -252 b 66 -366 115 -275 98 -313 l 66 -377 l 77 -377 b 104 -334 77 -364 85 -349 l 109 -334 b 66 -437 98 -376 84 -410 l 66 -448 b 131 -339 72 -447 94 -410 l 142 -345 l 147 -345 l 196 -231 l 191 -231 b 153 -312 184 -231 172 -258 l 147 -312 l 147 -307 l 191 -187 l 196 -187 l 196 -203 l 207 -203 b 299 -8 218 -155 248 -90 b 451 366 321 67 372 192 b 484 556 460 471 471 534 b 456 600 484 575 475 589 z m 229 388 l 229 377 l 223 377 l 223 388 z m 223 372 l 223 366 b 196 290 205 321 196 296 l 191 290 l 191 296 b 218 372 209 339 218 364 z m 277 366 l 277 355 l 267 323 l 261 323 l 261 328 b 272 366 269 342 272 355 z m 115 111 b 153 187 132 162 144 187 b 120 106 153 182 142 155 l 115 106 z m 321 187 l 321 182 b 315 165 317 175 315 170 l 310 165 l 310 171 b 315 187 313 178 315 184 z m 250 182 l 250 176 b 207 68 250 170 236 134 l 201 68 l 201 73 l 245 182 z m 283 111 l 283 100 l 277 100 l 277 111 z m 294 100 l 294 90 l 288 90 l 288 100 z m 272 84 l 272 79 b 250 30 263 46 256 30 l 245 30 b 267 84 259 62 267 79 z m 77 8 l 77 -3 l 71 -3 l 71 8 z m 71 -8 l 71 -19 l 66 -19 l 66 -8 z m 223 -52 b 207 -90 212 -73 207 -86 l 201 -90 l 201 -84 b 212 -52 209 -73 212 -62 z m 82 -84 b 71 -106 82 -90 79 -97 l 71 -122 l 82 -122 b 93 -84 82 -120 85 -107 z m 174 -117 l 174 -127 l 169 -127 l 169 -117 z m 71 -182 l 77 -193 b 87 -182 84 -193 87 -189 l 87 -171 z m 77 -198 b 55 -247 62 -203 55 -219 l 66 -247 b 77 -203 66 -243 69 -229 z m 12 -258 l 22 -258 l 28 -231 l 17 -231 z m 28 -307 b 6 -350 18 -309 11 -323 l 17 -350 l 28 -312 z m -21 -334 l -16 -334 l -16 -323 l -21 -323 z m 44 -410 l 44 -415 b 39 -431 41 -422 39 -427 l 33 -431 l 33 -426 b 39 -410 37 -418 39 -413 z "},"J":{"ha":752,"x_min":0,"x_max":0,"o":"m 795 640 b 703 629 775 640 745 636 l 703 618 l 724 618 l 724 612 b 681 602 721 612 707 609 l 675 602 l 681 612 l 681 618 l 665 618 b 556 607 629 618 592 614 b 155 531 340 556 205 531 b 117 536 144 531 131 533 b 35 504 62 526 35 515 l 35 493 b 57 471 44 479 52 471 l 52 444 b 68 428 58 433 63 428 l 68 412 b 106 336 87 361 100 336 l 100 325 b 165 298 100 313 122 304 b 491 357 268 309 376 328 l 496 357 l 448 233 l 442 233 l 442 238 b 453 281 450 251 453 266 l 442 281 b 404 168 442 260 429 222 l 404 162 l 415 162 l 420 184 l 426 184 l 426 178 b 415 135 418 160 415 146 l 410 135 l 410 146 l 393 146 b 377 113 390 125 385 115 b 285 -125 355 18 325 -62 b 241 -239 261 -201 247 -239 b 144 10 223 -172 191 -90 l 133 10 b 176 -131 136 -15 151 -62 l 176 -136 l 171 -136 b 73 86 117 7 85 81 l 73 81 b 220 -299 163 -161 212 -288 l 220 -315 l 209 -315 b 127 -120 165 -225 138 -160 l 122 -120 l 111 -125 l 111 -120 b 57 -28 87 -105 70 -75 l 46 -28 b 90 -163 54 -58 68 -104 l 90 -169 l 84 -169 b 73 -147 84 -155 81 -147 b -3 32 39 -61 14 -1 l -14 26 l -19 26 b -46 81 -19 53 -28 71 l -52 81 b -41 48 -44 65 -41 54 l -46 48 b -41 21 -46 35 -44 26 l -30 26 l -24 -1 b -35 -28 -32 -1 -35 -9 b -68 32 -45 -28 -56 -8 l -79 32 b -57 -44 -71 -2 -64 -27 l -57 -50 l -73 -39 b -52 -109 -73 -47 -66 -71 l -41 -109 b -46 -87 -41 -101 -43 -94 l -46 -82 l -41 -82 b -24 -115 -41 -90 -35 -100 l -24 -120 b -41 -125 -28 -120 -33 -122 b 52 -359 -19 -217 12 -295 b 144 -592 98 -514 129 -592 l 155 -592 b 220 -581 173 -592 195 -589 b 231 -592 220 -589 223 -592 l 241 -592 l 252 -587 b 285 -608 262 -596 273 -604 l 296 -603 l 323 -608 b 513 -180 380 -533 443 -390 b 665 243 595 31 646 172 l 654 243 b 562 5 626 138 595 58 l 556 5 l 556 10 b 583 86 556 33 565 58 b 665 303 625 208 652 281 l 665 330 l 654 330 b 448 -212 545 36 477 -145 b 377 -391 416 -316 393 -376 b 453 -174 422 -248 447 -176 b 534 54 489 -50 516 26 l 534 64 l 529 64 l 513 54 l 507 86 l 496 86 l 464 -6 l 458 -6 b 453 21 458 6 456 15 b 480 70 467 54 477 70 b 567 325 517 194 546 279 b 562 347 567 333 565 340 b 800 417 562 374 641 397 l 806 417 l 806 428 l 800 428 b 659 412 774 428 726 422 b 675 428 659 414 665 420 b 909 466 796 442 874 455 l 909 477 l 876 477 b 616 433 724 448 637 433 l 583 433 b 355 379 479 397 404 379 l 345 379 l 345 385 l 361 385 b 654 455 528 431 626 455 l 654 466 l 637 466 l 637 471 l 648 471 b 768 509 671 488 710 501 l 768 520 b 480 466 738 520 642 502 l 453 466 l 453 471 b 670 520 513 479 585 495 b 952 591 825 549 920 572 l 952 602 l 773 574 l 762 574 l 762 580 b 784 602 770 580 777 587 b 887 634 852 617 887 628 l 887 640 l 882 640 b 773 618 834 625 798 618 l 741 618 l 741 623 l 795 629 z m 871 596 l 909 596 l 909 607 l 871 607 z m 616 596 l 616 591 l 605 591 l 605 596 z m 784 596 l 784 585 l 849 591 l 849 602 l 838 602 z m 513 574 l 513 569 l 496 569 l 496 574 z m 648 574 l 648 569 l 632 569 l 632 574 z m 686 574 l 686 569 l 675 569 l 675 574 z m 860 574 l 860 569 l 833 569 l 833 574 z m 610 564 l 610 558 b 578 547 600 558 589 555 l 572 547 b 578 564 576 555 578 560 z m 648 553 l 648 547 l 632 547 l 632 553 z m 534 547 b 524 536 534 540 531 536 l 524 547 z m 627 547 l 627 542 l 610 542 l 610 547 z m 372 509 b 382 520 372 515 375 519 l 388 520 b 377 509 388 513 385 509 z m 784 488 b 670 471 724 477 686 471 l 670 460 b 784 477 690 460 728 466 z m 410 460 b 426 466 414 460 419 463 l 448 466 l 448 460 b 410 455 437 460 424 458 z m 556 455 b 572 460 560 455 566 457 l 583 460 l 583 455 b 562 450 575 455 568 453 l 556 450 z m 920 450 l 920 439 b 952 444 939 442 949 444 l 952 455 l 947 455 z m 898 433 l 909 433 l 909 444 l 898 444 z m 844 439 b 833 428 838 439 834 435 l 833 422 b 887 428 838 422 855 425 l 887 439 z m 415 417 l 415 412 l 399 412 l 399 417 z m 605 401 b 616 412 605 407 608 411 l 616 406 b 605 395 616 399 612 395 z m 307 395 l 307 390 l 285 390 l 285 395 z m 279 390 l 279 385 l 269 385 l 269 390 z m 453 374 b 480 385 459 374 469 377 l 480 379 b 469 368 480 372 477 368 l 453 368 z m 279 368 b 323 379 295 368 310 372 l 339 379 l 339 374 b 301 363 325 374 312 370 l 279 363 z m 404 363 l 404 357 l 393 357 l 393 363 z m 529 352 l 540 352 l 540 363 l 551 363 b 529 309 536 338 529 319 l 524 309 l 524 319 l 518 319 b 486 243 505 319 494 294 l 496 243 l 496 233 b 491 238 493 233 491 235 b 486 233 488 238 486 236 l 475 238 b 513 363 486 281 498 323 z m 339 347 l 339 341 l 317 341 l 317 347 z m 697 352 b 692 336 697 349 695 343 l 692 325 b 708 347 697 325 703 332 l 708 352 z m 269 336 b 285 341 273 336 278 338 l 290 341 l 285 330 l 269 330 z m 545 319 l 545 303 l 540 303 l 540 319 z m 464 309 b 453 298 458 309 454 305 l 464 298 z m 665 265 l 665 260 b 681 292 672 260 677 271 l 670 292 z m 502 260 l 502 249 l 496 249 l 496 260 z m 562 243 b 551 233 555 243 552 240 l 551 227 l 562 227 z m 442 227 l 442 216 l 437 216 l 437 227 z m 491 222 l 491 211 l 486 211 l 486 222 z m 437 211 l 437 200 l 431 200 l 431 211 z m 540 195 b 518 146 532 195 526 178 l 518 135 b 545 184 536 149 545 165 l 545 195 z m 556 162 b 529 86 556 144 547 118 l 529 81 l 534 81 b 567 162 545 81 556 108 z m 95 113 b 122 32 95 99 104 72 l 133 32 b 106 113 133 41 124 68 z m 448 92 l 448 86 b 442 70 444 79 442 74 l 437 70 l 437 75 b 442 92 440 83 442 88 z m 415 48 b 404 10 408 37 404 24 l 393 16 b 404 48 401 31 404 42 z m -8 16 l -8 5 l -14 5 l -14 16 z m 79 -22 b 100 -71 85 -55 92 -71 l 100 -66 b 90 -22 100 -62 97 -48 z m 382 -50 b 372 -60 382 -57 379 -60 l 372 -50 z m -3 -55 b 8 -66 5 -55 8 -58 l 8 -71 b -3 -60 2 -71 -1 -68 z m 534 -66 l 534 -71 b 486 -207 534 -77 518 -123 l 480 -207 l 480 -201 b 529 -66 488 -176 504 -132 z m 366 -87 l 366 -98 l 361 -98 l 361 -87 z m 426 -93 l 426 -104 l 420 -104 l 420 -93 z m 361 -104 l 361 -115 l 355 -115 l 355 -104 z m 420 -109 l 420 -115 b 382 -201 404 -172 391 -201 b 415 -109 382 -192 393 -161 z m 448 -131 l 448 -136 b 420 -234 440 -155 431 -187 l 415 -234 l 415 -229 b 442 -131 415 -220 424 -187 z m 35 -136 b 41 -153 35 -140 37 -145 l 41 -158 l 35 -158 b 30 -142 35 -154 33 -149 l 30 -136 z m 182 -142 l 182 -153 l 176 -153 l 176 -142 z m -8 -158 l -8 -169 l -14 -169 l -14 -158 z m 30 -169 b 35 -185 30 -172 32 -178 l 35 -191 l 30 -191 b 24 -174 30 -186 28 -181 l 24 -169 z m 198 -180 b 220 -229 198 -186 205 -202 l 220 -239 l 214 -239 b 193 -185 214 -231 207 -213 l 193 -180 z m 100 -185 l 100 -196 l 95 -196 l 95 -185 z m 52 -218 l 52 -229 l 46 -229 l 46 -218 z m 57 -250 b 73 -272 62 -250 68 -258 l 73 -277 l 68 -277 b 57 -256 68 -271 64 -264 z m 133 -261 b 144 -288 133 -267 136 -277 l 144 -294 l 133 -294 l 127 -267 l 127 -261 z m 176 -277 b 187 -288 184 -277 187 -281 l 187 -294 b 176 -283 181 -294 178 -290 z m 453 -294 l 453 -299 l 420 -380 l 415 -380 l 415 -375 b 448 -294 437 -328 448 -300 z m 377 -342 l 377 -348 b 361 -391 366 -366 361 -380 l 355 -391 l 355 -380 b 372 -342 366 -362 372 -350 z "},"K":{"ha":864,"x_min":0,"x_max":0,"o":"m 377 642 l 377 631 b 339 550 361 631 349 604 b 209 214 339 467 296 355 b 106 45 170 111 136 55 b 117 2 106 30 109 15 l 111 2 l 19 -204 l 19 -210 l 35 -210 l 35 -199 b 117 -36 79 -136 106 -81 l 122 -36 l 122 -41 b 117 -58 122 -45 120 -50 b 24 -269 55 -190 24 -260 b -79 -535 -16 -353 -51 -442 l -79 -541 l -68 -541 b 149 -31 -10 -388 62 -218 l 160 -31 b 144 -90 149 -58 144 -77 l 144 -96 b 160 -68 152 -96 157 -87 l 165 -68 l 165 -74 l 106 -182 b 127 -210 111 -199 118 -208 b 182 -112 144 -168 162 -135 l 19 -519 l 24 -551 b -3 -649 10 -587 1 -620 l 8 -649 b 35 -551 16 -608 24 -575 l 30 -541 l 41 -535 b 35 -530 41 -532 39 -530 b 41 -513 39 -522 41 -517 b 111 -367 87 -431 111 -382 l 117 -367 l 117 -372 b 100 -421 106 -399 100 -415 l 111 -421 l 111 -410 l 117 -410 l 117 -416 b 62 -513 81 -463 62 -496 l 73 -513 b 100 -465 83 -481 92 -465 l 95 -503 l 95 -508 b 193 -291 119 -479 152 -407 l 198 -291 l 198 -313 b 279 -144 252 -218 279 -163 l 366 -258 b 458 -389 416 -338 446 -381 b 420 -302 458 -378 446 -349 b 589 -530 510 -416 566 -492 b 600 -519 596 -530 600 -526 b 480 -351 562 -460 522 -404 b 328 -123 388 -206 337 -130 l 328 -117 l 372 -155 b 486 -323 437 -262 475 -319 l 486 -307 b 583 -405 495 -307 528 -340 b 562 -361 583 -396 576 -382 l 562 -356 b 692 -481 608 -416 652 -458 l 697 -481 l 697 -470 b 637 -421 696 -463 676 -446 l 637 -416 l 648 -421 b 627 -378 644 -392 636 -378 l 627 -372 b 665 -427 634 -372 647 -391 l 675 -421 b 637 -372 665 -389 652 -372 l 637 -361 b 713 -432 647 -361 672 -385 b 686 -378 713 -419 705 -401 l 686 -372 l 697 -372 l 697 -367 b 670 -329 684 -342 675 -329 l 480 -36 b 637 89 522 -9 574 32 b 854 246 764 170 836 222 b 692 143 799 220 745 185 l 686 143 l 762 214 b 925 322 844 263 899 300 l 920 333 b 453 7 804 257 648 149 l 448 7 l 458 24 b 545 94 515 55 543 79 b 686 197 624 148 671 182 l 686 203 b 681 197 683 203 681 201 l 670 197 l 670 203 b 703 224 677 203 688 210 l 697 235 b 773 300 748 275 773 297 l 773 306 l 665 230 l 654 230 b 703 279 654 234 670 250 b 892 436 778 319 841 372 b 871 431 884 436 877 434 l 860 436 b 746 366 802 403 764 380 l 746 371 b 844 458 805 416 838 446 l 844 463 l 757 414 l 757 420 b 675 371 739 420 711 404 b 697 376 684 371 691 373 l 703 376 l 659 338 b 648 349 653 338 650 342 b 464 224 578 308 517 266 l 540 387 b 589 626 555 488 572 567 b 572 648 583 640 578 648 l 496 648 l 469 653 b 442 642 469 646 460 642 l 410 642 b 377 653 399 642 389 646 l 372 653 z m 328 414 l 328 404 l 323 404 l 323 414 z m 372 387 l 372 376 b 350 322 357 343 350 325 l 345 322 l 345 328 b 366 387 359 357 366 376 z m 811 382 b 827 387 815 382 821 384 l 822 376 l 811 376 z m 345 376 l 345 371 b 317 306 345 368 336 347 l 312 306 l 312 311 b 339 376 330 345 339 366 z m 307 366 l 307 355 b 279 290 288 321 279 300 l 274 290 l 274 295 b 301 366 292 336 301 359 z m 762 360 l 762 355 b 746 344 751 355 746 351 l 741 344 l 751 360 z m 854 360 b 844 349 848 360 845 357 l 844 344 b 854 355 851 344 854 347 z m 806 328 b 795 317 800 328 796 324 l 806 317 z m 621 317 l 621 311 l 610 311 l 610 317 z m 958 322 b 860 252 893 281 861 258 b 963 317 890 255 924 277 l 963 322 z m 610 268 l 610 262 b 594 252 600 262 594 259 l 578 252 l 578 257 b 594 268 589 257 594 260 z m 746 252 b 724 230 732 243 724 236 l 735 230 b 751 246 746 236 751 241 l 751 252 z m 279 230 l 279 224 b 236 132 250 170 236 138 l 231 132 l 231 138 b 274 230 231 144 245 175 z m 529 208 b 518 197 529 201 526 197 l 518 214 z m 534 192 b 545 203 534 198 538 202 l 545 192 z m 214 165 l 214 159 b 176 78 214 157 201 130 l 171 78 l 171 83 b 209 165 196 130 209 157 z m 469 94 b 567 165 475 111 508 134 l 572 165 b 475 94 568 157 535 133 z m 567 127 l 567 121 b 486 56 557 121 530 100 l 480 56 b 556 127 481 62 507 85 z m 632 111 b 665 127 637 111 648 116 l 665 116 b 643 105 650 116 643 113 l 632 105 z m 225 116 l 225 111 b 214 100 225 103 222 100 l 214 116 z m 616 94 l 616 89 b 551 40 589 77 568 61 l 545 40 b 605 94 545 45 565 64 z m 410 -128 b 534 -318 428 -145 469 -209 l 529 -318 l 404 -128 z m 366 -134 b 377 -144 374 -134 377 -137 l 377 -150 b 366 -139 371 -150 368 -146 z m 214 -172 b 236 -139 223 -150 230 -139 b 220 -177 236 -144 231 -156 l 214 -177 z m 312 -139 l 312 -150 l 307 -150 l 307 -139 z m 507 -161 l 507 -172 b 496 -161 501 -172 498 -168 z m 355 -193 b 366 -220 355 -199 359 -209 l 350 -210 l 350 -193 z m 241 -199 l 241 -210 l 236 -210 l 236 -199 z m 551 -220 b 556 -237 551 -224 553 -229 l 556 -248 l 551 -248 b 540 -226 551 -241 547 -235 l 540 -220 z m 84 -226 b 73 -237 78 -226 75 -229 l 73 -248 l 84 -248 b 90 -231 84 -243 86 -238 l 90 -226 z m -57 -383 l -57 -394 b 19 -231 -11 -312 14 -258 l 8 -231 z m 176 -258 l 176 -269 l 171 -269 l 171 -258 z m 95 -275 b 79 -296 90 -275 84 -282 l 79 -302 l 90 -302 b 95 -286 90 -298 92 -292 z m 621 -286 b 654 -329 633 -290 644 -305 b 616 -286 651 -329 638 -315 z m 68 -318 b 52 -361 68 -329 62 -343 l 57 -372 b 79 -323 65 -372 73 -356 l 79 -318 z m 35 -323 b 14 -372 35 -332 28 -349 l 14 -383 l 24 -383 b 46 -323 39 -348 46 -328 z m 165 -394 l 165 -399 b 193 -340 174 -399 184 -380 l 182 -340 z m 502 -351 b 513 -372 509 -359 513 -366 l 524 -372 l 524 -367 b 502 -345 515 -353 508 -345 z m 529 -383 b 562 -427 529 -397 540 -412 l 562 -421 b 529 -383 545 -396 534 -383 z m 14 -389 b 3 -399 7 -389 4 -392 l 3 -410 b 14 -399 10 -410 14 -407 z m 464 -394 b 540 -503 464 -420 489 -456 b 464 -394 540 -479 515 -444 z m -62 -410 b -100 -503 -71 -410 -83 -441 l -90 -503 b -62 -416 -90 -494 -81 -465 z m 160 -416 b 127 -465 155 -416 144 -432 l 127 -475 l 138 -475 b 160 -427 138 -469 146 -453 z m 654 -432 l 665 -432 l 665 -427 l 654 -427 z m 605 -443 b 627 -465 614 -457 621 -465 l 627 -459 b 605 -437 618 -445 611 -437 z m 686 -448 b 703 -465 692 -459 698 -465 l 708 -465 l 708 -459 b 692 -443 703 -448 697 -443 l 686 -443 z m 14 -459 b -3 -492 14 -467 8 -477 l -3 -503 l 3 -503 b 24 -459 10 -503 17 -488 z m 562 -535 b 578 -551 568 -546 573 -551 l 578 -541 b 562 -524 572 -530 567 -524 z m -46 -541 l -41 -541 l -41 -530 l -46 -530 z m -106 -535 b -122 -568 -115 -535 -120 -546 l -122 -573 l -111 -573 l -106 -546 z m 52 -551 b 24 -616 43 -551 35 -573 l 35 -616 l 52 -557 z m 62 -595 b 52 -606 56 -595 53 -598 l 52 -616 l 57 -616 b 68 -606 64 -616 68 -613 l 68 -595 z "},"L":{"ha":629,"x_min":0,"x_max":0,"o":"m 556 644 b 464 633 524 644 493 641 l 453 639 b 431 633 447 635 439 633 l 393 639 l 388 628 l 361 633 l 355 633 l 345 628 b 290 422 337 612 319 544 b 149 47 282 380 235 256 b 8 -305 55 -177 8 -295 l 8 -311 l 14 -311 l 111 -99 l 117 -99 l 117 -104 b 46 -294 117 -124 93 -188 l 46 -305 b 231 118 113 -186 174 -45 b 328 368 231 128 263 212 l 334 368 l 334 357 l 149 -137 l 160 -137 l 165 -115 l 171 -115 l 171 -121 b 149 -170 171 -123 163 -140 b 160 -180 149 -177 153 -180 b 155 -197 160 -184 158 -189 l 155 -202 l 165 -202 l 225 -61 l 231 -61 l 231 -66 b 176 -202 223 -115 205 -159 b 106 -349 149 -300 125 -349 b 100 -343 106 -345 104 -343 b 19 -403 93 -353 66 -373 b 41 -332 19 -387 26 -363 l 41 -321 b -24 -414 13 -374 -9 -405 l -30 -414 l -19 -392 l -19 -387 l -24 -387 b -165 -468 -48 -416 -96 -444 b -84 -593 -165 -498 -138 -540 b -46 -663 -75 -616 -62 -640 b 62 -631 -24 -653 13 -642 b 420 -463 75 -631 194 -574 l 420 -452 l 410 -452 b 345 -479 389 -452 367 -460 l 339 -479 l 361 -457 b 594 -359 421 -428 499 -395 l 589 -349 b 437 -397 553 -356 503 -372 b 149 -533 290 -471 194 -517 b 171 -506 149 -531 157 -522 b 372 -408 286 -457 352 -425 l 372 -403 b 366 -408 368 -403 366 -405 l 355 -408 l 355 -403 b 382 -387 361 -403 371 -397 l 377 -376 b 431 -349 413 -366 431 -357 l 420 -349 b 355 -370 412 -349 391 -356 l 350 -370 l 350 -365 b 540 -278 403 -336 466 -307 l 540 -267 l 529 -267 l 529 -262 b 589 -235 553 -262 573 -253 l 589 -229 l 578 -235 l 572 -235 b 562 -224 566 -235 563 -231 b 458 -251 528 -238 493 -248 l 458 -245 b 540 -202 513 -226 540 -212 l 540 -197 l 453 -224 l 448 -224 l 448 -218 l 458 -218 l 458 -208 b 388 -240 413 -220 389 -231 l 404 -240 l 404 -245 b 361 -267 397 -245 382 -253 b 350 -256 361 -261 357 -257 b 263 -289 326 -256 296 -267 l 258 -289 b 263 -273 258 -285 260 -279 b 339 -83 306 -180 331 -116 b 524 362 418 96 480 243 l 578 606 b 556 644 578 615 570 628 z m 361 373 l 361 368 b 350 330 353 353 350 340 l 345 330 l 345 335 l 355 373 z m 296 351 l 296 340 b 263 264 296 335 285 310 l 258 264 l 258 270 b 290 351 279 316 290 343 z m 285 178 l 285 161 l 279 161 l 279 178 z m 323 167 l 323 156 l 317 156 l 317 167 z m 388 167 l 388 156 l 382 156 l 382 167 z m 220 161 l 220 156 b 149 -28 209 121 185 60 l 144 -28 l 144 -23 l 214 161 z m 263 31 b 317 151 285 103 303 143 b 269 26 317 136 301 95 l 263 26 z m 274 140 l 274 129 l 269 129 l 269 140 z m 269 123 l 269 118 b 258 85 261 102 258 92 l 252 85 l 252 91 b 263 123 260 106 263 117 z m 399 113 l 399 102 l 393 102 l 393 113 z m 252 80 l 252 75 l 187 -72 l 182 -72 l 182 -66 b 247 80 214 1 236 50 z m 334 42 l 334 31 l 328 31 l 328 42 z m 323 -7 l 323 -18 l 317 -18 l 317 -7 z m 350 -12 l 350 -23 l 345 -23 l 345 -12 z m 307 -28 l 307 -45 l 296 -45 b 301 -28 299 -37 301 -32 z m 345 -28 l 345 -39 l 339 -39 l 339 -28 z m 133 -56 l 133 -66 l 127 -66 l 127 -56 z m 279 -104 l 279 -110 l 269 -148 l 263 -148 l 263 -142 b 274 -104 263 -140 267 -127 z m 144 -159 b 133 -170 138 -159 134 -162 l 133 -175 l 144 -175 b 149 -159 144 -171 146 -165 z m 236 -170 l 236 -175 b 231 -191 233 -182 231 -187 l 225 -191 l 225 -186 b 231 -170 229 -178 231 -173 z m 252 -186 l 252 -197 l 247 -197 l 247 -186 z m 225 -197 l 225 -208 l 220 -208 l 220 -197 z m 111 -235 l 111 -240 b 133 -197 119 -240 125 -226 l 122 -197 z m 562 -235 l 562 -240 l 551 -240 l 551 -235 z m 214 -256 l 214 -267 l 209 -267 l 209 -256 z m 458 -256 l 458 -262 l 448 -262 l 448 -256 z m 106 -262 b 90 -283 100 -262 95 -269 l 90 -294 b 106 -273 95 -294 100 -287 z m 252 -267 b 241 -294 245 -279 241 -288 l 236 -294 l 236 -289 l 241 -267 z m 496 -273 b 513 -267 500 -273 506 -271 l 518 -267 l 513 -278 l 496 -278 z m 100 -332 l 106 -332 b 138 -267 116 -332 127 -311 l 127 -267 z m 437 -283 l 437 -289 l 426 -289 l 426 -283 z m 377 -294 l 377 -300 l 366 -300 l 366 -294 z m 90 -294 b 62 -332 83 -294 75 -307 l 62 -343 b 90 -305 71 -341 80 -328 z m 518 -316 l 529 -316 l 529 -305 l 518 -305 z m 307 -316 l 323 -316 l 323 -321 b 285 -332 312 -321 299 -325 l 279 -321 z m 355 -316 l 355 -321 l 345 -321 l 345 -316 z m 458 -327 b 431 -349 441 -336 432 -344 b 469 -338 442 -349 455 -345 b 458 -327 469 -332 466 -328 z m 241 -343 b 252 -354 249 -343 252 -347 b 236 -359 249 -354 243 -356 l 236 -354 z m 534 -338 b 524 -349 528 -338 525 -341 l 540 -349 l 540 -338 z m 252 -365 l 252 -370 l 241 -370 l 241 -365 z m 345 -370 l 345 -376 b 312 -387 338 -376 327 -379 l 307 -387 l 323 -365 z m 480 -359 b 393 -397 422 -376 393 -389 l 404 -397 b 486 -359 453 -385 480 -372 z m 610 -376 b 458 -430 594 -376 543 -394 l 458 -441 b 621 -376 553 -416 607 -394 z m 187 -441 b 231 -419 192 -441 206 -433 l 236 -419 l 236 -425 b 198 -446 211 -432 198 -439 l 187 -446 z m 182 -490 b 252 -446 182 -482 205 -468 l 258 -446 l 258 -452 b 182 -490 223 -465 197 -477 z m 231 -528 b 290 -495 238 -515 258 -504 l 296 -495 l 296 -500 b 236 -528 283 -500 264 -509 z m 127 -571 b 144 -566 132 -571 137 -569 l 149 -566 l 149 -571 b 133 -576 146 -571 140 -573 l 127 -576 z "},"M":{"ha":1218,"x_min":0,"x_max":0,"o":"m 440 612 b 391 595 431 601 414 595 b 250 530 339 558 292 536 b 256 514 250 527 252 522 b 223 449 242 471 231 449 l 125 221 b -81 -273 125 188 57 23 l -81 -278 l -75 -278 b 6 -132 -35 -188 -8 -139 b -102 -403 -66 -307 -102 -397 l -102 -419 l -48 -321 b 98 -7 -7 -208 41 -103 b 196 243 145 140 178 224 b 115 -1 167 140 140 59 l 115 -12 b 125 4 122 -12 125 -7 l 131 4 l 131 -1 b 44 -186 102 -75 73 -136 l 55 -191 b 44 -229 47 -214 44 -227 l 44 -235 b 104 -126 50 -235 71 -199 l 109 -126 l 109 -137 l -16 -414 b -10 -452 -16 -425 -14 -437 b -32 -511 -24 -481 -32 -500 l -32 -517 l -21 -517 b 6 -430 -21 -508 -12 -479 l 1 -419 b 12 -403 5 -408 9 -403 b 60 -321 19 -403 35 -376 l 66 -321 l 66 -327 b 28 -408 55 -359 42 -387 l 28 -425 b 60 -387 31 -425 42 -412 l 66 -387 l 39 -452 l 39 -463 b 98 -354 79 -405 98 -368 l 104 -354 l 104 -359 b 82 -414 90 -385 82 -403 l 82 -419 b 131 -321 115 -372 131 -340 l 131 -316 l 120 -316 l 115 -338 l 109 -338 l 109 -332 l 131 -278 l 136 -278 l 136 -289 l 142 -289 b 180 -235 147 -289 160 -271 b 261 -56 205 -163 232 -104 l 267 -56 l 267 -126 l 277 -126 b 283 -7 277 -101 279 -61 l 288 -7 b 294 -126 292 -61 294 -101 l 294 -229 l 288 -267 b 277 -256 282 -267 278 -264 l 277 -208 l 267 -208 l 267 -235 b 223 -354 267 -283 252 -323 l 223 -376 l 234 -392 b 315 -435 288 -413 315 -427 b 397 -479 346 -443 373 -458 l 402 -479 b 435 -446 402 -468 413 -457 b 679 -132 513 -338 595 -233 b 869 69 806 -2 869 65 l 880 69 b 825 -121 869 43 850 -20 l 825 -126 b 847 -88 833 -126 840 -113 l 852 -88 l 852 -94 l 847 -121 b 771 -370 796 -275 771 -357 l 782 -370 b 896 -56 807 -283 845 -178 b 966 151 929 77 952 145 l 956 113 l 966 113 l 983 167 l 988 167 l 988 161 l 950 26 l 945 26 l 945 31 l 950 64 l 939 64 b 896 -88 910 -34 896 -85 l 907 -88 l 907 -99 l 912 -137 l 923 -137 b 945 -72 937 -98 945 -77 l 950 -72 l 950 -77 b 869 -349 950 -90 923 -180 l 869 -381 b 852 -408 859 -381 854 -390 b 858 -425 856 -415 858 -420 l 852 -452 l 863 -452 l 874 -414 l 885 -419 l 890 -419 l 890 -414 b 885 -392 890 -406 888 -398 b 907 -321 899 -355 907 -332 l 912 -321 l 912 -343 l 923 -343 l 928 -311 l 939 -311 l 907 -419 l 912 -419 b 966 -289 926 -412 944 -368 l 972 -289 l 972 -294 l 961 -327 l 966 -327 b 1004 -229 991 -291 1004 -258 l 994 -229 b 977 -283 994 -231 988 -249 l 972 -283 l 972 -278 b 999 -180 990 -229 999 -196 l 1004 -180 l 1004 -213 l 1015 -213 b 1140 145 1045 -108 1086 12 b 1227 389 1172 295 1201 376 l 1227 395 l 1221 395 l 1200 378 b 1243 547 1221 450 1236 505 b 1227 563 1237 557 1232 563 l 1173 563 b 1124 552 1164 563 1147 559 l 1124 568 b 1048 547 1088 561 1063 554 l 1048 557 b 966 454 1021 557 994 523 l 977 454 l 977 449 b 847 319 977 443 934 399 b 831 335 836 325 831 330 b 673 189 765 292 713 243 b 489 -18 553 60 492 -8 l 478 -18 b 494 270 489 87 494 184 b 456 612 481 498 469 612 z m 961 454 b 885 384 919 421 894 398 l 885 378 b 966 449 906 378 933 402 l 966 454 z m 614 -34 b 782 151 688 36 744 98 b 939 297 822 178 874 227 b 918 254 939 280 932 266 b 603 -61 799 153 694 47 l 597 -61 l 597 -56 z m 809 227 b 842 259 825 248 836 259 l 842 254 l 814 227 z m 446 254 l 446 232 l 440 232 l 440 254 z m 804 254 l 798 243 l 793 243 l 798 254 z m 163 248 l 163 237 b 142 172 163 231 156 209 l 136 172 l 136 178 b 158 248 151 216 158 239 z m 880 199 b 928 248 907 232 924 248 b 890 189 928 229 916 210 b 880 199 884 189 880 192 z m 218 232 l 218 221 l 212 221 l 212 232 z m 733 183 b 777 221 733 188 747 200 l 782 221 b 739 183 782 216 768 203 z m 386 205 l 386 199 b 380 140 382 168 380 147 l 375 140 l 375 178 l 380 205 z m 983 199 b 961 167 974 178 967 167 l 972 199 z m 912 189 l 912 178 b 852 118 884 138 864 118 b 516 -256 675 -65 563 -190 l 516 -251 b 565 -180 549 -208 565 -185 b 858 134 736 22 834 127 b 852 151 858 138 856 144 b 880 183 857 165 867 176 l 880 172 l 890 172 z m 1091 167 l 1091 156 l 1086 156 l 1086 167 z m 435 156 l 435 140 l 429 140 l 429 156 z m 673 156 l 663 140 l 657 140 l 668 156 z m 679 129 b 711 145 684 129 694 134 l 711 140 b 690 113 702 122 694 113 l 679 113 z m 928 140 l 928 134 l 918 134 l 918 140 z m 1021 140 l 1021 134 l 994 47 l 988 47 l 988 53 b 1015 140 991 73 1001 101 z m 342 129 l 348 102 l 342 53 b 332 47 342 50 339 47 l 332 15 l 342 15 l 342 4 l 332 4 l 332 -99 l 342 -99 l 342 -28 l 353 -28 b 359 -45 353 -32 355 -37 l 353 -72 b 359 -132 357 -104 359 -124 l 359 -137 l 370 -137 l 370 85 l 375 85 b 386 -94 375 3 378 -56 b 375 -148 382 -121 378 -139 l 359 -148 b 304 -235 346 -179 328 -208 l 310 -197 l 310 -186 b 337 96 310 2 319 96 l 337 129 z m 896 118 l 896 113 l 885 113 l 885 118 z m 440 113 l 440 102 l 435 102 l 435 113 z m 619 75 b 663 102 623 75 637 83 l 668 102 l 668 96 b 630 69 643 87 630 78 l 619 69 z m 435 96 l 435 85 l 429 85 l 429 96 z m 1064 96 l 1064 85 l 1059 85 l 1059 96 z m 912 91 l 912 85 b 890 15 898 48 890 25 l 885 15 l 885 20 b 907 91 885 26 892 50 z m 950 96 b 945 80 950 93 948 87 l 945 75 l 956 75 b 961 91 956 79 958 84 l 961 96 z m 196 69 l 196 58 l 191 58 l 191 69 z m 679 -104 b 842 69 707 -60 762 -2 l 847 69 b 825 47 847 55 840 47 b 690 -104 741 -31 696 -82 z m 153 58 l 153 47 l 147 47 l 147 58 z m 142 -45 b 191 53 166 20 182 53 b 147 -50 184 26 170 -8 l 142 -50 z m 440 53 l 440 42 l 435 20 l 429 20 l 429 26 b 435 53 433 32 435 41 z m 619 53 b 608 31 612 44 608 37 l 603 31 l 603 37 l 614 53 z m 147 42 l 147 31 l 142 31 l 142 42 z m 988 42 l 988 31 l 983 31 l 983 42 z m 82 37 l 82 31 b 77 15 79 24 77 19 l 71 15 l 71 20 b 77 37 75 28 77 33 z m 603 -110 b 717 20 629 -73 667 -29 l 717 15 b 603 -115 661 -56 623 -100 z m 945 20 l 945 9 l 939 9 l 939 20 z m 1021 9 l 1021 -1 l 1015 -1 l 1015 9 z m 418 -7 l 418 -18 l 413 -18 l 413 -7 z m 874 -12 l 874 -34 l 869 -34 l 869 -12 z m 256 -18 l 256 -28 l 250 -28 l 250 -18 z m 543 -28 l 532 -50 l 527 -50 l 538 -28 z m 201 -56 l 201 -66 l 196 -66 l 196 -56 z m 180 -72 l 180 -83 l 174 -83 l 174 -72 z m 1015 -72 l 1015 -77 l 1010 -99 l 999 -99 b 1010 -72 1006 -87 1010 -78 z m 191 -88 l 191 -99 l 185 -99 l 185 -88 z m 223 -88 l 223 -99 b 218 -115 220 -106 218 -111 l 212 -115 l 212 -110 b 218 -88 216 -104 218 -96 z m 885 -104 b 858 -208 882 -125 872 -160 l 858 -218 b 896 -110 869 -218 882 -182 l 896 -104 z m 326 -153 l 337 -153 l 337 -121 l 326 -121 z m 977 -126 l 977 -137 l 972 -137 l 972 -126 z m 825 -132 b 814 -142 819 -132 815 -135 l 814 -153 b 825 -142 822 -153 825 -150 z m 55 -137 b 33 -175 49 -137 42 -150 l 33 -180 l 44 -180 l 55 -142 z m 1021 -142 l 1021 -153 l 1015 -153 l 1015 -142 z m 163 -148 l 163 -153 b 147 -180 161 -172 155 -180 b 158 -148 147 -178 151 -168 z m 907 -159 l 918 -159 l 918 -148 l 907 -148 z m 267 -175 l 277 -175 l 277 -153 l 267 -153 z m 804 -175 b 744 -354 764 -271 744 -331 l 744 -359 l 755 -359 b 809 -180 755 -345 773 -286 l 809 -175 z m 22 -191 b 6 -229 22 -203 17 -216 l 6 -240 l 17 -240 b 33 -191 28 -214 33 -197 z m 142 -202 l 142 -213 l 136 -213 l 136 -202 z m 896 -197 b 874 -251 888 -197 882 -215 l 874 -256 l 885 -256 l 896 -202 z m 522 -213 b 500 -245 507 -231 500 -242 l 494 -245 b 516 -213 494 -242 502 -231 z m 581 -224 b 532 -283 552 -264 536 -283 l 532 -278 l 576 -224 z m 6 -251 b -10 -267 -5 -256 -10 -262 l -10 -278 b 6 -256 -5 -278 1 -271 z m 934 -256 l 934 -267 b 928 -283 930 -274 928 -279 l 945 -283 b 939 -300 941 -290 939 -296 l 928 -294 l 923 -294 l 923 -305 l 918 -305 l 918 -300 b 928 -256 925 -277 928 -262 z m 28 -273 b 12 -289 17 -278 12 -283 l 12 -305 l 22 -305 l 28 -278 z m 858 -300 l 869 -300 l 874 -273 l 863 -273 z m -26 -311 l -16 -311 l -10 -283 l -21 -283 z m 847 -316 b 842 -332 847 -319 845 -325 l 842 -338 l 847 -338 b 858 -327 854 -338 858 -334 l 858 -316 z m 890 -338 l 890 -354 l 885 -354 l 885 -338 z m -10 -349 l 1 -349 l 1 -338 l -10 -338 z m 66 -359 l 66 -370 l 60 -370 l 60 -359 z m -16 -370 b -32 -387 -26 -376 -32 -381 l -32 -397 l -21 -397 b -16 -376 -21 -389 -19 -382 z m -54 -376 b -64 -387 -60 -376 -64 -379 l -54 -387 z m -140 -425 l -130 -425 l -124 -397 l -135 -397 z m -5 -490 l 6 -490 l 12 -463 l 1 -463 z m 39 -463 b 28 -473 33 -463 28 -466 l 28 -484 l 39 -484 z "},"N":{"ha":922,"x_min":0,"x_max":0,"o":"m 895 762 l 905 762 l 911 789 l 911 795 l 900 795 z m 873 751 b 851 686 859 715 851 694 l 862 686 l 884 751 z m 889 751 b 857 665 889 729 878 700 l 857 654 b 867 632 864 654 867 646 b 889 675 882 641 889 656 l 878 675 b 905 713 878 694 887 706 b 900 751 902 728 900 741 z m 835 724 b 846 735 842 724 846 728 l 846 746 l 835 746 z m 1025 713 b 960 513 981 587 960 520 l 970 513 l 1036 713 z m 987 675 b 949 583 977 675 964 645 l 960 583 b 992 675 981 643 992 673 z m 802 637 b 715 393 745 485 715 404 l 710 393 b 705 410 710 397 708 402 b 683 355 694 410 688 391 l 688 334 b 683 339 685 334 683 336 l 677 339 b 564 62 602 171 564 79 l 558 62 l 553 111 b 558 247 553 147 555 193 l 536 410 b 553 534 547 474 553 515 b 531 589 553 567 545 585 l 520 589 b 509 578 514 589 510 585 b 455 583 505 578 487 580 b 439 572 444 583 439 580 l 401 583 l 390 583 l 374 572 l 363 572 l 352 578 b 347 572 352 574 350 572 l 341 572 b 281 578 326 572 306 574 b 238 551 271 576 256 567 b 184 301 238 502 220 418 b -22 -117 100 141 31 2 l -22 -127 l 37 -52 b -71 -290 -35 -203 -71 -282 l -71 -301 b -39 -258 -68 -301 -58 -287 b 135 79 23 -121 81 -9 b 195 214 159 155 178 201 b 254 350 230 304 250 349 b 37 -144 232 256 159 92 l 37 -149 l 48 -149 b 70 -100 48 -144 56 -128 l 75 -100 l 81 -122 l 92 -122 b 151 -24 125 -57 145 -24 l 151 -46 b -12 -388 56 -228 2 -342 l -6 -399 b -17 -448 -14 -422 -17 -439 l -6 -448 b 21 -388 -6 -424 3 -404 l 16 -361 b 26 -334 23 -349 26 -340 l 32 -334 l 32 -345 l 43 -345 b 92 -247 66 -279 83 -247 b 43 -350 79 -288 62 -322 l 43 -361 l 54 -361 b 75 -307 68 -336 75 -317 l 86 -307 b 64 -382 86 -311 79 -336 l 64 -388 b 102 -328 73 -387 86 -367 l 108 -328 l 108 -345 b 157 -252 119 -345 135 -314 l 151 -252 b 140 -269 144 -252 140 -258 l 135 -269 l 135 -263 b 168 -187 135 -260 146 -234 l 173 -187 l 173 -193 l 168 -214 l 168 -220 l 178 -220 b 205 -149 178 -210 187 -186 b 200 -133 205 -146 203 -140 l 200 -127 l 205 -127 l 205 -138 l 298 14 l 303 14 l 303 -14 l 314 -14 l 314 24 l 319 62 l 325 62 l 330 35 b 341 -448 330 -95 334 -256 l 352 -448 l 352 -111 l 357 -111 b 368 -323 365 -200 368 -271 l 368 -431 b 347 -507 368 -482 361 -507 l 347 -518 b 336 -578 339 -553 336 -573 l 336 -583 l 347 -600 l 379 -594 l 401 -610 l 417 -610 b 428 -600 425 -610 428 -607 b 553 -621 441 -606 483 -613 b 569 -605 553 -610 558 -605 b 905 328 620 -477 732 -166 l 905 339 b 846 214 897 336 876 294 l 840 214 l 840 220 l 851 269 b 954 572 903 399 937 500 l 943 572 b 753 73 943 553 880 386 l 618 -328 l 612 -328 l 612 -323 b 694 -68 627 -257 654 -172 l 694 -57 b 667 -117 675 -73 667 -93 l 661 -117 l 661 -111 b 699 -3 661 -104 674 -68 l 705 -3 l 705 -19 b 764 149 723 3 743 59 l 764 155 b 737 95 756 155 747 135 l 732 95 l 732 100 b 791 252 732 109 751 160 l 802 247 l 808 247 l 813 274 l 802 274 l 808 307 b 797 328 800 315 797 323 b 710 122 781 311 753 242 l 705 122 l 705 127 b 867 621 789 358 844 523 l 867 627 l 851 616 l 857 643 l 846 643 b 791 475 846 618 827 562 l 786 475 l 786 480 b 802 534 797 512 802 530 l 786 534 b 791 551 789 542 791 547 b 813 583 806 557 813 568 l 808 583 b 813 643 808 612 810 632 l 802 643 z m 829 643 b 808 600 829 638 822 624 b 819 583 808 589 811 583 b 840 643 833 616 840 637 z m 889 594 l 900 594 l 900 605 l 889 605 z m 753 562 l 764 562 l 764 572 l 753 572 z m 748 551 b 710 442 748 542 735 505 l 721 442 b 759 551 735 478 748 515 z m 867 551 b 862 534 867 547 865 542 l 862 529 l 873 529 b 878 545 873 532 875 538 l 878 551 z m 949 475 b 960 486 956 475 960 478 l 960 496 l 949 496 z m 846 491 b 829 442 846 489 840 473 l 829 431 b 857 491 838 431 846 451 z m 873 453 l 884 453 l 889 480 l 878 480 z m 857 410 l 867 410 l 873 437 l 862 437 z m 846 393 b 829 334 846 389 840 369 l 840 334 b 857 393 851 372 857 391 z m 732 355 l 732 345 l 726 345 l 726 355 z m 276 350 l 276 339 l 271 317 l 265 317 l 265 323 l 271 350 z m 743 350 l 743 345 l 726 290 l 721 290 l 721 296 b 737 350 732 321 737 339 z m 216 334 l 216 328 b 189 263 216 320 208 298 l 184 263 l 184 269 b 211 334 202 304 211 326 z m 710 323 l 710 312 l 705 312 l 705 323 z m 699 274 l 699 269 b 683 214 688 241 683 222 l 672 220 b 694 274 686 252 694 269 z m 802 269 l 802 258 l 797 258 l 797 269 z m 276 231 l 276 225 l 265 225 l 265 231 z m 840 209 l 840 198 l 835 198 l 835 209 z m 672 193 l 672 182 l 667 182 l 667 193 z m 151 187 l 151 182 l 59 -19 l 54 -19 l 54 -14 b 146 187 54 -5 84 62 z m 205 176 l 205 165 l 200 165 l 200 176 z m 249 176 l 249 165 l 243 165 l 243 176 z m 623 165 l 623 160 l 612 122 l 607 122 l 607 127 b 618 165 614 142 618 155 z m 189 57 b 243 160 212 125 230 160 b 195 52 243 144 227 109 l 189 52 z m 661 160 l 661 155 b 645 111 650 130 645 116 l 640 111 l 640 117 b 656 160 640 124 645 138 z m 184 127 l 184 122 b 173 95 176 111 173 101 l 168 95 l 168 100 b 178 127 175 112 178 121 z m 705 117 l 705 106 l 699 106 l 699 117 z m 385 106 l 385 30 l 379 30 l 379 106 z m 281 100 l 281 95 l 271 95 l 271 100 z m 699 100 l 699 95 b 634 -90 674 11 652 -51 l 623 -90 b 694 100 656 -16 680 48 z m 791 90 l 791 84 b 732 -73 767 -13 747 -65 b 786 90 750 -11 768 43 z m 243 35 l 243 30 b 222 -8 235 5 228 -8 b 238 35 222 -5 227 9 z m 596 24 l 596 14 l 591 14 l 591 24 z m 276 19 l 276 8 l 271 8 l 271 19 z m 710 14 l 710 3 l 705 3 l 705 14 z m 385 -14 b 395 -187 392 -71 395 -130 l 395 -279 l 406 -279 l 406 -176 l 412 -176 b 428 -252 414 -227 420 -252 l 439 -252 b 444 -155 442 -238 444 -205 l 450 -155 l 455 -193 b 450 -269 452 -238 450 -263 l 433 -269 b 406 -334 426 -312 417 -334 l 406 -339 b 390 -420 406 -359 401 -386 l 385 -420 b 379 -193 381 -323 379 -248 l 379 -14 z m 357 -24 l 357 -106 l 352 -106 l 352 -24 z m 205 -57 b 184 -95 198 -82 191 -95 l 195 -57 z m 309 -117 l 319 -117 l 319 -52 l 309 -52 z m 173 -79 l 173 -90 l 168 -90 l 168 -79 z m 574 -100 l 574 -111 l 569 -111 l 569 -100 z m 157 -111 l 157 -117 b 151 -133 153 -124 151 -130 l 146 -133 l 146 -127 b 151 -111 149 -120 151 -115 z m 417 -122 l 417 -155 l 412 -155 l 412 -122 z m 661 -122 l 661 -133 l 656 -133 l 656 -122 z m 64 -165 b 54 -176 58 -165 54 -169 l 54 -187 l 64 -187 z m 699 -182 l 699 -193 l 694 -193 l 694 -182 z m 694 -198 l 694 -203 b 656 -312 669 -266 656 -302 l 650 -312 l 650 -307 b 688 -198 650 -298 663 -262 z m 48 -198 b 32 -231 40 -198 35 -209 l 32 -236 l 43 -236 l 54 -198 z m -60 -203 b -71 -214 -66 -203 -71 -207 l -71 -225 l -60 -225 z m -6 -236 b -17 -247 -12 -236 -16 -239 l -17 -258 l -6 -258 z m -82 -241 b -131 -339 -83 -260 -99 -292 l -131 -350 l -120 -350 b -71 -241 -87 -287 -71 -250 z m 612 -263 l 612 -269 b 591 -334 612 -273 605 -295 l 585 -334 l 585 -328 b 607 -263 600 -293 607 -271 z m 16 -269 b 5 -279 9 -269 5 -272 l 5 -285 l 16 -285 z m 97 -279 l 97 -285 b 86 -296 97 -292 94 -296 l 86 -279 z m -77 -312 b -98 -339 -81 -312 -88 -321 l -98 -355 l -87 -355 b -77 -323 -87 -345 -84 -334 z m 650 -317 l 650 -328 l 645 -328 l 645 -317 z m -12 -323 b -22 -334 -18 -323 -22 -326 l -22 -345 l -12 -345 b -6 -328 -12 -341 -9 -336 l -6 -323 z m -147 -382 l -136 -382 l -136 -372 l -147 -372 z m 59 -399 b 43 -420 54 -399 48 -406 l 43 -426 l 54 -426 b 59 -410 54 -422 56 -417 z m 16 -404 b 5 -426 16 -410 12 -417 l 5 -437 l 16 -437 b 26 -410 16 -431 19 -421 l 26 -404 z "},"O":{"ha":755,"x_min":0,"x_max":0,"o":"m 515 606 b 445 573 482 606 458 595 b 407 589 437 573 425 578 b 391 584 404 589 398 587 b 385 606 387 590 385 597 b 309 568 334 595 309 583 b -27 -127 85 275 -27 43 b 109 -414 -27 -257 18 -353 b 174 -458 152 -425 174 -439 l 168 -469 b 174 -474 172 -469 174 -471 b 239 -463 180 -471 201 -467 l 326 -469 b 570 -306 375 -469 456 -414 b 678 -138 612 -252 648 -197 l 678 -121 l 667 -121 b 548 -290 607 -221 567 -277 l 543 -290 b 765 231 667 -118 741 56 l 754 231 b 515 -279 741 91 661 -79 l 510 -279 l 510 -273 b 640 -73 527 -238 570 -171 b 749 286 709 96 745 215 b 743 291 745 286 743 288 l 732 286 b 689 112 714 182 700 125 b 515 -224 689 71 631 -42 b 581 -78 515 -221 537 -172 b 635 31 616 -12 635 24 l 629 31 b 564 -62 625 31 603 0 b 597 14 572 -29 583 -4 l 597 20 b 586 31 597 26 593 30 l 570 20 b 575 52 570 22 572 33 b 629 291 611 134 629 214 l 624 302 l 629 302 b 618 361 627 309 623 329 b 694 432 627 361 653 385 l 694 443 b 678 454 694 450 689 454 b 613 508 650 490 629 508 b 581 530 613 522 602 530 b 526 578 556 562 538 578 b 532 584 526 582 528 584 z m 255 454 l 255 448 b 250 432 252 441 250 435 l 244 432 l 244 437 b 250 454 248 445 250 450 z m 700 399 l 711 399 l 711 405 l 700 405 z m 770 378 b 765 307 767 332 765 309 l 770 307 b 781 318 778 307 781 311 l 781 378 z m 700 334 l 711 334 l 711 356 l 700 356 z m 586 340 b 581 269 583 294 581 271 l 581 253 l 586 253 b 597 334 593 271 597 298 l 602 334 l 602 302 b 586 220 602 286 597 259 l 586 215 l 597 215 l 602 242 l 608 242 l 608 237 b 591 166 608 226 602 202 l 586 166 l 586 177 l 591 199 l 581 199 b 564 144 581 197 575 179 l 559 144 l 559 150 b 575 215 570 176 575 198 l 575 220 l 564 220 b 537 128 546 168 537 137 l 532 128 l 532 134 b 570 340 532 148 545 217 z m 244 -159 b 385 166 244 -40 291 68 b 553 323 461 271 517 323 b 505 139 553 309 537 248 l 499 139 b 494 155 499 142 497 148 l 488 155 b 412 -7 470 85 445 31 l 412 -13 b 423 -24 412 -20 416 -24 b 401 -78 423 -28 416 -46 l 374 -78 b 282 -192 374 -86 344 -124 b 244 -176 264 -181 252 -176 z m 684 220 l 689 220 b 700 231 696 220 700 224 l 700 258 l 689 258 z m 510 226 l 521 226 l 521 231 l 510 231 z m 146 193 l 146 182 b 141 166 143 175 141 170 l 136 166 l 136 172 b 141 193 139 178 141 185 z m 646 193 b 635 182 640 193 635 190 l 635 166 l 646 166 b 651 188 646 174 648 182 b 646 193 648 188 646 190 z m 673 166 l 684 166 l 684 177 l 673 177 z m 624 134 l 635 134 l 635 139 l 624 139 z m 662 134 l 673 134 l 673 139 l 662 139 z m 548 106 l 548 96 l 543 96 l 543 106 z m 651 101 l 662 101 l 662 106 l 651 106 z m 597 63 l 602 63 b 618 96 613 66 618 77 l 618 101 l 608 101 z m 526 85 l 526 79 l 515 79 l 515 85 z m 640 68 l 651 68 l 651 74 l 640 74 z m 60 -29 l 60 -40 l 54 -40 l 54 -29 z m 407 -29 b 396 -40 401 -29 397 -33 l 396 -56 l 407 -56 b 412 -35 407 -48 409 -41 b 407 -29 409 -35 407 -33 z m 54 -45 l 54 -78 l 49 -78 l 49 -45 z m 125 -51 l 125 -67 l 119 -105 l 114 -105 l 114 -94 b 119 -51 117 -75 119 -60 z m 385 -73 b 396 -62 393 -73 396 -69 l 385 -62 z m 483 -192 b 564 -67 524 -122 551 -81 l 564 -89 l 488 -192 z m 11 -73 l 11 -89 b 5 -176 7 -141 5 -170 b 22 -246 5 -187 11 -211 l 22 -257 l 16 -257 b 0 -165 5 -224 0 -193 l 0 -127 l 5 -73 z m 49 -83 l 49 -143 l 43 -143 l 43 -83 z m 694 -78 b 678 -111 686 -78 681 -89 l 678 -116 b 700 -78 692 -110 700 -97 z m 114 -159 b 119 -176 114 -163 116 -168 l 119 -203 l 114 -203 b 109 -165 114 -192 112 -179 l 109 -159 z m 49 -165 l 49 -197 l 43 -197 l 43 -165 z m 54 -203 b 71 -252 54 -218 60 -235 l 65 -252 b 49 -214 58 -252 52 -239 l 49 -203 z m 477 -262 l 401 -338 l 396 -338 b 472 -262 396 -335 421 -309 z m 87 -290 l 87 -300 l 81 -300 l 81 -290 z m 109 -371 b 130 -382 117 -378 125 -382 l 130 -387 l 125 -387 b 103 -371 111 -382 103 -376 z m 336 -376 l 336 -382 l 320 -382 l 320 -376 z "},"P":{"ha":864,"x_min":0,"x_max":0,"o":"m 662 618 b 483 602 593 615 534 610 b 391 608 464 602 433 604 b 309 597 345 600 318 597 b 190 608 290 597 250 600 b 125 586 155 604 134 597 b 152 515 132 539 141 515 l 152 488 b 168 472 158 477 163 472 l 163 445 b 174 434 163 437 166 434 b 168 418 174 431 172 425 b 233 391 168 399 190 391 b 125 71 201 272 165 165 b -87 -434 13 -170 -58 -338 l -87 -439 l -81 -439 b 54 -103 9 -229 54 -116 l 65 -109 l -92 -532 l -76 -532 b 22 -255 -47 -441 -14 -349 b 244 277 138 -12 212 166 l 250 277 l 250 271 b 195 98 250 261 231 203 l 195 92 b 206 109 203 92 206 98 l 212 109 l 212 92 b 65 -201 130 -103 81 -201 l 65 -212 b 81 -239 75 -212 80 -220 b 76 -260 78 -245 76 -252 l 76 -266 b 152 -103 107 -223 132 -169 l 157 -103 l 157 -109 b 81 -293 128 -196 103 -257 b 0 -526 36 -433 9 -511 l 0 -537 l 11 -537 l 11 -543 b -11 -564 5 -557 -3 -564 l -11 -597 l -16 -635 l -5 -635 b 38 -499 -5 -624 9 -578 l 43 -499 l 43 -515 b 76 -472 46 -515 57 -501 b 65 -532 76 -486 73 -506 l 65 -537 b 98 -467 73 -537 83 -513 l 103 -467 l 103 -477 l 114 -477 b 152 -369 128 -441 141 -405 l 141 -369 l 130 -407 l 125 -407 l 125 -401 b 157 -320 140 -347 151 -320 l 157 -331 l 163 -331 l 174 -326 b 250 -168 203 -252 228 -199 b 315 -27 252 -132 274 -85 b 309 -22 311 -27 309 -25 l 309 -11 b 347 22 318 5 331 16 b 743 380 564 131 696 250 l 738 407 l 738 412 l 760 396 b 656 217 742 332 707 272 b 575 136 602 174 575 147 l 570 136 l 559 141 b 548 130 559 134 555 130 b 553 114 548 127 550 121 b 526 71 553 101 545 86 l 537 71 b 629 141 581 100 612 124 l 635 141 b 553 65 635 138 608 113 b 304 -98 432 -9 349 -63 b 309 -103 304 -101 306 -103 b 260 -136 309 -108 293 -119 l 266 -146 b 282 -141 270 -146 275 -144 l 288 -141 l 288 -146 l 277 -146 l 277 -157 b 331 -125 294 -156 311 -145 l 326 -114 b 331 -109 329 -114 331 -112 l 326 -98 l 336 -92 l 342 -92 l 353 -98 b 380 -81 353 -92 361 -86 l 385 -81 l 374 -98 l 380 -98 b 412 -87 390 -98 401 -94 l 418 -87 b 320 -152 410 -100 377 -122 l 320 -163 b 418 -114 363 -144 395 -128 l 423 -125 l 543 -54 l 537 -43 l 494 -71 l 488 -71 l 488 -65 b 581 0 498 -65 530 -43 b 575 -16 581 -3 578 -9 b 629 16 598 -16 616 -5 b 906 391 814 138 906 262 b 662 618 906 515 825 591 z m 363 559 l 363 553 l 353 553 l 353 559 z m 765 472 l 765 461 l 760 461 l 760 472 z m 694 450 b 727 434 702 450 713 445 l 727 429 b 694 450 705 437 694 444 z m 602 391 b 678 401 629 398 654 401 b 694 385 689 396 694 391 l 694 380 b 537 190 694 347 642 283 b 374 76 435 125 380 87 b 423 98 387 76 404 83 b 543 174 486 149 526 174 b 336 27 498 130 429 81 l 331 27 b 353 54 331 29 338 39 b 342 65 353 60 349 64 b 434 304 342 75 372 155 b 494 396 434 366 454 396 b 602 391 526 396 562 394 z m 863 401 l 863 380 l 857 353 l 852 353 l 852 358 b 857 401 855 372 857 387 z m 722 396 l 722 385 l 716 385 l 716 396 z m 765 369 l 765 363 l 760 336 l 754 336 l 754 347 l 760 369 z m 798 358 l 798 353 b 760 260 798 338 785 307 l 754 260 l 754 266 b 792 358 766 288 779 319 z m 705 347 l 705 342 b 673 282 705 340 694 320 l 667 282 l 700 347 z m 754 331 l 754 326 b 673 212 741 295 714 257 l 667 212 b 749 331 722 275 749 314 z m 277 288 l 277 282 l 266 244 l 260 244 l 260 250 b 271 288 268 264 271 277 z m 217 271 l 217 260 b 190 179 217 250 208 223 l 184 179 l 184 184 b 212 271 203 231 212 260 z m 749 195 l 732 174 l 727 174 l 743 195 z m 765 184 b 732 157 765 179 754 170 l 727 157 l 754 190 z m 792 179 l 776 152 l 770 152 l 787 179 z m 537 119 b 526 109 531 119 528 116 l 526 103 b 537 114 534 103 537 106 z m 646 87 b 689 114 653 87 667 96 l 689 109 b 651 81 689 102 676 94 l 646 81 z m 515 103 b 505 92 509 103 506 100 l 515 92 z m 304 92 l 304 81 l 298 81 l 298 92 z m 195 92 b 119 -76 191 92 165 36 l 119 -87 b 195 87 161 -24 186 34 z m 244 87 b 233 60 237 75 233 66 l 228 60 l 228 65 b 233 87 231 71 233 79 z m 499 92 b 488 81 493 92 490 89 l 494 81 b 505 92 501 81 505 85 z m 98 -33 b 146 76 119 40 136 76 b 103 -38 144 57 130 19 l 98 -38 z m 521 65 b 477 43 492 60 477 53 l 477 38 l 483 38 b 521 65 508 52 521 61 z m 228 54 l 228 49 b 195 -27 206 4 195 -21 l 190 -27 l 190 -22 b 222 54 212 24 222 50 z m 461 38 b 439 16 447 29 439 22 b 472 33 458 16 469 22 l 472 38 z m 363 0 l 374 0 l 374 11 l 363 11 z m 429 11 b 412 -5 418 5 412 0 l 418 -5 b 434 11 429 1 434 6 z m 385 -11 l 385 -22 b 412 -5 404 -19 412 -14 z m 570 -22 b 553 -38 559 -27 553 -33 l 553 -43 b 575 -22 568 -35 575 -27 z m 98 -43 l 98 -54 l 92 -54 l 92 -43 z m 336 -43 b 320 -60 326 -49 320 -54 l 326 -60 b 342 -43 336 -54 342 -48 z m 439 -65 b 450 -54 439 -59 443 -55 l 456 -54 l 456 -65 z m 429 -103 b 445 -98 433 -103 438 -101 l 439 -109 l 429 -109 z m 190 -174 l 190 -179 b 179 -206 182 -191 179 -200 l 174 -206 l 174 -201 b 184 -174 181 -189 184 -180 z m 163 -190 l 163 -201 l 157 -201 l 157 -190 z m 152 -217 l 152 -228 l 146 -228 l 146 -217 z m 65 -222 b 27 -293 62 -222 49 -246 l 27 -304 l 38 -304 l 65 -228 z m 146 -233 l 146 -244 l 141 -244 l 141 -233 z m 136 -288 l 136 -298 l 130 -298 l 130 -288 z m 11 -342 l 11 -347 b 27 -315 22 -344 27 -333 l 16 -315 z m 43 -353 b 27 -385 35 -353 29 -363 l 38 -385 l 43 -358 z m 0 -358 b -5 -374 0 -361 -2 -367 l -5 -380 l 0 -380 b 11 -369 7 -380 11 -376 l 11 -358 z m 87 -385 l 87 -391 b 81 -407 87 -394 85 -399 b 87 -439 85 -426 87 -437 b 54 -488 71 -439 60 -456 l 49 -488 l 49 -483 b 81 -385 71 -426 81 -393 z m -11 -401 l 0 -401 l 0 -396 l -11 -396 z m 16 -418 b 5 -429 10 -418 7 -421 l 5 -439 l 16 -439 b 22 -418 16 -431 18 -424 z m 81 -456 l 81 -467 l 76 -467 l 76 -456 z m -11 -494 b 0 -483 -3 -494 0 -490 l 0 -472 l -11 -472 z m -109 -483 b -136 -570 -116 -520 -125 -549 l -136 -575 l -130 -575 b -98 -483 -123 -575 -112 -545 z m 33 -494 l 33 -499 b 27 -515 29 -506 27 -511 l 22 -515 l 22 -510 b 27 -494 25 -503 27 -497 z m 60 -559 b 43 -591 51 -559 45 -570 l 54 -591 l 60 -564 z m 27 -564 b 11 -597 20 -564 14 -575 l 11 -602 l 22 -602 l 27 -575 z "},"Q":{"ha":743,"x_min":0,"x_max":0,"o":"m 538 631 b 316 496 473 631 398 586 b -20 -242 92 231 -20 -15 b -9 -318 -18 -288 -14 -313 b 208 -481 29 -427 101 -481 l 229 -481 b 300 -470 260 -481 283 -477 b 446 -389 397 -433 446 -406 b 506 -421 462 -389 481 -399 l 517 -421 b 463 -383 500 -399 482 -386 l 463 -367 b 506 -383 471 -367 486 -372 l 517 -383 b 484 -356 507 -365 496 -356 l 484 -351 b 511 -313 503 -342 511 -330 l 549 -334 l 560 -334 b 522 -296 535 -312 522 -299 b 538 -291 526 -296 532 -294 b 674 -361 540 -304 585 -327 l 680 -361 l 680 -356 b 642 -323 680 -353 667 -342 l 636 -323 l 636 -329 l 614 -329 l 614 -323 l 642 -313 l 642 -302 l 609 -280 l 609 -275 b 674 -307 638 -283 660 -294 l 680 -307 l 680 -302 b 582 -231 657 -275 625 -251 l 582 -226 l 604 -226 l 604 -215 l 593 -215 b 609 -172 604 -195 609 -180 l 609 -166 b 582 -204 591 -182 582 -195 b 566 -199 575 -201 570 -199 b 625 -96 587 -145 607 -111 b 761 328 669 -27 715 114 b 723 490 736 391 724 446 b 538 631 676 585 615 631 z m 365 512 l 338 479 l 332 479 l 359 512 z m 332 441 b 343 452 332 448 336 452 l 343 447 b 332 436 343 439 340 436 z m 783 447 b 777 366 779 411 777 384 l 777 355 l 788 355 b 793 447 788 367 790 397 z m 289 387 b 137 111 226 281 176 189 l 137 100 b 148 116 144 100 148 105 l 153 116 l 153 111 l 110 -9 l 104 -9 l 104 -3 b 126 62 119 34 126 56 l 126 67 b 45 -210 89 6 62 -86 b 77 -329 48 -279 59 -319 b 72 -307 77 -321 75 -313 l 72 -302 l 77 -302 b 229 -410 112 -374 162 -410 l 229 -416 l 213 -416 b 94 -356 173 -416 133 -396 l 94 -361 b 218 -427 123 -405 165 -427 l 224 -427 b 387 -361 264 -427 319 -405 l 381 -351 l 370 -356 l 365 -356 l 376 -340 b 408 -351 387 -347 398 -351 l 408 -361 b 240 -437 358 -412 302 -437 l 208 -437 b 28 -237 110 -437 50 -370 b 45 -150 28 -206 34 -177 b 283 387 45 -14 124 165 z m 311 371 b 283 333 292 349 283 336 l 278 333 b 305 371 278 336 287 349 z m 289 51 b 500 355 333 155 404 256 l 506 355 b 555 246 513 282 529 246 l 566 252 l 571 252 b 430 -85 571 198 524 85 l 419 -85 l 419 -79 l 403 -79 b 273 -9 326 -33 283 -9 z m 739 355 b 745 328 739 342 741 334 b 549 -177 729 180 664 12 l 544 -177 l 544 -155 l 533 -155 l 533 -166 l 522 -166 b 517 -150 522 -162 520 -157 b 533 -117 517 -142 522 -132 l 533 -106 b 500 -139 513 -128 503 -139 l 495 -139 b 500 -123 498 -132 500 -126 b 631 149 558 -23 602 67 b 663 317 642 231 652 288 l 696 317 b 734 355 721 326 734 339 z m 772 306 l 783 306 l 783 333 l 772 333 z m 300 300 l 300 295 b 289 268 292 283 289 274 l 283 268 l 283 273 b 294 300 291 285 294 294 z m 614 252 b 625 279 614 270 618 279 b 620 262 625 275 623 270 l 620 257 l 631 257 l 631 268 l 636 268 l 636 262 b 620 186 636 254 631 229 l 609 192 l 604 192 b 522 -25 604 168 576 95 l 517 -25 l 517 -20 b 598 197 546 34 573 106 l 598 203 l 593 203 b 560 132 571 179 560 155 b 566 116 564 125 566 120 b 549 111 562 116 557 114 b 582 268 571 191 582 243 l 604 268 l 604 252 z m 658 208 l 652 170 l 663 170 l 669 208 l 669 219 l 658 219 z m 245 208 l 245 203 b 235 176 238 191 235 182 l 229 176 l 229 181 b 240 208 237 193 240 202 z m 609 203 l 620 203 l 620 214 l 609 214 z m 126 186 l 126 176 l 121 176 l 121 186 z m 609 165 l 609 154 l 604 154 l 604 165 z m 517 143 b 473 29 517 132 503 94 l 473 18 b 528 143 509 71 528 112 z m 604 132 l 604 121 l 593 121 l 593 132 z m 262 105 l 262 100 b 240 45 248 68 240 50 l 235 45 l 235 51 b 256 105 249 81 256 99 z m 528 45 b 544 83 530 71 535 83 l 549 83 b 533 40 538 65 533 51 l 528 40 z m 614 62 l 625 62 l 631 89 l 620 89 z m 170 51 l 170 40 b 99 -210 123 -73 99 -157 b 137 -334 99 -247 112 -288 l 137 -340 b 94 -199 115 -330 100 -283 b 164 51 94 -146 117 -64 z m 718 56 b 707 45 711 56 708 53 l 707 35 l 718 35 z m 631 24 b 576 -85 618 -18 600 -54 l 576 -96 b 642 24 603 -69 625 -30 z m 56 13 l 56 7 b 12 -193 26 -111 12 -178 l 7 -193 l 7 -161 b 50 13 7 -136 21 -77 z m 696 7 l 707 7 l 707 18 l 696 18 z m 463 2 b 452 -9 456 2 453 -1 l 452 -20 b 463 -9 459 -20 463 -16 z m 680 -31 l 680 -36 b 696 -3 690 -33 696 -22 l 685 -3 z m 104 -14 l 104 -25 l 99 -25 l 99 -14 z m 99 -31 l 99 -41 l 94 -41 l 94 -31 z m 446 -25 b 419 -58 441 -25 433 -36 l 419 -68 b 446 -36 425 -68 433 -58 z m 571 -25 b 533 -96 571 -35 558 -58 l 533 -101 l 538 -101 b 582 -25 553 -95 567 -70 z m 94 -47 l 94 -58 l 88 -58 l 88 -47 z m 164 -101 l 164 -112 l 159 -112 l 159 -101 z m 159 -123 l 159 -134 l 153 -134 l 153 -123 z m 555 -128 b 544 -139 549 -128 545 -132 l 544 -144 l 555 -144 z m 300 -199 l 300 -204 l 289 -204 l 289 -199 z m 159 -210 l 159 -220 l 153 -220 l 153 -210 z m 7 -220 l 18 -313 l 18 -318 l 12 -318 l 1 -237 l 1 -220 z m 609 -231 b 636 -253 611 -239 620 -245 l 647 -253 b 614 -226 640 -240 629 -231 l 609 -226 z m 159 -237 l 159 -253 l 153 -253 l 153 -237 z m 213 -242 b 240 -253 224 -250 234 -253 l 240 -264 l 213 -258 z m 197 -253 b 208 -275 197 -258 200 -266 l 197 -275 b 191 -258 197 -271 195 -265 l 191 -253 z m 479 -264 b 490 -275 486 -264 490 -267 l 479 -275 z m 403 -275 l 403 -280 l 392 -280 l 392 -275 z m 522 -280 b 506 -296 517 -291 511 -296 b 500 -280 506 -292 504 -287 z m 72 -286 l 72 -296 l 66 -296 l 66 -286 z m 175 -286 l 175 -296 l 170 -296 l 170 -286 z m 430 -291 l 430 -302 l 425 -302 l 425 -291 z m 604 -291 b 620 -307 614 -296 620 -302 l 614 -307 b 598 -291 604 -301 598 -296 z m 311 -296 l 311 -302 l 300 -302 l 300 -296 z m 273 -302 b 262 -313 273 -309 269 -313 l 224 -313 l 224 -302 z m 435 -313 b 446 -302 435 -307 439 -302 l 452 -302 l 452 -318 b 435 -313 445 -315 439 -313 z m 463 -329 b 484 -307 471 -315 479 -307 l 490 -307 l 490 -313 b 463 -340 481 -328 472 -338 z m 278 -318 l 278 -323 l 267 -323 l 267 -318 z m 251 -361 b 349 -318 281 -361 314 -347 l 359 -318 b 256 -378 312 -358 277 -378 l 245 -378 b 164 -361 224 -378 197 -372 l 164 -356 l 170 -356 l 202 -361 z m 23 -323 l 23 -334 l 18 -334 l 18 -323 z m 647 -318 b 658 -329 647 -326 650 -329 l 658 -318 z m 83 -351 l 88 -351 l 88 -340 l 83 -340 z m 457 -351 l 457 -361 l 446 -361 l 446 -351 z m 403 -394 b 425 -372 412 -380 419 -372 l 435 -372 b 403 -394 435 -378 425 -385 z m 72 -399 l 72 -405 l 50 -389 l 50 -383 z m 544 -410 l 555 -410 l 555 -405 l 544 -405 z m 560 -416 b 582 -437 569 -430 576 -437 l 593 -437 l 593 -427 b 566 -416 587 -427 577 -423 z m 522 -427 b 576 -470 522 -431 541 -446 l 582 -470 l 582 -465 b 533 -427 581 -458 565 -446 z m 294 -459 b 327 -437 294 -453 305 -446 l 332 -437 l 332 -443 b 300 -459 328 -443 317 -448 z m 142 -443 b 202 -454 157 -450 176 -454 b 191 -465 202 -461 199 -465 l 175 -465 b 137 -448 159 -454 146 -448 l 137 -443 z m 273 -459 l 273 -465 l 224 -465 l 224 -459 z "},"R":{"ha":935,"x_min":0,"x_max":0,"o":"m 639 612 b 525 596 619 612 581 607 b 69 412 265 526 113 465 l 205 477 l 221 477 l 221 471 b -18 319 186 469 106 418 b 53 363 1 319 24 334 b 628 569 206 461 398 530 l 628 564 b 487 536 592 553 545 544 b 151 390 297 483 185 434 b 167 395 155 390 160 392 l 172 395 b 134 352 172 390 159 376 l 134 347 b 189 368 143 347 161 354 l 194 368 l 194 363 b 75 292 185 363 146 339 b 26 249 52 263 36 249 b 31 243 26 245 28 243 l 9 222 l 9 211 l 15 211 l 26 216 l 26 211 b 64 233 51 211 64 218 l 64 238 b 58 233 60 238 58 236 l 53 233 l 58 243 l 58 249 l 53 260 b 102 271 58 260 75 263 l 107 271 b 91 260 107 263 102 260 l 91 249 b 123 260 101 249 112 252 l 129 260 b 64 200 85 225 64 205 l 75 200 b 237 298 164 265 218 298 l 248 298 l 248 292 l 221 287 l 221 276 b 292 309 235 277 258 288 l 297 309 b 156 -17 297 280 250 172 b 69 -60 98 -29 69 -43 b 80 -77 69 -71 73 -77 l 102 -115 b -18 -380 102 -130 62 -219 l -18 -386 l -12 -386 l 9 -359 b -61 -543 -16 -448 -39 -509 l -61 -559 l -39 -587 b -23 -581 -35 -587 -30 -585 b 37 -603 17 -581 37 -589 b 75 -587 52 -603 64 -597 b 85 -597 82 -587 85 -590 l 96 -592 l 107 -592 l 134 -597 b 183 -522 143 -589 159 -563 b 292 -223 231 -332 267 -233 b 633 -429 389 -299 503 -368 l 644 -429 b 606 -402 644 -420 631 -412 l 606 -397 l 612 -397 l 764 -473 l 769 -473 b 590 -359 728 -435 668 -397 b 346 -212 564 -338 482 -289 l 346 -201 b 579 -326 477 -285 554 -326 l 585 -326 b 465 -261 583 -316 543 -294 l 465 -256 l 471 -256 b 628 -342 522 -277 574 -307 l 628 -348 l 617 -348 b 639 -370 626 -362 633 -370 l 650 -370 l 639 -353 b 655 -359 643 -353 648 -355 b 671 -353 659 -359 665 -357 b 747 -402 686 -361 711 -377 l 758 -402 l 758 -391 b 655 -332 749 -391 715 -372 l 655 -326 l 661 -326 b 796 -397 746 -368 791 -392 l 807 -397 l 807 -386 b 834 -397 819 -393 828 -397 l 834 -402 l 829 -402 l 818 -397 l 807 -397 b 845 -429 807 -403 820 -414 l 856 -424 b 850 -418 856 -420 854 -418 b 856 -413 850 -415 852 -413 b 774 -348 856 -407 829 -385 l 780 -348 b 850 -397 814 -369 838 -385 l 861 -397 b 840 -364 847 -378 840 -368 b 899 -397 854 -364 873 -375 l 905 -397 l 905 -391 b 834 -337 905 -388 881 -370 l 840 -326 b 785 -288 839 -320 821 -307 l 780 -288 l 780 -299 l 791 -299 l 791 -304 l 785 -304 b 742 -277 756 -295 742 -286 b 769 -288 748 -277 758 -281 l 774 -288 l 774 -277 l 769 -277 b 514 -125 661 -208 576 -157 l 514 -120 b 612 -55 541 -88 573 -66 b 943 357 832 106 943 243 l 943 390 b 932 450 943 416 939 435 b 644 612 878 558 783 612 z m 650 596 l 650 591 l 639 591 l 639 596 z m 514 574 l 514 569 l 503 569 l 503 574 z m 406 547 b 422 553 410 547 415 549 l 438 553 l 438 547 l 411 542 l 406 542 z m 389 536 l 389 531 l 373 531 l 373 536 z m 856 526 l 888 498 l 888 488 l 883 488 b 850 526 883 492 872 505 z m 465 509 l 465 504 l 454 504 l 454 509 z m 444 504 l 444 498 l 433 498 l 433 504 z m 840 504 b 899 385 880 479 899 439 b 536 -50 899 252 778 108 l 530 -50 l 530 -44 b 655 43 565 -27 606 2 b 888 374 810 191 888 301 b 834 504 888 408 870 452 z m 427 498 l 427 493 l 411 493 l 411 498 z m 395 493 l 406 493 l 406 488 b 275 444 392 488 349 473 l 270 444 l 270 450 z m 438 466 b 465 477 444 466 454 469 l 476 477 b 444 460 476 471 465 465 l 438 460 z m 389 450 l 389 444 l 378 444 l 378 450 z m 210 422 b 259 444 216 422 233 430 l 264 444 l 264 439 b 216 417 258 439 242 431 l 210 417 z m 270 412 b 286 417 274 412 279 414 l 292 417 l 292 412 b 275 406 288 412 283 410 l 270 406 z m 53 406 b 26 385 35 397 26 389 b 58 401 44 385 55 390 l 58 406 z m 671 401 l 682 401 l 682 385 l 688 385 b 736 379 701 385 717 382 l 742 379 b 688 292 742 374 724 345 b 449 92 581 179 501 113 l 444 92 b 530 347 501 240 530 325 b 655 379 530 368 572 379 l 661 379 l 661 390 l 644 390 l 644 395 z m 221 390 b 237 395 225 390 231 392 l 243 395 l 243 390 b 227 385 239 390 234 388 l 221 385 z m 590 390 l 590 385 l 574 385 l 574 390 z m 134 390 b 123 379 128 390 125 387 l 123 374 l 129 374 b 145 390 140 380 145 385 z m 568 385 l 568 379 l 557 379 l 557 385 z m 15 379 b -56 325 -31 351 -54 332 l -45 325 b 20 374 -1 354 20 370 l 20 379 z m 840 357 l 840 352 b 834 341 840 345 838 341 b 671 124 812 267 758 195 l 671 130 b 699 151 679 144 688 151 b 834 357 789 250 834 319 z m 872 357 l 872 347 l 867 347 l 867 357 z m 867 341 l 867 336 b 845 281 852 304 845 286 l 840 281 l 840 287 b 861 341 854 315 861 332 z m 102 325 l 107 325 l 107 336 l 102 336 z m 774 330 l 774 319 l 764 319 l 764 330 z m 69 314 b 53 298 58 309 53 303 l 75 303 l 75 314 z m 742 287 b 753 298 742 293 745 297 l 753 292 b 742 281 753 285 749 281 z m 205 276 b 134 227 158 248 134 232 l 134 222 b 210 271 161 229 186 245 l 210 276 z m 75 243 l 85 243 l 85 249 l 75 249 z m 682 222 b 704 243 691 236 699 243 l 709 243 l 709 238 b 682 211 696 220 687 211 z m 872 233 l 872 227 b 758 92 849 183 811 138 l 758 97 b 867 233 831 179 867 224 z m 286 200 l 286 195 b 248 113 261 146 248 119 l 243 113 l 243 119 b 281 200 268 167 281 194 z m 335 195 l 335 189 l 324 157 l 319 157 l 319 162 b 330 195 319 164 322 175 z m 308 184 l 308 178 b 227 -1 286 122 259 62 l 216 -1 l 302 184 z m 726 124 b 671 81 718 109 699 95 b 720 124 704 106 720 120 z m 205 32 l 205 26 b 199 10 201 20 199 14 l 194 10 l 194 16 b 199 32 197 23 199 28 z m 530 16 l 530 10 l 519 10 l 519 16 z m 671 16 l 666 5 l 661 5 l 666 16 z m 460 -66 l 460 -71 l 449 -71 l 449 -66 z m 465 -87 b 476 -77 465 -81 469 -77 l 481 -77 b 471 -87 481 -84 478 -87 z m 324 -223 b 400 -267 331 -223 356 -237 l 400 -272 l 395 -272 b 324 -223 360 -257 337 -241 z m 498 -229 b 552 -256 500 -229 519 -237 l 552 -261 l 547 -261 b 492 -234 519 -243 500 -234 l 492 -229 z m 617 -234 l 617 -245 b 606 -234 611 -245 608 -241 z m 655 -256 b 666 -267 663 -256 666 -259 l 661 -267 b 650 -256 654 -267 651 -263 z m 699 -299 l 699 -304 l 688 -304 l 688 -299 z m 134 -310 l 134 -315 b 129 -332 131 -322 129 -328 l 123 -332 l 123 -326 b 129 -310 127 -319 129 -313 z m 465 -310 b 525 -342 505 -324 525 -335 b 460 -315 518 -342 496 -334 l 460 -310 z m 585 -326 b 595 -337 585 -334 588 -337 l 601 -337 b 590 -326 601 -331 597 -327 z m 601 -337 b 612 -348 601 -345 604 -348 l 617 -348 b 606 -337 617 -342 614 -338 z m 812 -348 b 829 -353 820 -351 825 -353 l 829 -359 l 823 -359 b 802 -353 817 -355 810 -353 l 802 -348 z m 666 -370 b 677 -359 673 -370 677 -366 l 666 -359 z m 671 -380 b 699 -402 672 -385 681 -393 l 704 -402 b 682 -380 695 -388 688 -380 z m 709 -413 l 726 -413 b 715 -402 726 -407 722 -403 l 709 -402 z m 867 -402 b 894 -424 869 -410 878 -416 l 894 -418 b 878 -402 888 -408 883 -402 z m 774 -418 l 785 -418 l 785 -408 l 774 -408 z m 861 -418 b 888 -440 863 -426 872 -433 l 899 -440 b 872 -418 898 -433 889 -425 z m 905 -446 b 916 -456 905 -453 908 -456 l 921 -456 l 921 -451 b 910 -440 921 -445 918 -441 l 905 -440 z m 693 -462 b 720 -484 695 -469 704 -476 l 726 -484 l 726 -473 b 699 -462 720 -473 710 -469 z m -50 -484 b -83 -549 -70 -505 -81 -526 l -72 -549 b -50 -494 -72 -540 -64 -522 z m 731 -484 b 818 -549 731 -490 760 -512 l 823 -549 l 823 -543 b 736 -484 808 -521 779 -501 z m 780 -489 l 791 -489 l 791 -484 l 780 -484 z m 796 -494 b 818 -516 805 -509 812 -516 l 823 -516 l 823 -511 b 802 -494 823 -505 816 -500 z "},"S":{"ha":731,"x_min":0,"x_max":0,"o":"m 459 596 b 52 233 188 484 52 362 b 199 10 52 125 101 52 l 210 10 b 79 168 142 54 99 106 l 79 189 l 85 189 b 269 10 85 113 146 53 l 269 5 b 242 -1 257 5 248 3 b 237 5 242 3 240 5 l 231 5 l 231 -6 b 448 -71 346 -31 418 -53 b 416 -131 439 -84 429 -104 b 139 -272 416 -165 323 -212 l 139 -283 b 253 -256 161 -283 199 -274 l 258 -256 l 258 -261 b 101 -310 189 -294 136 -310 b -154 -418 -69 -372 -154 -408 l -132 -418 b 161 -321 22 -353 120 -321 b 454 -169 293 -290 391 -239 l 497 -87 b 454 -191 497 -123 483 -157 l 454 -201 l 459 -201 b 486 -163 468 -201 477 -189 l 492 -163 l 492 -174 b 334 -288 452 -230 399 -268 l 329 -288 b 356 -272 329 -280 338 -275 l 356 -261 b 226 -310 351 -261 308 -277 l 226 -321 l 237 -321 l 237 -326 b 199 -342 229 -326 217 -332 l 204 -353 b 117 -386 146 -366 117 -377 b 296 -337 165 -386 225 -370 l 302 -337 l 286 -359 b -83 -489 103 -401 -20 -445 l -78 -500 b -94 -505 -81 -500 -87 -502 l -105 -500 b -143 -527 -130 -513 -143 -522 l -143 -538 l -121 -538 l -121 -543 l -132 -543 l -132 -549 l -127 -549 l -89 -538 b -56 -505 -83 -519 -72 -509 b -62 -500 -56 -502 -58 -500 b -51 -489 -62 -494 -58 -490 l -45 -489 l -51 -500 b -7 -489 -45 -500 -31 -496 l -2 -489 l -2 -494 b -18 -500 -5 -494 -11 -496 l -13 -511 l 20 -505 b 68 -478 43 -487 60 -478 l 68 -489 b -89 -565 -19 -521 -71 -546 l -83 -565 b 128 -494 37 -518 107 -494 l 134 -494 l 134 -500 b 25 -532 123 -500 87 -511 l 25 -543 l 31 -543 b 144 -505 50 -543 87 -530 l 144 -500 l 139 -489 b 204 -467 153 -489 174 -481 l 210 -467 l 210 -473 b 182 -489 191 -475 182 -481 b 361 -435 224 -489 283 -471 b 676 -60 571 -357 676 -232 b 508 173 676 41 620 118 b 302 233 423 184 355 205 b 562 379 357 298 444 347 b 730 433 674 406 730 424 l 730 455 b 714 466 730 463 725 466 b 671 542 709 494 694 519 b 633 591 661 574 648 591 l 633 596 l 638 623 b 633 629 635 623 633 625 z m 432 558 l 432 553 l 421 553 l 421 558 z m 410 515 b 421 526 410 521 414 525 l 421 515 z m 280 482 b 340 520 280 490 300 503 l 345 520 l 345 515 b 280 482 336 515 315 504 z m 372 498 l 372 493 l 361 493 l 361 498 z m 432 498 b 383 471 432 492 416 483 l 378 471 l 378 477 z m 101 238 b 345 488 101 315 182 397 l 351 488 l 351 482 b 139 298 283 458 213 396 l 139 287 b 258 406 170 328 209 368 l 269 406 l 269 401 l 264 401 b 134 211 177 332 134 269 l 128 211 l 128 233 l 117 233 b 128 162 117 218 121 195 l 139 162 b 134 178 139 166 137 172 l 134 189 b 172 130 138 189 151 169 l 188 130 l 199 124 l 210 124 b 166 205 191 142 176 170 l 166 211 l 172 211 l 172 205 b 258 102 174 178 203 144 l 242 102 b 264 86 242 92 250 86 l 264 81 b 248 70 253 81 248 77 b 193 97 239 70 221 79 l 188 97 b 264 48 200 79 225 62 l 264 43 l 248 43 b 101 222 150 77 101 136 z m 161 390 l 161 379 l 155 379 l 155 390 z m 269 363 l 199 287 l 193 287 b 264 363 193 294 217 320 z m 286 298 l 286 292 l 275 292 l 275 298 z m 139 287 b 123 243 128 285 123 270 l 134 243 b 139 281 134 254 136 267 z m 172 243 l 172 238 l 166 216 l 161 216 l 161 222 l 166 243 z m 79 227 l 79 216 l 74 216 l 74 227 z m 79 211 l 79 200 l 74 200 l 74 211 z m 237 211 l 237 200 l 231 200 l 231 211 z m 161 124 b 172 113 161 117 164 113 l 172 124 z m 481 -28 b 508 -71 487 -28 496 -42 l 497 -77 b 481 -33 497 -61 492 -46 z m 470 -50 l 470 -60 b 459 -50 464 -60 460 -57 z m 465 -87 b 454 -98 465 -95 461 -98 l 454 -87 z m 503 -142 l 503 -153 l 497 -153 l 497 -142 z m 606 -153 l 606 -158 l 600 -185 l 595 -185 l 595 -180 l 600 -153 z m 421 -163 l 427 -163 b 329 -229 400 -193 368 -215 l 323 -229 l 323 -223 z m 399 -283 b 530 -180 429 -277 473 -243 b 405 -288 530 -208 488 -244 l 399 -288 z m 443 -201 b 427 -218 432 -207 427 -212 l 427 -223 l 432 -223 l 448 -212 z m 280 -245 b 313 -229 280 -239 291 -233 l 318 -229 l 318 -234 b 286 -245 311 -234 300 -237 z m 389 -245 l 399 -245 l 399 -239 l 389 -239 z m 513 -288 b 530 -272 519 -277 525 -272 l 530 -288 z m 123 -277 b -203 -397 -28 -324 -136 -364 l -203 -408 b -73 -353 -176 -408 -132 -389 b 123 -283 50 -319 115 -295 z m 427 -337 b 470 -315 435 -337 450 -330 l 470 -332 l 432 -342 l 427 -342 z m 166 -337 l 177 -337 l 177 -332 l 166 -332 z m 432 -375 b 448 -370 436 -375 441 -373 l 454 -370 l 454 -375 b 437 -380 450 -375 445 -377 l 432 -380 z m 41 -380 l 47 -380 l 47 -370 l 41 -370 z m 25 -375 b 3 -386 16 -382 9 -386 l 3 -391 l 20 -391 l 31 -386 z m 296 -408 b 345 -380 301 -403 317 -394 l 351 -380 b 302 -408 351 -391 334 -399 z m 112 -380 b 52 -402 107 -380 87 -388 l 52 -413 b 117 -391 58 -413 80 -406 z m 242 -408 l 242 -413 b 220 -418 234 -413 227 -415 l 220 -408 z m 20 -413 b -40 -440 -20 -425 -40 -434 l -40 -446 l 25 -424 z m 210 -429 l 210 -435 l 199 -435 l 199 -429 z m -56 -440 b -67 -451 -62 -440 -66 -444 l -67 -456 l -62 -456 b -51 -446 -54 -456 -51 -453 l -51 -440 z m 286 -446 l 286 -451 l 275 -451 l 275 -446 z m 106 -451 l 106 -456 l 96 -456 l 96 -451 z m -29 -500 b -45 -516 -40 -505 -45 -511 l -45 -522 b -24 -505 -31 -516 -24 -511 l -24 -500 z m -186 -549 b -176 -559 -186 -556 -183 -559 l -165 -554 b -176 -543 -165 -548 -168 -544 z m 3 -554 l 9 -554 l 9 -543 l 3 -543 z "},"T":{"ha":404,"x_min":0,"x_max":0,"o":"m 351 1086 b 329 1032 345 1086 337 1068 b 215 956 329 981 291 956 b -268 880 -58 905 -218 880 b -387 891 -323 888 -363 891 b -441 869 -419 891 -437 884 l -441 864 b -431 853 -441 857 -438 853 b -409 788 -427 810 -420 788 b -414 766 -409 780 -411 772 b -398 750 -408 755 -403 750 l -398 712 b -387 701 -398 705 -395 701 b -393 674 -387 688 -389 679 b -387 658 -393 671 -391 665 b -382 663 -384 658 -382 660 b -279 647 -322 652 -288 647 b 226 728 -217 647 -49 674 l 231 728 b 177 620 231 717 213 681 b 63 354 144 509 106 421 b -29 126 20 233 -11 157 b -24 110 -29 123 -27 117 b -111 -167 -27 85 -56 -7 l -111 -172 l -100 -167 b -18 50 -57 -28 -30 44 b -62 -113 -22 18 -37 -36 b -197 -492 -142 -315 -188 -442 l -186 -492 b -45 -107 -151 -376 -103 -248 b 25 77 -15 -8 8 54 l 31 77 l 31 72 b 14 18 20 43 14 25 l 25 -58 b -13 -167 11 -95 -2 -131 l -13 -172 l -2 -172 b 63 28 41 -51 63 16 l 74 23 b -35 -281 45 -85 9 -186 b -111 -530 -75 -423 -100 -507 b -105 -552 -107 -536 -105 -544 l -105 -568 b -116 -579 -105 -576 -109 -579 b -111 -606 -113 -585 -111 -594 l -100 -606 b -94 -590 -100 -602 -98 -597 b -62 -514 -73 -559 -62 -534 l -62 -503 b -78 -541 -71 -503 -76 -516 l -83 -541 l -83 -536 b -62 -465 -83 -526 -76 -503 l -67 -438 b -56 -400 -60 -424 -56 -411 l -51 -400 l -51 -406 l -62 -444 l -62 -449 b -35 -384 -52 -449 -43 -427 l -29 -384 l -29 -389 l -35 -422 l -35 -427 b 3 -357 -24 -427 -11 -404 l 9 -357 l 9 -362 b -45 -541 -27 -470 -45 -530 l -45 -547 l -35 -547 b 63 -275 -5 -439 28 -349 l 68 -275 l 68 -281 b 31 -378 43 -334 31 -367 l 31 -384 l 41 -384 l 96 -237 l 90 -210 b 112 -118 104 -177 112 -146 l 117 -118 l 117 -140 l 123 -140 b 134 -129 130 -140 134 -136 b 497 728 195 77 317 362 b 568 804 510 779 533 804 l 568 815 l 530 810 l 530 815 b 866 886 530 827 642 851 l 866 897 b 692 864 819 893 762 882 l 682 869 b 557 848 667 869 625 862 l 541 848 l 541 864 b 557 869 545 864 550 866 b 546 880 557 876 553 880 b 627 907 546 896 573 905 l 627 918 b 557 913 583 915 559 913 l 551 913 l 551 924 b 817 978 728 954 817 972 l 817 983 l 790 983 l 758 978 l 752 978 l 752 983 l 768 983 l 768 994 b 638 972 705 980 661 972 l 622 972 l 622 978 b 763 1000 706 992 753 1000 l 763 1010 b 741 1016 755 1010 747 1013 l 703 1005 l 698 1005 b 844 1043 743 1030 791 1043 l 850 1043 l 850 1054 b 709 1038 835 1054 788 1048 l 709 1043 b 578 1032 639 1043 595 1040 b 562 1081 572 1032 567 1048 l 513 1076 l 497 1086 l 492 1086 l 470 1070 l 454 1081 l 443 1081 b 432 1070 437 1081 433 1078 b 394 1086 407 1072 394 1078 b 367 1076 388 1086 378 1083 z m 676 1038 l 698 1038 l 698 1032 b 573 1010 680 1032 639 1025 l 568 1010 l 568 1021 z m 871 1027 b 828 1021 852 1023 837 1021 l 828 1010 l 839 1010 l 839 1005 b 779 1000 824 1005 804 1003 l 779 989 l 806 989 l 861 983 b 909 1005 864 996 880 1003 l 909 1016 l 882 1016 b 871 1027 876 1016 873 1019 z m 861 1016 l 861 1010 l 850 1010 l 850 1016 z m 671 1005 l 671 994 l 665 994 l 665 1005 z m 269 951 b 286 956 273 951 279 953 l 291 956 l 291 951 b 275 945 288 951 282 949 l 269 945 z m 253 945 l 253 940 l 242 940 l 242 945 z m 692 924 l 720 924 l 720 935 l 692 935 z m 139 924 l 139 918 l 123 918 l 123 924 z m 231 902 b 242 913 231 908 235 912 l 248 913 l 248 902 z m 286 902 l 286 897 l 269 897 l 269 902 z m 578 886 l 578 875 l 644 880 l 654 880 l 654 891 l 633 891 z m 31 875 b 52 880 39 875 46 877 l 74 880 l 74 875 b 36 869 63 875 50 873 l 31 869 z m 861 864 l 861 853 l 909 859 l 909 869 z m 210 848 b 275 859 218 848 240 851 l 280 859 l 280 853 b 220 842 245 846 225 842 l 210 842 z m 828 853 b 725 842 785 846 750 842 l 720 842 l 720 831 b 828 842 747 831 783 835 z m 204 842 l 204 837 l 188 837 l 188 842 z m 166 837 l 166 831 l 150 831 l 150 837 z m 96 826 b 134 831 106 826 119 828 l 144 831 l 144 826 l 117 821 l 96 821 z m 687 831 b 578 821 660 831 624 828 l 578 810 b 671 821 627 817 658 821 l 687 821 z m 264 815 l 264 810 l 248 810 l 248 815 z m 101 772 b 258 799 157 772 210 781 l 264 799 b -13 739 264 783 172 763 l -18 739 l -18 745 b 52 761 -12 745 11 750 b 101 783 76 775 92 783 l 106 783 z m 144 788 l 144 783 l 134 783 l 134 788 z m -62 755 l -56 755 l -56 750 b -73 745 -60 750 -65 748 l -94 745 l -94 750 z m 155 739 b 231 755 167 739 192 745 l 237 755 b 172 734 237 747 215 740 l 155 734 z m -100 745 l -100 739 l -127 739 l -127 745 z m -56 734 l -56 728 l -67 728 l -67 734 z m -121 723 b -78 728 -106 723 -92 725 l -73 728 l -73 723 b -89 718 -76 723 -81 721 l -121 718 z m 58 718 l 58 712 l 41 712 l 41 718 z m 36 712 l 36 707 l 20 707 l 20 712 z m 3 707 l 3 701 l -13 701 l -13 707 z m -94 696 b -73 701 -86 696 -79 698 l -62 701 l -62 696 b -83 690 -70 696 -77 694 l -94 690 z m -121 690 l -121 685 b -138 680 -125 685 -130 683 l -143 680 l -138 690 z m 220 555 l 220 544 b 161 408 180 460 161 414 l 155 408 l 155 414 l 182 495 b 215 555 204 527 215 547 z m 128 419 l 128 408 l 123 408 l 123 419 z m 150 392 l 150 381 l 144 381 l 144 392 z m 144 376 l 144 370 b 85 240 126 308 106 264 l 90 213 b 63 180 77 213 68 202 l 68 170 b 58 164 68 166 65 164 b 63 159 58 161 60 159 b 41 94 63 152 56 130 l 36 94 l 36 99 b 41 110 36 106 38 110 b 139 376 41 151 74 239 z m 112 229 l 112 218 l 106 218 l 106 229 z m 101 202 l 101 197 b 85 153 90 172 85 158 l 79 153 l 79 159 b 96 202 90 183 96 197 z m 112 142 l 112 132 l 106 132 l 106 142 z m 58 104 l 58 94 l 52 94 l 52 104 z m 96 104 l 96 94 l 90 94 l 90 104 z m 150 61 l 150 56 b 144 39 146 49 144 43 l 139 39 l 139 45 b 144 61 142 52 144 58 z m 106 -4 l 106 -9 b 96 -53 99 -33 96 -47 l 90 -53 l 90 -42 l 101 -4 z m 128 -15 l 128 -26 l 123 -26 l 123 -15 z m 3 -20 l 14 -20 l 14 -15 l 3 -15 z m -18 -96 l -18 -102 b -2 -69 -11 -102 -5 -91 l -13 -69 z m -29 -145 b -40 -156 -35 -145 -39 -149 l -40 -167 b -29 -156 -33 -167 -29 -163 z m 112 -161 l 123 -161 b 112 -151 123 -155 119 -151 z m -24 -189 b -40 -227 -24 -201 -29 -214 l -40 -248 l -29 -248 b -13 -189 -18 -220 -13 -200 z m -51 -199 b -73 -237 -65 -205 -73 -218 l -62 -237 b -51 -210 -62 -231 -58 -222 z m -121 -210 b -132 -221 -127 -210 -131 -214 l -132 -232 b -121 -221 -125 -232 -121 -229 z m 25 -237 l 25 -243 b 3 -308 25 -248 18 -269 l -2 -308 l -2 -302 b 20 -237 12 -272 20 -250 z m 74 -259 l 74 -270 l 68 -270 l 68 -259 z m -149 -281 b -159 -292 -155 -281 -158 -284 l -159 -302 b -149 -292 -152 -302 -149 -299 z m 20 -308 l 20 -330 l 14 -330 l 14 -308 z m -62 -308 b -73 -319 -68 -308 -71 -311 l -73 -330 l -62 -330 z m -2 -313 l -2 -319 b -7 -340 -5 -325 -7 -332 l -13 -340 l -13 -330 b -7 -313 -9 -322 -7 -317 z m -176 -346 b -192 -368 -181 -346 -186 -353 l -192 -378 b -176 -357 -186 -378 -181 -371 z m -78 -357 b -89 -368 -84 -357 -87 -360 l -89 -373 l -78 -373 b -73 -357 -78 -369 -76 -363 z m -192 -384 b -241 -530 -212 -408 -228 -456 l -241 -536 l -230 -536 b -192 -389 -219 -505 -206 -456 z m -100 -389 b -111 -422 -100 -399 -103 -410 b -105 -427 -107 -422 -105 -424 b -89 -395 -98 -427 -92 -416 l -89 -389 z m -143 -422 l -132 -422 l -132 -416 l -143 -416 z "},"U":{"ha":823,"x_min":0,"x_max":0,"o":"m 766 671 l 777 671 b 766 682 777 677 774 682 z m 690 655 b 598 454 690 636 659 569 l 587 454 l 587 471 l 576 471 b 484 308 572 434 541 380 b 441 189 468 243 454 204 b 305 -50 410 112 366 33 b 414 313 305 16 341 138 b 463 568 429 422 445 508 l 463 574 b 370 606 463 592 432 603 b 338 585 360 597 349 589 b 316 606 329 599 321 606 l 289 585 l 262 601 b 245 590 251 601 245 597 b 208 606 236 590 223 595 l 197 606 l 197 595 b 159 492 172 536 159 501 b 12 -191 61 134 12 -94 b 18 -251 16 -216 18 -236 b 251 -473 67 -399 144 -473 l 256 -473 b 468 -327 334 -473 405 -425 b 511 -262 476 -302 490 -280 b 647 -23 568 -153 613 -73 b 810 346 713 150 768 273 l 810 351 l 793 351 b 739 264 776 316 758 287 l 745 254 b 674 107 722 230 698 181 l 669 107 l 669 118 b 875 574 764 315 833 467 l 859 574 l 853 552 b 669 205 815 490 753 374 b 604 58 630 108 608 59 b 642 178 604 66 616 106 b 728 362 686 264 715 326 l 718 362 l 669 254 l 663 254 l 663 259 b 718 362 688 328 707 362 b 707 373 718 368 714 372 l 707 389 b 755 509 739 458 755 498 l 745 509 b 728 471 741 484 736 471 b 631 281 670 347 637 284 l 761 585 l 755 612 l 755 617 l 766 612 l 772 612 l 772 623 l 766 623 l 766 639 b 755 650 766 645 763 649 l 750 650 b 680 492 750 648 726 595 l 674 492 l 674 498 l 680 519 b 718 601 705 562 718 589 l 707 601 b 685 574 707 588 699 578 b 663 525 678 541 671 525 b 707 644 663 556 677 596 l 707 655 z m 723 628 l 734 628 l 734 639 l 723 639 z m 728 563 b 745 595 728 581 734 592 l 750 595 l 734 574 l 739 563 z m 642 585 b 598 514 637 585 622 561 l 598 503 b 647 585 612 503 628 530 z m 907 585 b 853 471 891 542 873 504 l 853 465 l 859 465 b 918 579 866 466 886 504 l 918 585 z m 821 557 l 831 557 l 831 563 l 821 563 z m 772 541 b 761 530 766 541 762 538 l 766 530 b 777 541 774 530 777 534 z m 804 530 l 815 530 l 815 536 l 804 536 z m 793 503 l 804 503 l 804 509 l 793 509 z m 587 481 l 598 481 l 598 492 l 587 492 z m 772 460 l 783 460 l 783 471 l 772 471 z m 804 373 l 804 362 l 810 362 b 859 444 820 363 836 390 l 853 454 z m 761 438 b 750 427 755 438 751 435 l 750 416 l 761 416 b 766 433 761 420 763 426 l 766 438 z m 631 400 l 631 395 b 625 378 627 388 625 382 l 620 378 l 620 384 b 625 400 623 391 625 397 z m 734 389 l 745 389 l 745 400 l 734 400 z m 571 335 b 593 368 579 357 587 368 l 582 335 z m 142 302 l 142 292 l 137 292 l 137 302 z m 191 248 l 191 243 b 175 178 191 237 186 216 l 170 178 l 170 183 b 186 248 170 186 175 208 z m 604 232 b 614 243 604 238 607 242 l 614 237 b 604 227 614 230 611 227 z m 159 237 l 159 232 b 88 -202 112 9 88 -136 b 262 -392 105 -329 163 -392 b 316 -370 298 -386 316 -378 b 273 -376 290 -374 276 -376 l 256 -376 l 256 -370 b 365 -300 304 -370 340 -347 l 365 -294 l 354 -294 l 365 -273 l 365 -262 b 262 -338 321 -313 287 -338 b 213 -327 253 -338 237 -334 l 213 -321 l 218 -321 l 245 -327 b 392 -186 291 -327 340 -280 b 376 -240 392 -203 387 -222 l 376 -251 b 408 -208 394 -234 405 -219 b 414 -213 412 -208 414 -210 b 435 -208 422 -213 429 -211 l 463 -218 l 463 -224 b 273 -414 397 -351 334 -414 b 213 -403 247 -414 227 -410 b 77 -218 123 -368 77 -306 l 77 -213 b 153 237 77 -75 102 75 z m 115 210 l 115 205 b 83 75 104 145 94 102 l 77 75 l 77 80 b 110 210 87 135 98 178 z m 576 172 l 576 167 b 571 145 573 161 571 153 l 566 145 l 566 156 b 571 172 569 163 571 169 z m 256 15 l 256 4 l 251 4 l 251 15 z m 132 4 l 132 -7 l 126 -39 l 121 -39 l 121 -28 l 126 4 z m 251 -1 l 251 -28 l 245 -28 l 245 -1 z m 170 -39 l 170 -72 l 153 -213 l 159 -240 l 159 -245 l 153 -245 b 148 -202 153 -242 151 -228 b 164 -39 148 -178 153 -124 z m 56 -77 l 56 -83 b 50 -224 52 -136 50 -182 l 45 -224 b 39 -159 45 -192 43 -170 b 50 -77 41 -150 45 -123 z m 224 -142 b 229 -180 224 -153 226 -166 l 229 -186 l 218 -180 l 218 -142 z m 316 -186 l 316 -197 l 311 -197 l 311 -186 z m 224 -208 b 229 -229 224 -216 226 -223 l 229 -235 l 224 -235 b 218 -218 224 -231 222 -225 l 218 -208 z m 376 -397 b 500 -224 448 -286 490 -229 b 381 -397 500 -260 460 -317 z m 56 -229 l 56 -240 l 50 -240 l 50 -229 z m 294 -245 b 305 -235 294 -239 298 -235 l 311 -235 b 294 -251 304 -245 299 -251 z m 425 -235 b 397 -273 418 -235 410 -248 l 397 -283 b 430 -240 409 -279 420 -264 l 430 -235 z m 56 -262 b 218 -430 94 -374 148 -430 l 218 -435 l 186 -441 l 180 -430 b 50 -278 138 -430 95 -379 l 50 -262 z m 376 -278 l 387 -278 b 376 -267 387 -272 383 -268 z m 381 -294 b 359 -321 374 -296 366 -304 l 359 -327 l 365 -327 b 387 -300 372 -325 379 -316 b 381 -294 383 -300 381 -298 z m 349 -338 b 316 -370 327 -355 316 -366 l 327 -370 b 354 -343 345 -357 354 -348 l 354 -338 z m 294 -435 l 294 -441 l 278 -441 l 278 -435 z "}}}
